<svg width="41" height="41" viewBox="0 0 41 41" fill="none" xmlns="http://www.w3.org/2000/svg">
<path d="M37.8798 20.5942C37.8798 19.1409 37.7595 18.0803 37.4991 16.9805H20.5645V23.5402H30.5047C30.3044 25.1704 29.2221 27.6254 26.8172 29.2751L26.7835 29.4947L32.1379 33.5597L32.5088 33.596C35.9157 30.5125 37.8798 25.9756 37.8798 20.5942Z" fill="#4285F4"/>
<path d="M20.5621 37.8776C25.432 37.8776 29.5203 36.3063 32.5065 33.596L26.8149 29.275C25.2918 30.316 23.2476 31.0427 20.5621 31.0427C15.7924 31.0427 11.7442 27.9592 10.3011 23.6973L10.0896 23.7149L4.52203 27.9376L4.44922 28.1359C7.41524 33.9101 13.5077 37.8776 20.5621 37.8776Z" fill="#34A853"/>
<path d="M10.3032 23.6973C9.92238 22.5975 9.70202 21.419 9.70202 20.2013C9.70202 18.9836 9.92238 17.8052 10.2831 16.7054L10.273 16.4711L4.63567 12.1807L4.45123 12.2666C3.22878 14.6628 2.52734 17.3535 2.52734 20.2013C2.52734 23.0492 3.22878 25.7398 4.45123 28.1359L10.3032 23.6973Z" fill="#FBBC05"/>
<path d="M20.5622 9.36012C23.9491 9.36012 26.2337 10.7938 27.5365 11.992L32.6269 7.12119C29.5006 4.27337 25.4321 2.52539 20.5622 2.52539C13.5077 2.52539 7.41526 6.49267 4.44922 12.2668L10.2811 16.7056C11.7443 12.4437 15.7925 9.36012 20.5622 9.36012Z" fill="#EB4335"/>
</svg>
