<svg width="16" height="16" viewBox="0 0 16 16" fill="none" xmlns="http://www.w3.org/2000/svg">
<path d="M8.00065 8.66634C8.36884 8.66634 8.66732 8.36786 8.66732 7.99967C8.66732 7.63148 8.36884 7.33301 8.00065 7.33301C7.63246 7.33301 7.33398 7.63148 7.33398 7.99967C7.33398 8.36786 7.63246 8.66634 8.00065 8.66634Z" stroke="#0A0A0A" stroke-width="1.33333" stroke-linecap="round" stroke-linejoin="round"/>
<path d="M8.00065 4.00033C8.36884 4.00033 8.66732 3.70185 8.66732 3.33366C8.66732 2.96547 8.36884 2.66699 8.00065 2.66699C7.63246 2.66699 7.33398 2.96547 7.33398 3.33366C7.33398 3.70185 7.63246 4.00033 8.00065 4.00033Z" stroke="#0A0A0A" stroke-width="1.33333" stroke-linecap="round" stroke-linejoin="round"/>
<path d="M8.00065 13.3333C8.36884 13.3333 8.66732 13.0349 8.66732 12.6667C8.66732 12.2985 8.36884 12 8.00065 12C7.63246 12 7.33398 12.2985 7.33398 12.6667C7.33398 13.0349 7.63246 13.3333 8.00065 13.3333Z" stroke="#0A0A0A" stroke-width="1.33333" stroke-linecap="round" stroke-linejoin="round"/>
</svg>
