<svg width="20" height="20" viewBox="0 0 20 20" fill="none" xmlns="http://www.w3.org/2000/svg">
<path d="M8.97127 13.5292C9.00032 13.5582 9.02337 13.5926 9.0391 13.6306C9.05483 13.6685 9.06292 13.7092 9.06292 13.7502C9.06292 13.7913 9.05483 13.832 9.0391 13.8699C9.02337 13.9079 9.00032 13.9423 8.97127 13.9713L6.47127 16.4713C6.44224 16.5004 6.40778 16.5234 6.36984 16.5392C6.33191 16.5549 6.29124 16.563 6.25017 16.563C6.20911 16.563 6.16844 16.5549 6.1305 16.5392C6.09257 16.5234 6.0581 16.5004 6.02908 16.4713L3.52908 13.9713C3.47044 13.9127 3.4375 13.8332 3.4375 13.7502C3.4375 13.6673 3.47044 13.5878 3.52908 13.5292C3.58772 13.4705 3.66725 13.4376 3.75017 13.4376C3.8331 13.4376 3.91263 13.4705 3.97127 13.5292L5.93767 15.4956V3.75025C5.93767 3.66737 5.9706 3.58788 6.0292 3.52928C6.08781 3.47067 6.16729 3.43775 6.25017 3.43775C6.33305 3.43775 6.41254 3.47067 6.47114 3.52928C6.52975 3.58788 6.56267 3.66737 6.56267 3.75025V15.4956L8.52908 13.5292C8.5581 13.5001 8.59257 13.477 8.6305 13.4613C8.66844 13.4456 8.70911 13.4375 8.75017 13.4375C8.79124 13.4375 8.83191 13.4456 8.86984 13.4613C8.90778 13.477 8.94225 13.5001 8.97127 13.5292ZM16.4713 6.02915L13.9713 3.52915C13.9422 3.5001 13.9078 3.47705 13.8698 3.46132C13.8319 3.44559 13.7912 3.4375 13.7502 3.4375C13.7091 3.4375 13.6684 3.44559 13.6305 3.46132C13.5926 3.47705 13.5581 3.5001 13.5291 3.52915L11.0291 6.02915C10.9704 6.08779 10.9375 6.16732 10.9375 6.25025C10.9375 6.33317 10.9704 6.4127 11.0291 6.47134C11.0877 6.52998 11.1672 6.56292 11.2502 6.56292C11.3331 6.56292 11.4126 6.52998 11.4713 6.47134L13.4377 4.50493V16.2502C13.4377 16.3331 13.4706 16.4126 13.5292 16.4712C13.5878 16.5298 13.6673 16.5627 13.7502 16.5627C13.8331 16.5627 13.9125 16.5298 13.9711 16.4712C14.0297 16.4126 14.0627 16.3331 14.0627 16.2502V4.50493L16.0291 6.47134C16.0581 6.50037 16.0926 6.52341 16.1305 6.53912C16.1685 6.55483 16.2091 6.56292 16.2502 6.56292C16.2912 6.56292 16.3319 6.55483 16.3698 6.53912C16.4078 6.52341 16.4422 6.50037 16.4713 6.47134C16.5003 6.44231 16.5233 6.40784 16.539 6.3699C16.5548 6.33197 16.5628 6.29131 16.5628 6.25025C16.5628 6.20918 16.5548 6.16853 16.539 6.13059C16.5233 6.09266 16.5003 6.05819 16.4713 6.02915Z" fill="#616161"/>
</svg>
