<svg width="546" height="300" viewBox="0 0 546 300" fill="none" xmlns="http://www.w3.org/2000/svg">
<path d="M65 241H541" stroke="#CCCCCC" stroke-dasharray="3 3"/>
<path d="M65 182H541" stroke="#CCCCCC" stroke-dasharray="3 3"/>
<path d="M65 123H541" stroke="#CCCCCC" stroke-dasharray="3 3"/>
<path d="M65 64H541" stroke="#CCCCCC" stroke-dasharray="3 3"/>
<path d="M65 5H541" stroke="#CCCCCC" stroke-dasharray="3 3"/>
<path d="M65 5V241" stroke="#CCCCCC" stroke-dasharray="3 3"/>
<path d="M223.666 5V241" stroke="#CCCCCC" stroke-dasharray="3 3"/>
<path d="M382.334 5V241" stroke="#CCCCCC" stroke-dasharray="3 3"/>
<path d="M541 5V241" stroke="#CCCCCC" stroke-dasharray="3 3"/>
<path d="M65 148.96C117.889 133.62 170.778 118.28 223.667 118.28C276.556 118.28 329.444 127.327 382.333 127.327C435.222 127.327 488.111 105.3 541 83.2734" stroke="#FBBC05" stroke-width="2"/>
<path d="M65 223.3C117.889 218.973 170.778 214.647 223.667 214.647C276.556 214.647 329.444 220.547 382.333 220.547C435.222 220.547 488.111 213.27 541 205.993" stroke="#309689" stroke-width="2"/>
<path d="M65 241H541" stroke="#666666"/>
<path d="M65 247V241" stroke="#666666"/>
<path d="M223.666 247V241" stroke="#666666"/>
<path d="M382.334 247V241" stroke="#666666"/>
<path d="M541 247V241" stroke="#666666"/>
<path d="M65 5V241" stroke="#666666"/>
<path d="M59 241H65" stroke="#666666"/>
<path d="M59 182H65" stroke="#666666"/>
<path d="M59 123H65" stroke="#666666"/>
<path d="M59 64H65" stroke="#666666"/>
<path d="M59 5H65" stroke="#666666"/>
<path d="M65 151.96C66.6569 151.96 68 150.617 68 148.96C68 147.303 66.6569 145.96 65 145.96C63.3431 145.96 62 147.303 62 148.96C62 150.617 63.3431 151.96 65 151.96Z" fill="white" stroke="#6366F1" stroke-width="2"/>
<path d="M223.666 121.28C225.323 121.28 226.666 119.937 226.666 118.28C226.666 116.623 225.323 115.28 223.666 115.28C222.009 115.28 220.666 116.623 220.666 118.28C220.666 119.937 222.009 121.28 223.666 121.28Z" fill="white" stroke="#6366F1" stroke-width="2"/>
<path d="M382.334 130.327C383.991 130.327 385.334 128.984 385.334 127.327C385.334 125.67 383.991 124.327 382.334 124.327C380.677 124.327 379.334 125.67 379.334 127.327C379.334 128.984 380.677 130.327 382.334 130.327Z" fill="white" stroke="#6366F1" stroke-width="2"/>
<path d="M541 86.2734C542.657 86.2734 544 84.9303 544 83.2734C544 81.6166 542.657 80.2734 541 80.2734C539.343 80.2734 538 81.6166 538 83.2734C538 84.9303 539.343 86.2734 541 86.2734Z" fill="white" stroke="#6366F1" stroke-width="2"/>
<path d="M65 226.3C66.6569 226.3 68 224.957 68 223.3C68 221.643 66.6569 220.3 65 220.3C63.3431 220.3 62 221.643 62 223.3C62 224.957 63.3431 226.3 65 226.3Z" fill="white" stroke="#10B981" stroke-width="2"/>
<path d="M223.666 217.646C225.323 217.646 226.666 216.303 226.666 214.646C226.666 212.99 225.323 211.646 223.666 211.646C222.009 211.646 220.666 212.99 220.666 214.646C220.666 216.303 222.009 217.646 223.666 217.646Z" fill="white" stroke="#10B981" stroke-width="2"/>
<path d="M382.334 223.547C383.991 223.547 385.334 222.204 385.334 220.547C385.334 218.89 383.991 217.547 382.334 217.547C380.677 217.547 379.334 218.89 379.334 220.547C379.334 222.204 380.677 223.547 382.334 223.547Z" fill="white" stroke="#10B981" stroke-width="2"/>
<path d="M541 208.993C542.657 208.993 544 207.65 544 205.993C544 204.336 542.657 202.993 541 202.993C539.343 202.993 538 204.336 538 205.993C538 207.65 539.343 208.993 541 208.993Z" fill="white" stroke="#10B981" stroke-width="2"/>
<path d="M47.5268 257.52L45.1404 248.792H46.2143L48.0382 255.9H48.1234L49.9814 248.792H51.1745L53.0325 255.9H53.1177L54.9416 248.792H56.0154L53.6291 257.52H52.5382L50.612 250.565H50.5439L48.6177 257.52H47.5268ZM59.3308 257.656C58.7001 257.656 58.1561 257.517 57.6987 257.238C57.2441 256.957 56.8933 256.565 56.6461 256.062C56.4018 255.556 56.2797 254.968 56.2797 254.298C56.2797 253.627 56.4018 253.037 56.6461 252.525C56.8933 252.011 57.237 251.61 57.6774 251.324C58.1206 251.034 58.6376 250.889 59.2285 250.889C59.5694 250.889 59.9061 250.946 60.2385 251.059C60.5708 251.173 60.8734 251.358 61.1461 251.613C61.4189 251.866 61.6362 252.201 61.7981 252.619C61.96 253.037 62.041 253.551 62.041 254.162V254.588H56.9956V253.718H61.0183C61.0183 253.349 60.9444 253.02 60.7967 252.73C60.6518 252.44 60.4444 252.211 60.1745 252.044C59.9075 251.876 59.5922 251.792 59.2285 251.792C58.8279 251.792 58.4814 251.892 58.1887 252.091C57.899 252.287 57.676 252.542 57.5197 252.858C57.3635 253.173 57.2853 253.511 57.2853 253.872V254.451C57.2853 254.946 57.3706 255.365 57.541 255.708C57.7143 256.049 57.9544 256.309 58.2612 256.488C58.568 256.664 58.9245 256.752 59.3308 256.752C59.595 256.752 59.8336 256.716 60.0467 256.642C60.2626 256.565 60.4487 256.451 60.6049 256.301C60.7612 256.147 60.8819 255.957 60.9672 255.73L61.9387 256.002C61.8365 256.332 61.6646 256.622 61.4231 256.872C61.1816 257.119 60.8833 257.312 60.5282 257.451C60.1731 257.588 59.774 257.656 59.3308 257.656ZM66.3152 257.656C65.6845 257.656 65.1404 257.517 64.6831 257.238C64.2285 256.957 63.8777 256.565 63.6305 256.062C63.3862 255.556 63.264 254.968 63.264 254.298C63.264 253.627 63.3862 253.037 63.6305 252.525C63.8777 252.011 64.2214 251.61 64.6618 251.324C65.1049 251.034 65.622 250.889 66.2129 250.889C66.5538 250.889 66.8904 250.946 67.2228 251.059C67.5552 251.173 67.8578 251.358 68.1305 251.613C68.4032 251.866 68.6206 252.201 68.7825 252.619C68.9444 253.037 69.0254 253.551 69.0254 254.162V254.588H63.9799V253.718H68.0027C68.0027 253.349 67.9288 253.02 67.7811 252.73C67.6362 252.44 67.4288 252.211 67.1589 252.044C66.8919 251.876 66.5765 251.792 66.2129 251.792C65.8123 251.792 65.4657 251.892 65.1731 252.091C64.8833 252.287 64.6603 252.542 64.5041 252.858C64.3478 253.173 64.2697 253.511 64.2697 253.872V254.451C64.2697 254.946 64.3549 255.365 64.5254 255.708C64.6987 256.049 64.9387 256.309 65.2456 256.488C65.5524 256.664 65.9089 256.752 66.3152 256.752C66.5794 256.752 66.818 256.716 67.0311 256.642C67.247 256.565 67.4331 256.451 67.5893 256.301C67.7456 256.147 67.8663 255.957 67.9515 255.73L68.9231 256.002C68.8208 256.332 68.649 256.622 68.4075 256.872C68.166 257.119 67.8677 257.312 67.5126 257.451C67.1575 257.588 66.7583 257.656 66.3152 257.656ZM71.4927 255.133L71.4757 253.889H71.6802L74.5439 250.974H75.7882L72.737 254.059H72.6518L71.4927 255.133ZM70.5552 257.52V248.792H71.5609V257.52H70.5552ZM74.7143 257.52L72.1575 254.281L72.8734 253.582L75.9927 257.52H74.7143ZM83.5087 248.792V257.52H82.4519V249.9H82.4007L80.2701 251.315V250.241L82.4519 248.792H83.5087Z" fill="#666666"/>
<path d="M205.349 257.52L202.963 248.792H204.037L205.86 255.9H205.946L207.804 248.792H208.997L210.855 255.9H210.94L212.764 248.792H213.838L211.451 257.52H210.36L208.434 250.565H208.366L206.44 257.52H205.349ZM217.153 257.656C216.522 257.656 215.978 257.517 215.521 257.238C215.066 256.957 214.716 256.565 214.468 256.062C214.224 255.556 214.102 254.968 214.102 254.298C214.102 253.627 214.224 253.037 214.468 252.525C214.716 252.011 215.059 251.61 215.5 251.324C215.943 251.034 216.46 250.889 217.051 250.889C217.392 250.889 217.728 250.946 218.061 251.059C218.393 251.173 218.696 251.358 218.968 251.613C219.241 251.866 219.458 252.201 219.62 252.619C219.782 253.037 219.863 253.551 219.863 254.162V254.588H214.818V253.718H218.841C218.841 253.349 218.767 253.02 218.619 252.73C218.474 252.44 218.267 252.211 217.997 252.044C217.73 251.876 217.414 251.792 217.051 251.792C216.65 251.792 216.304 251.892 216.011 252.091C215.721 252.287 215.498 252.542 215.342 252.858C215.186 253.173 215.108 253.511 215.108 253.872V254.451C215.108 254.946 215.193 255.365 215.363 255.708C215.537 256.049 215.777 256.309 216.083 256.488C216.39 256.664 216.747 256.752 217.153 256.752C217.417 256.752 217.656 256.716 217.869 256.642C218.085 256.565 218.271 256.451 218.427 256.301C218.583 256.147 218.704 255.957 218.789 255.73L219.761 256.002C219.659 256.332 219.487 256.622 219.245 256.872C219.004 257.119 218.706 257.312 218.35 257.451C217.995 257.588 217.596 257.656 217.153 257.656ZM224.137 257.656C223.507 257.656 222.963 257.517 222.505 257.238C222.051 256.957 221.7 256.565 221.453 256.062C221.208 255.556 221.086 254.968 221.086 254.298C221.086 253.627 221.208 253.037 221.453 252.525C221.7 252.011 222.044 251.61 222.484 251.324C222.927 251.034 223.444 250.889 224.035 250.889C224.376 250.889 224.713 250.946 225.045 251.059C225.377 251.173 225.68 251.358 225.953 251.613C226.225 251.866 226.443 252.201 226.605 252.619C226.767 253.037 226.848 253.551 226.848 254.162V254.588H221.802V253.718H225.825C225.825 253.349 225.751 253.02 225.603 252.73C225.458 252.44 225.251 252.211 224.981 252.044C224.714 251.876 224.399 251.792 224.035 251.792C223.635 251.792 223.288 251.892 222.995 252.091C222.706 252.287 222.483 252.542 222.326 252.858C222.17 253.173 222.092 253.511 222.092 253.872V254.451C222.092 254.946 222.177 255.365 222.348 255.708C222.521 256.049 222.761 256.309 223.068 256.488C223.375 256.664 223.731 256.752 224.137 256.752C224.402 256.752 224.64 256.716 224.853 256.642C225.069 256.565 225.255 256.451 225.412 256.301C225.568 256.147 225.689 255.957 225.774 255.73L226.745 256.002C226.643 256.332 226.471 256.622 226.23 256.872C225.988 257.119 225.69 257.312 225.335 257.451C224.98 257.588 224.581 257.656 224.137 257.656ZM229.315 255.133L229.298 253.889H229.502L232.366 250.974H233.61L230.559 254.059H230.474L229.315 255.133ZM228.377 257.52V248.792H229.383V257.52H228.377ZM232.537 257.52L229.98 254.281L230.696 253.582L233.815 257.52H232.537ZM238.263 257.52V256.752L241.143 253.599C241.482 253.23 241.76 252.909 241.979 252.636C242.197 252.36 242.359 252.102 242.464 251.86C242.572 251.616 242.626 251.36 242.626 251.093C242.626 250.787 242.553 250.521 242.405 250.297C242.26 250.072 242.061 249.899 241.808 249.777C241.555 249.654 241.271 249.593 240.956 249.593C240.621 249.593 240.328 249.663 240.078 249.802C239.831 249.939 239.639 250.13 239.503 250.377C239.369 250.625 239.303 250.914 239.303 251.247H238.297C238.297 250.735 238.415 250.287 238.651 249.9C238.886 249.514 239.207 249.213 239.614 248.997C240.023 248.781 240.482 248.673 240.99 248.673C241.501 248.673 241.955 248.781 242.349 248.997C242.744 249.213 243.054 249.504 243.278 249.87C243.503 250.237 243.615 250.645 243.615 251.093C243.615 251.414 243.557 251.728 243.44 252.035C243.327 252.339 243.128 252.679 242.844 253.054C242.562 253.426 242.172 253.88 241.672 254.417L239.712 256.514V256.582H243.768V257.52H238.263Z" fill="#666666"/>
<path d="M363.83 257.52L361.443 248.792H362.517L364.341 255.9H364.426L366.284 248.792H367.477L369.335 255.9H369.42L371.244 248.792H372.318L369.932 257.52H368.841L366.915 250.565H366.847L364.92 257.52H363.83ZM375.634 257.656C375.003 257.656 374.459 257.517 374.001 257.238C373.547 256.957 373.196 256.565 372.949 256.062C372.705 255.556 372.582 254.968 372.582 254.298C372.582 253.627 372.705 253.037 372.949 252.525C373.196 252.011 373.54 251.61 373.98 251.324C374.423 251.034 374.94 250.889 375.531 250.889C375.872 250.889 376.209 250.946 376.541 251.059C376.874 251.173 377.176 251.358 377.449 251.613C377.722 251.866 377.939 252.201 378.101 252.619C378.263 253.037 378.344 253.551 378.344 254.162V254.588H373.298V253.718H377.321C377.321 253.349 377.247 253.02 377.099 252.73C376.955 252.44 376.747 252.211 376.477 252.044C376.21 251.876 375.895 251.792 375.531 251.792C375.131 251.792 374.784 251.892 374.491 252.091C374.202 252.287 373.979 252.542 373.822 252.858C373.666 253.173 373.588 253.511 373.588 253.872V254.451C373.588 254.946 373.673 255.365 373.844 255.708C374.017 256.049 374.257 256.309 374.564 256.488C374.871 256.664 375.227 256.752 375.634 256.752C375.898 256.752 376.136 256.716 376.349 256.642C376.565 256.565 376.751 256.451 376.908 256.301C377.064 256.147 377.185 255.957 377.27 255.73L378.241 256.002C378.139 256.332 377.967 256.622 377.726 256.872C377.484 257.119 377.186 257.312 376.831 257.451C376.476 257.588 376.077 257.656 375.634 257.656ZM382.618 257.656C381.987 257.656 381.443 257.517 380.986 257.238C380.531 256.957 380.18 256.565 379.933 256.062C379.689 255.556 379.567 254.968 379.567 254.298C379.567 253.627 379.689 253.037 379.933 252.525C380.18 252.011 380.524 251.61 380.964 251.324C381.408 251.034 381.925 250.889 382.516 250.889C382.857 250.889 383.193 250.946 383.526 251.059C383.858 251.173 384.161 251.358 384.433 251.613C384.706 251.866 384.923 252.201 385.085 252.619C385.247 253.037 385.328 253.551 385.328 254.162V254.588H380.283V253.718H384.305C384.305 253.349 384.232 253.02 384.084 252.73C383.939 252.44 383.732 252.211 383.462 252.044C383.195 251.876 382.879 251.792 382.516 251.792C382.115 251.792 381.768 251.892 381.476 252.091C381.186 252.287 380.963 252.542 380.807 252.858C380.651 253.173 380.572 253.511 380.572 253.872V254.451C380.572 254.946 380.658 255.365 380.828 255.708C381.001 256.049 381.241 256.309 381.548 256.488C381.855 256.664 382.212 256.752 382.618 256.752C382.882 256.752 383.121 256.716 383.334 256.642C383.55 256.565 383.736 256.451 383.892 256.301C384.048 256.147 384.169 255.957 384.254 255.73L385.226 256.002C385.124 256.332 384.952 256.622 384.71 256.872C384.469 257.119 384.17 257.312 383.815 257.451C383.46 257.588 383.061 257.656 382.618 257.656ZM387.795 255.133L387.778 253.889H387.983L390.847 250.974H392.091L389.04 254.059H388.955L387.795 255.133ZM386.858 257.52V248.792H387.864V257.52H386.858ZM391.017 257.52L388.46 254.281L389.176 253.582L392.295 257.52H391.017ZM399.692 257.639C399.13 257.639 398.628 257.542 398.188 257.349C397.75 257.156 397.402 256.887 397.144 256.544C396.888 256.197 396.749 255.795 396.726 255.338H397.8C397.823 255.619 397.919 255.862 398.09 256.066C398.26 256.268 398.483 256.424 398.759 256.535C399.034 256.646 399.34 256.701 399.675 256.701C400.05 256.701 400.382 256.636 400.672 256.505C400.962 256.375 401.189 256.193 401.354 255.96C401.519 255.727 401.601 255.457 401.601 255.15C401.601 254.829 401.522 254.547 401.363 254.302C401.203 254.055 400.971 253.862 400.664 253.723C400.357 253.583 399.982 253.514 399.539 253.514H398.84V252.576H399.539C399.885 252.576 400.189 252.514 400.451 252.389C400.715 252.264 400.921 252.088 401.069 251.86C401.219 251.633 401.294 251.366 401.294 251.059C401.294 250.764 401.229 250.507 401.098 250.288C400.968 250.069 400.783 249.899 400.544 249.777C400.309 249.654 400.03 249.593 399.709 249.593C399.408 249.593 399.124 249.649 398.857 249.76C398.593 249.868 398.377 250.025 398.209 250.233C398.042 250.437 397.951 250.684 397.936 250.974H396.914C396.931 250.517 397.069 250.116 397.327 249.772C397.586 249.426 397.924 249.156 398.341 248.963C398.762 248.77 399.223 248.673 399.726 248.673C400.266 248.673 400.729 248.782 401.115 249.001C401.502 249.217 401.799 249.502 402.006 249.858C402.213 250.213 402.317 250.596 402.317 251.008C402.317 251.5 402.188 251.919 401.929 252.265C401.674 252.612 401.326 252.852 400.885 252.985V253.054C401.436 253.145 401.867 253.379 402.176 253.757C402.486 254.132 402.641 254.596 402.641 255.15C402.641 255.625 402.512 256.051 402.253 256.429C401.998 256.804 401.648 257.099 401.205 257.315C400.762 257.531 400.257 257.639 399.692 257.639Z" fill="#666666"/>
<path d="M501.458 257.52L499.072 248.792H500.146L501.97 255.9H502.055L503.913 248.792H505.106L506.964 255.9H507.049L508.873 248.792H509.947L507.561 257.52H506.47L504.544 250.565H504.475L502.549 257.52H501.458ZM513.262 257.656C512.632 257.656 512.088 257.517 511.63 257.238C511.176 256.957 510.825 256.565 510.578 256.062C510.333 255.556 510.211 254.968 510.211 254.298C510.211 253.627 510.333 253.037 510.578 252.525C510.825 252.011 511.169 251.61 511.609 251.324C512.052 251.034 512.569 250.889 513.16 250.889C513.501 250.889 513.838 250.946 514.17 251.059C514.502 251.173 514.805 251.358 515.078 251.613C515.35 251.866 515.568 252.201 515.73 252.619C515.892 253.037 515.973 253.551 515.973 254.162V254.588H510.927V253.718H514.95C514.95 253.349 514.876 253.02 514.728 252.73C514.583 252.44 514.376 252.211 514.106 252.044C513.839 251.876 513.524 251.792 513.16 251.792C512.76 251.792 512.413 251.892 512.12 252.091C511.831 252.287 511.608 252.542 511.451 252.858C511.295 253.173 511.217 253.511 511.217 253.872V254.451C511.217 254.946 511.302 255.365 511.473 255.708C511.646 256.049 511.886 256.309 512.193 256.488C512.5 256.664 512.856 256.752 513.262 256.752C513.527 256.752 513.765 256.716 513.978 256.642C514.194 256.565 514.38 256.451 514.537 256.301C514.693 256.147 514.814 255.957 514.899 255.73L515.87 256.002C515.768 256.332 515.596 256.622 515.355 256.872C515.113 257.119 514.815 257.312 514.46 257.451C514.105 257.588 513.706 257.656 513.262 257.656ZM520.247 257.656C519.616 257.656 519.072 257.517 518.615 257.238C518.16 256.957 517.809 256.565 517.562 256.062C517.318 255.556 517.196 254.968 517.196 254.298C517.196 253.627 517.318 253.037 517.562 252.525C517.809 252.011 518.153 251.61 518.593 251.324C519.037 251.034 519.554 250.889 520.145 250.889C520.485 250.889 520.822 250.946 521.154 251.059C521.487 251.173 521.789 251.358 522.062 251.613C522.335 251.866 522.552 252.201 522.714 252.619C522.876 253.037 522.957 253.551 522.957 254.162V254.588H517.912V253.718H521.934C521.934 253.349 521.86 253.02 521.713 252.73C521.568 252.44 521.36 252.211 521.091 252.044C520.824 251.876 520.508 251.792 520.145 251.792C519.744 251.792 519.397 251.892 519.105 252.091C518.815 252.287 518.592 252.542 518.436 252.858C518.279 253.173 518.201 253.511 518.201 253.872V254.451C518.201 254.946 518.287 255.365 518.457 255.708C518.63 256.049 518.87 256.309 519.177 256.488C519.484 256.664 519.841 256.752 520.247 256.752C520.511 256.752 520.75 256.716 520.963 256.642C521.179 256.565 521.365 256.451 521.521 256.301C521.677 256.147 521.798 255.957 521.883 255.73L522.855 256.002C522.752 256.332 522.581 256.622 522.339 256.872C522.098 257.119 521.799 257.312 521.444 257.451C521.089 257.588 520.69 257.656 520.247 257.656ZM525.424 255.133L525.407 253.889H525.612L528.475 250.974H529.72L526.669 254.059H526.583L525.424 255.133ZM524.487 257.52V248.792H525.493V257.52H524.487ZM528.646 257.52L526.089 254.281L526.805 253.582L529.924 257.52H528.646ZM534.168 255.73V254.86L538.003 248.792H538.634V250.139H538.207L535.31 254.724V254.792H540.474V255.73H534.168ZM538.276 257.52V255.466V255.061V248.792H539.281V257.52H538.276Z" fill="#666666"/>
<path d="M53.25 245.379C52.608 245.379 52.0611 245.204 51.6094 244.855C51.1577 244.503 50.8125 243.993 50.5739 243.325C50.3352 242.655 50.2159 241.845 50.2159 240.896C50.2159 239.953 50.3352 239.148 50.5739 238.48C50.8153 237.809 51.1619 237.298 51.6136 236.946C52.0682 236.591 52.6136 236.413 53.25 236.413C53.8864 236.413 54.4304 236.591 54.8821 236.946C55.3366 237.298 55.6832 237.809 55.9219 238.48C56.1634 239.148 56.2841 239.953 56.2841 240.896C56.2841 241.845 56.1648 242.655 55.9261 243.325C55.6875 243.993 55.3423 244.503 54.8906 244.855C54.4389 245.204 53.892 245.379 53.25 245.379ZM53.25 244.442C53.8864 244.442 54.3807 244.135 54.733 243.521C55.0852 242.907 55.2614 242.032 55.2614 240.896C55.2614 240.14 55.1804 239.497 55.0185 238.966C54.8594 238.434 54.6293 238.03 54.3281 237.751C54.0298 237.473 53.6705 237.334 53.25 237.334C52.6193 237.334 52.1264 237.645 51.7713 238.267C51.4162 238.886 51.2386 239.763 51.2386 240.896C51.2386 241.652 51.3182 242.294 51.4773 242.822C51.6364 243.351 51.8651 243.753 52.1634 244.028C52.4645 244.304 52.8267 244.442 53.25 244.442Z" fill="#666666"/>
<path d="M36.4962 180.729V179.622H39.0022V189.26H37.7758V180.729H36.4962ZM47.231 180.675H42.5522V183.714C42.7565 183.43 43.0587 183.199 43.4586 183.021C43.8585 182.835 44.2895 182.741 44.7516 182.741C45.4892 182.741 46.089 182.897 46.5512 183.208C47.0133 183.51 47.3421 183.906 47.5376 184.394C47.742 184.874 47.8442 185.385 47.8442 185.927C47.8442 186.567 47.7242 187.14 47.4843 187.647C47.2443 188.153 46.8755 188.553 46.3779 188.847C45.8891 189.14 45.2804 189.286 44.5517 189.286C43.6186 189.286 42.8632 189.046 42.2856 188.567C41.7079 188.087 41.3569 187.447 41.2325 186.647H42.4189C42.5344 187.154 42.7788 187.549 43.152 187.833C43.5252 188.118 43.9962 188.26 44.565 188.26C45.267 188.26 45.7958 188.051 46.1513 187.634C46.5067 187.207 46.6845 186.647 46.6845 185.954C46.6845 185.261 46.5067 184.728 46.1513 184.354C45.7958 183.972 45.2715 183.781 44.5783 183.781C44.1073 183.781 43.6941 183.897 43.3386 184.128C42.992 184.35 42.7388 184.656 42.5788 185.047H41.4324V179.609H47.231V180.675ZM49.4562 184.341C49.4562 182.812 49.705 181.622 50.2026 180.769C50.7003 179.907 51.5712 179.476 52.8153 179.476C54.0506 179.476 54.917 179.907 55.4147 180.769C55.9123 181.622 56.1611 182.812 56.1611 184.341C56.1611 185.896 55.9123 187.105 55.4147 187.967C54.917 188.829 54.0506 189.26 52.8153 189.26C51.5712 189.26 50.7003 188.829 50.2026 187.967C49.705 187.105 49.4562 185.896 49.4562 184.341ZM54.9614 184.341C54.9614 183.568 54.9081 182.915 54.8015 182.381C54.7037 181.839 54.4949 181.404 54.175 181.075C53.8639 180.746 53.4107 180.582 52.8153 180.582C52.211 180.582 51.7489 180.746 51.429 181.075C51.118 181.404 50.9091 181.839 50.8025 182.381C50.7047 182.915 50.6559 183.568 50.6559 184.341C50.6559 185.141 50.7047 185.812 50.8025 186.354C50.9091 186.896 51.118 187.331 51.429 187.66C51.7489 187.989 52.211 188.153 52.8153 188.153C53.4107 188.153 53.8639 187.989 54.175 187.66C54.4949 187.331 54.7037 186.896 54.8015 186.354C54.9081 185.812 54.9614 185.141 54.9614 184.341Z" fill="#666666"/>
<path d="M33.2096 123.048C33.2718 122.231 33.5873 121.591 34.156 121.129C34.7248 120.667 35.4624 120.436 36.3688 120.436C36.9731 120.436 37.493 120.547 37.9284 120.769C38.3727 120.982 38.706 121.275 38.9282 121.649C39.1592 122.022 39.2747 122.444 39.2747 122.915C39.2747 123.466 39.1148 123.941 38.7949 124.341C38.4838 124.741 38.075 124.999 37.5685 125.114V125.181C38.1461 125.323 38.6038 125.603 38.9415 126.021C39.2792 126.438 39.448 126.985 39.448 127.66C39.448 128.167 39.3325 128.625 39.1015 129.033C38.8704 129.433 38.5238 129.749 38.0617 129.98C37.5996 130.211 37.0442 130.326 36.3955 130.326C35.4535 130.326 34.6803 130.082 34.076 129.593C33.4718 129.096 33.1341 128.394 33.063 127.487H34.236C34.2982 128.02 34.5159 128.456 34.8892 128.793C35.2624 129.131 35.7601 129.3 36.3821 129.3C37.0042 129.3 37.4752 129.14 37.7951 128.82C38.1239 128.491 38.2883 128.069 38.2883 127.554C38.2883 126.887 38.0662 126.407 37.6218 126.114C37.1775 125.821 36.5065 125.674 35.609 125.674H35.3024V124.661H35.6223C36.4399 124.652 37.0575 124.519 37.4752 124.261C37.8929 123.995 38.1017 123.586 38.1017 123.035C38.1017 122.564 37.9462 122.186 37.6352 121.902C37.333 121.617 36.8976 121.475 36.3288 121.475C35.7778 121.475 35.3335 121.617 34.9958 121.902C34.6581 122.186 34.4582 122.568 34.396 123.048H33.2096ZM41.0859 125.341C41.0859 123.812 41.3347 122.622 41.8323 121.769C42.33 120.907 43.2009 120.476 44.445 120.476C45.6803 120.476 46.5467 120.907 47.0444 121.769C47.542 122.622 47.7908 123.812 47.7908 125.341C47.7908 126.896 47.542 128.105 47.0444 128.967C46.5467 129.829 45.6803 130.26 44.445 130.26C43.2009 130.26 42.33 129.829 41.8323 128.967C41.3347 128.105 41.0859 126.896 41.0859 125.341ZM46.5911 125.341C46.5911 124.568 46.5378 123.915 46.4312 123.381C46.3334 122.839 46.1246 122.404 45.8047 122.075C45.4936 121.746 45.0404 121.582 44.445 121.582C43.8407 121.582 43.3786 121.746 43.0587 122.075C42.7477 122.404 42.5388 122.839 42.4322 123.381C42.3344 123.915 42.2856 124.568 42.2856 125.341C42.2856 126.141 42.3344 126.812 42.4322 127.354C42.5388 127.896 42.7477 128.331 43.0587 128.66C43.3786 128.989 43.8407 129.153 44.445 129.153C45.0404 129.153 45.4936 128.989 45.8047 128.66C46.1246 128.331 46.3334 127.896 46.4312 127.354C46.5378 126.812 46.5911 126.141 46.5911 125.341ZM49.4562 125.341C49.4562 123.812 49.705 122.622 50.2026 121.769C50.7003 120.907 51.5712 120.476 52.8153 120.476C54.0506 120.476 54.917 120.907 55.4147 121.769C55.9123 122.622 56.1611 123.812 56.1611 125.341C56.1611 126.896 55.9123 128.105 55.4147 128.967C54.917 129.829 54.0506 130.26 52.8153 130.26C51.5712 130.26 50.7003 129.829 50.2026 128.967C49.705 128.105 49.4562 126.896 49.4562 125.341ZM54.9614 125.341C54.9614 124.568 54.9081 123.915 54.8015 123.381C54.7037 122.839 54.4949 122.404 54.175 122.075C53.8639 121.746 53.4107 121.582 52.8153 121.582C52.211 121.582 51.7489 121.746 51.429 122.075C51.118 122.404 50.9091 122.839 50.8025 123.381C50.7047 123.915 50.6559 124.568 50.6559 125.341C50.6559 126.141 50.7047 126.812 50.8025 127.354C50.9091 127.896 51.118 128.331 51.429 128.66C51.7489 128.989 52.211 129.153 52.8153 129.153C53.4107 129.153 53.8639 128.989 54.175 128.66C54.4949 128.331 54.7037 127.896 54.8015 127.354C54.9081 126.812 54.9614 126.141 54.9614 125.341Z" fill="#666666"/>
<path d="M32.4093 69.1136V68.1939L37.0881 61.7155H38.5411V68.0606H39.8741V69.1136H38.5411V71.2598H37.3414V69.1136H32.4093ZM37.3947 62.9818L33.8089 68.0606H37.3947V62.9818ZM47.231 62.6752H42.5522V65.7145C42.7565 65.4301 43.0587 65.1991 43.4586 65.0213C43.8585 64.8347 44.2895 64.7414 44.7516 64.7414C45.4892 64.7414 46.089 64.8969 46.5512 65.2079C47.0133 65.5101 47.3421 65.9055 47.5376 66.3943C47.742 66.8742 47.8442 67.3852 47.8442 67.9273C47.8442 68.5671 47.7242 69.1403 47.4843 69.6468C47.2443 70.1534 46.8755 70.5533 46.3779 70.8465C45.8891 71.1398 45.2804 71.2864 44.5517 71.2864C43.6186 71.2864 42.8632 71.0465 42.2856 70.5666C41.7079 70.0867 41.3569 69.4469 41.2325 68.6471H42.4189C42.5344 69.1536 42.7788 69.5491 43.152 69.8335C43.5252 70.1178 43.9962 70.26 44.565 70.26C45.267 70.26 45.7958 70.0512 46.1513 69.6335C46.5067 69.2069 46.6845 68.6471 46.6845 67.9539C46.6845 67.2608 46.5067 66.7276 46.1513 66.3543C45.7958 65.9722 45.2715 65.7811 44.5783 65.7811C44.1073 65.7811 43.6941 65.8967 43.3386 66.1277C42.992 66.3499 42.7388 66.6565 42.5788 67.0475H41.4324V61.6088H47.231V62.6752ZM49.4562 66.341C49.4562 64.8125 49.705 63.6217 50.2026 62.7686C50.7003 61.9065 51.5712 61.4755 52.8153 61.4755C54.0506 61.4755 54.917 61.9065 55.4147 62.7686C55.9123 63.6217 56.1611 64.8125 56.1611 66.341C56.1611 67.8962 55.9123 69.1047 55.4147 69.9668C54.917 70.8288 54.0506 71.2598 52.8153 71.2598C51.5712 71.2598 50.7003 70.8288 50.2026 69.9668C49.705 69.1047 49.4562 67.8962 49.4562 66.341ZM54.9614 66.341C54.9614 65.5679 54.9081 64.9147 54.8015 64.3815C54.7037 63.8394 54.4949 63.404 54.175 63.0751C53.8639 62.7463 53.4107 62.5819 52.8153 62.5819C52.211 62.5819 51.7489 62.7463 51.429 63.0751C51.118 63.404 50.9091 63.8394 50.8025 64.3815C50.7047 64.9147 50.6559 65.5679 50.6559 66.341C50.6559 67.1408 50.7047 67.8117 50.8025 68.3538C50.9091 68.8959 51.118 69.3314 51.429 69.6602C51.7489 69.989 52.211 70.1534 52.8153 70.1534C53.4107 70.1534 53.8639 69.989 54.175 69.6602C54.4949 69.3314 54.7037 68.8959 54.8015 68.3538C54.9081 67.8117 54.9614 67.1408 54.9614 66.341Z" fill="#666666"/>
<path d="M37.9964 11.9149C37.8009 10.9285 37.1922 10.4353 36.1702 10.4353C35.3793 10.4353 34.7883 10.7419 34.3973 11.3551C34.0063 11.9594 33.8152 12.9591 33.8241 14.3543C34.0285 13.8922 34.3662 13.5323 34.8372 13.2746C35.3171 13.008 35.8503 12.8747 36.4368 12.8747C37.3521 12.8747 38.0808 13.1591 38.6229 13.7278C39.1739 14.2966 39.4494 15.083 39.4494 16.0872C39.4494 16.6915 39.3294 17.2336 39.0895 17.7135C38.8584 18.1934 38.503 18.5755 38.0231 18.8599C37.5521 19.1442 36.9789 19.2864 36.3035 19.2864C35.3882 19.2864 34.6728 19.082 34.1574 18.6732C33.642 18.2645 33.282 17.7002 33.0776 16.9803C32.8733 16.2605 32.7711 15.3718 32.7711 14.3143C32.7711 11.0529 33.9086 9.42223 36.1835 9.42223C37.0544 9.42223 37.7387 9.65772 38.2364 10.1287C38.734 10.5997 39.0273 11.1951 39.1161 11.9149H37.9964ZM36.1835 13.9011C35.8014 13.9011 35.4415 13.9811 35.1038 14.141C34.7661 14.2921 34.4906 14.5276 34.2773 14.8475C34.073 15.1586 33.9708 15.5407 33.9708 15.9939C33.9708 16.6693 34.1663 17.2203 34.5573 17.6468C34.9483 18.0645 35.5082 18.2733 36.2369 18.2733C36.8589 18.2733 37.3521 18.0823 37.7165 17.7002C38.0897 17.3091 38.2763 16.7848 38.2763 16.1272C38.2763 15.4341 38.0986 14.892 37.7431 14.501C37.3877 14.1011 36.8678 13.9011 36.1835 13.9011ZM41.0859 14.341C41.0859 12.8125 41.3347 11.6217 41.8323 10.7686C42.33 9.90655 43.2009 9.47555 44.445 9.47555C45.6803 9.47555 46.5467 9.90655 47.0444 10.7686C47.542 11.6217 47.7908 12.8125 47.7908 14.341C47.7908 15.8962 47.542 17.1047 47.0444 17.9668C46.5467 18.8288 45.6803 19.2598 44.445 19.2598C43.2009 19.2598 42.33 18.8288 41.8323 17.9668C41.3347 17.1047 41.0859 15.8962 41.0859 14.341ZM46.5911 14.341C46.5911 13.5679 46.5378 12.9147 46.4312 12.3815C46.3334 11.8394 46.1246 11.404 45.8047 11.0751C45.4936 10.7463 45.0404 10.5819 44.445 10.5819C43.8407 10.5819 43.3786 10.7463 43.0587 11.0751C42.7477 11.404 42.5388 11.8394 42.4322 12.3815C42.3344 12.9147 42.2856 13.5679 42.2856 14.341C42.2856 15.1408 42.3344 15.8117 42.4322 16.3538C42.5388 16.8959 42.7477 17.3314 43.0587 17.6602C43.3786 17.989 43.8407 18.1534 44.445 18.1534C45.0404 18.1534 45.4936 17.989 45.8047 17.6602C46.1246 17.3314 46.3334 16.8959 46.4312 16.3538C46.5378 15.8117 46.5911 15.1408 46.5911 14.341ZM49.4562 14.341C49.4562 12.8125 49.705 11.6217 50.2026 10.7686C50.7003 9.90655 51.5712 9.47555 52.8153 9.47555C54.0506 9.47555 54.917 9.90655 55.4147 10.7686C55.9123 11.6217 56.1611 12.8125 56.1611 14.341C56.1611 15.8962 55.9123 17.1047 55.4147 17.9668C54.917 18.8288 54.0506 19.2598 52.8153 19.2598C51.5712 19.2598 50.7003 18.8288 50.2026 17.9668C49.705 17.1047 49.4562 15.8962 49.4562 14.341ZM54.9614 14.341C54.9614 13.5679 54.9081 12.9147 54.8015 12.3815C54.7037 11.8394 54.4949 11.404 54.175 11.0751C53.8639 10.7463 53.4107 10.5819 52.8153 10.5819C52.211 10.5819 51.7489 10.7463 51.429 11.0751C51.118 11.404 50.9091 11.8394 50.8025 12.3815C50.7047 12.9147 50.6559 13.5679 50.6559 14.341C50.6559 15.1408 50.7047 15.8117 50.8025 16.3538C50.9091 16.8959 51.118 17.3314 51.429 17.6602C51.7489 17.989 52.211 18.1534 52.8153 18.1534C53.4107 18.1534 53.8639 17.989 54.175 17.6602C54.4949 17.3314 54.7037 16.8959 54.8015 16.3538C54.9081 15.8117 54.9614 15.1408 54.9614 14.341Z" fill="#666666"/>
<g clip-path="url(#clip0_1383_1372)">
<path d="M181.266 285H185.932M185.932 285C185.932 284.381 186.178 283.788 186.616 283.35C187.053 282.913 187.647 282.667 188.266 282.667C188.884 282.667 189.478 282.913 189.916 283.35C190.353 283.788 190.599 284.381 190.599 285M185.932 285C185.932 285.619 186.178 286.213 186.616 286.65C187.053 287.088 187.647 287.334 188.266 287.334C188.884 287.334 189.478 287.088 189.916 286.65C190.353 286.213 190.599 285.619 190.599 285M190.599 285H195.266" stroke="#10B981" stroke-width="1.75"/>
</g>
<path d="M207.387 287.52H202.523L201.627 290H200.09L204.123 278.912H205.803L209.819 290H208.283L207.387 287.52ZM206.971 286.336L204.955 280.704L202.939 286.336H206.971ZM213.032 282.848C213.32 282.347 213.746 281.931 214.312 281.6C214.888 281.259 215.554 281.088 216.312 281.088C217.09 281.088 217.794 281.275 218.424 281.648C219.064 282.021 219.565 282.549 219.928 283.232C220.29 283.904 220.472 284.688 220.472 285.584C220.472 286.469 220.29 287.259 219.928 287.952C219.565 288.645 219.064 289.184 218.424 289.568C217.794 289.952 217.09 290.144 216.312 290.144C215.565 290.144 214.904 289.979 214.328 289.648C213.762 289.307 213.33 288.885 213.032 288.384V294.16H211.576V281.232H213.032V282.848ZM218.984 285.584C218.984 284.923 218.85 284.347 218.584 283.856C218.317 283.365 217.954 282.992 217.496 282.736C217.048 282.48 216.552 282.352 216.008 282.352C215.474 282.352 214.978 282.485 214.52 282.752C214.072 283.008 213.709 283.387 213.432 283.888C213.165 284.379 213.032 284.949 213.032 285.6C213.032 286.261 213.165 286.843 213.432 287.344C213.709 287.835 214.072 288.213 214.52 288.48C214.978 288.736 215.474 288.864 216.008 288.864C216.552 288.864 217.048 288.736 217.496 288.48C217.954 288.213 218.317 287.835 218.584 287.344C218.85 286.843 218.984 286.256 218.984 285.584ZM223.844 282.848C224.132 282.347 224.559 281.931 225.124 281.6C225.7 281.259 226.367 281.088 227.124 281.088C227.903 281.088 228.607 281.275 229.236 281.648C229.876 282.021 230.378 282.549 230.74 283.232C231.103 283.904 231.284 284.688 231.284 285.584C231.284 286.469 231.103 287.259 230.74 287.952C230.378 288.645 229.876 289.184 229.236 289.568C228.607 289.952 227.903 290.144 227.124 290.144C226.378 290.144 225.716 289.979 225.14 289.648C224.575 289.307 224.143 288.885 223.844 288.384V294.16H222.388V281.232H223.844V282.848ZM229.796 285.584C229.796 284.923 229.663 284.347 229.396 283.856C229.13 283.365 228.767 282.992 228.308 282.736C227.86 282.48 227.364 282.352 226.82 282.352C226.287 282.352 225.791 282.485 225.332 282.752C224.884 283.008 224.522 283.387 224.244 283.888C223.978 284.379 223.844 284.949 223.844 285.6C223.844 286.261 223.978 286.843 224.244 287.344C224.522 287.835 224.884 288.213 225.332 288.48C225.791 288.736 226.287 288.864 226.82 288.864C227.364 288.864 227.86 288.736 228.308 288.48C228.767 288.213 229.13 287.835 229.396 287.344C229.663 286.843 229.796 286.256 229.796 285.584ZM234.657 278.16V290H233.201V278.16H234.657ZM237.89 279.808C237.613 279.808 237.378 279.712 237.186 279.52C236.994 279.328 236.898 279.093 236.898 278.816C236.898 278.539 236.994 278.304 237.186 278.112C237.378 277.92 237.613 277.824 237.89 277.824C238.157 277.824 238.381 277.92 238.562 278.112C238.754 278.304 238.85 278.539 238.85 278.816C238.85 279.093 238.754 279.328 238.562 279.52C238.381 279.712 238.157 279.808 237.89 279.808ZM238.594 281.232V290H237.138V281.232H238.594ZM240.532 285.6C240.532 284.693 240.713 283.904 241.076 283.232C241.438 282.549 241.94 282.021 242.58 281.648C243.23 281.275 243.972 281.088 244.804 281.088C245.881 281.088 246.766 281.349 247.46 281.872C248.164 282.395 248.628 283.12 248.852 284.048H247.284C247.134 283.515 246.841 283.093 246.404 282.784C245.977 282.475 245.444 282.32 244.804 282.32C243.972 282.32 243.3 282.608 242.788 283.184C242.276 283.749 242.02 284.555 242.02 285.6C242.02 286.656 242.276 287.472 242.788 288.048C243.3 288.624 243.972 288.912 244.804 288.912C245.444 288.912 245.977 288.763 246.404 288.464C246.83 288.165 247.124 287.739 247.284 287.184H248.852C248.617 288.08 248.148 288.8 247.444 289.344C246.74 289.877 245.86 290.144 244.804 290.144C243.972 290.144 243.23 289.957 242.58 289.584C241.94 289.211 241.438 288.683 241.076 288C240.713 287.317 240.532 286.517 240.532 285.6ZM250.251 285.584C250.251 284.688 250.432 283.904 250.795 283.232C251.157 282.549 251.653 282.021 252.283 281.648C252.923 281.275 253.632 281.088 254.411 281.088C255.179 281.088 255.845 281.253 256.411 281.584C256.976 281.915 257.397 282.331 257.675 282.832V281.232H259.147V290H257.675V288.368C257.387 288.88 256.955 289.307 256.379 289.648C255.813 289.979 255.152 290.144 254.395 290.144C253.616 290.144 252.912 289.952 252.283 289.568C251.653 289.184 251.157 288.645 250.795 287.952C250.432 287.259 250.251 286.469 250.251 285.584ZM257.675 285.6C257.675 284.939 257.541 284.363 257.275 283.872C257.008 283.381 256.645 283.008 256.187 282.752C255.739 282.485 255.243 282.352 254.699 282.352C254.155 282.352 253.659 282.48 253.211 282.736C252.763 282.992 252.405 283.365 252.139 283.856C251.872 284.347 251.739 284.923 251.739 285.584C251.739 286.256 251.872 286.843 252.139 287.344C252.405 287.835 252.763 288.213 253.211 288.48C253.659 288.736 254.155 288.864 254.699 288.864C255.243 288.864 255.739 288.736 256.187 288.48C256.645 288.213 257.008 287.835 257.275 287.344C257.541 286.843 257.675 286.261 257.675 285.6ZM263.383 282.432V287.6C263.383 288.027 263.474 288.331 263.655 288.512C263.836 288.683 264.151 288.768 264.599 288.768H265.671V290H264.359C263.548 290 262.94 289.813 262.535 289.44C262.13 289.067 261.927 288.453 261.927 287.6V282.432H260.791V281.232H261.927V279.024H263.383V281.232H265.671V282.432H263.383ZM268.187 279.808C267.91 279.808 267.675 279.712 267.483 279.52C267.291 279.328 267.195 279.093 267.195 278.816C267.195 278.539 267.291 278.304 267.483 278.112C267.675 277.92 267.91 277.824 268.187 277.824C268.454 277.824 268.678 277.92 268.859 278.112C269.051 278.304 269.147 278.539 269.147 278.816C269.147 279.093 269.051 279.328 268.859 279.52C268.678 279.712 268.454 279.808 268.187 279.808ZM268.891 281.232V290H267.435V281.232H268.891ZM275.197 290.144C274.375 290.144 273.629 289.957 272.957 289.584C272.295 289.211 271.773 288.683 271.389 288C271.015 287.307 270.829 286.507 270.829 285.6C270.829 284.704 271.021 283.915 271.405 283.232C271.799 282.539 272.333 282.011 273.005 281.648C273.677 281.275 274.429 281.088 275.261 281.088C276.093 281.088 276.845 281.275 277.517 281.648C278.189 282.011 278.717 282.533 279.101 283.216C279.495 283.899 279.693 284.693 279.693 285.6C279.693 286.507 279.49 287.307 279.085 288C278.69 288.683 278.151 289.211 277.469 289.584C276.786 289.957 276.029 290.144 275.197 290.144ZM275.197 288.864C275.719 288.864 276.21 288.741 276.669 288.496C277.127 288.251 277.495 287.883 277.773 287.392C278.061 286.901 278.205 286.304 278.205 285.6C278.205 284.896 278.066 284.299 277.789 283.808C277.511 283.317 277.149 282.955 276.701 282.72C276.253 282.475 275.767 282.352 275.245 282.352C274.711 282.352 274.221 282.475 273.773 282.72C273.335 282.955 272.983 283.317 272.717 283.808C272.45 284.299 272.317 284.896 272.317 285.6C272.317 286.315 272.445 286.917 272.701 287.408C272.967 287.899 273.319 288.267 273.757 288.512C274.194 288.747 274.674 288.864 275.197 288.864ZM285.879 281.072C286.946 281.072 287.81 281.397 288.471 282.048C289.132 282.688 289.463 283.616 289.463 284.832V290H288.023V285.04C288.023 284.165 287.804 283.499 287.367 283.04C286.93 282.571 286.332 282.336 285.575 282.336C284.807 282.336 284.194 282.576 283.735 283.056C283.287 283.536 283.063 284.235 283.063 285.152V290H281.607V281.232H283.063V282.48C283.351 282.032 283.74 281.685 284.231 281.44C284.732 281.195 285.282 281.072 285.879 281.072ZM294.945 290.144C294.273 290.144 293.671 290.032 293.137 289.808C292.604 289.573 292.183 289.253 291.873 288.848C291.564 288.432 291.393 287.957 291.361 287.424H292.865C292.908 287.861 293.111 288.219 293.473 288.496C293.847 288.773 294.332 288.912 294.929 288.912C295.484 288.912 295.921 288.789 296.241 288.544C296.561 288.299 296.721 287.989 296.721 287.616C296.721 287.232 296.551 286.949 296.209 286.768C295.868 286.576 295.34 286.389 294.625 286.208C293.975 286.037 293.441 285.867 293.025 285.696C292.62 285.515 292.268 285.253 291.969 284.912C291.681 284.56 291.537 284.101 291.537 283.536C291.537 283.088 291.671 282.677 291.937 282.304C292.204 281.931 292.583 281.637 293.073 281.424C293.564 281.2 294.124 281.088 294.753 281.088C295.724 281.088 296.508 281.333 297.105 281.824C297.703 282.315 298.023 282.987 298.065 283.84H296.609C296.577 283.381 296.391 283.013 296.049 282.736C295.719 282.459 295.271 282.32 294.705 282.32C294.183 282.32 293.767 282.432 293.457 282.656C293.148 282.88 292.993 283.173 292.993 283.536C292.993 283.824 293.084 284.064 293.265 284.256C293.457 284.437 293.692 284.587 293.969 284.704C294.257 284.811 294.652 284.933 295.153 285.072C295.783 285.243 296.295 285.413 296.689 285.584C297.084 285.744 297.42 285.989 297.697 286.32C297.985 286.651 298.135 287.083 298.145 287.616C298.145 288.096 298.012 288.528 297.745 288.912C297.479 289.296 297.1 289.6 296.609 289.824C296.129 290.037 295.575 290.144 294.945 290.144Z" fill="#309689"/>
<g clip-path="url(#clip1_1383_1372)">
<path d="M312.203 285H316.87M316.87 285C316.87 284.381 317.116 283.788 317.553 283.35C317.991 282.913 318.584 282.667 319.203 282.667C319.822 282.667 320.415 282.913 320.853 283.35C321.291 283.788 321.536 284.381 321.536 285M316.87 285C316.87 285.619 317.116 286.213 317.553 286.65C317.991 287.088 318.584 287.334 319.203 287.334C319.822 287.334 320.415 287.088 320.853 286.65C321.291 286.213 321.536 285.619 321.536 285M321.536 285H326.203" stroke="#6366F1" stroke-width="1.75"/>
</g>
<path d="M341.073 278.848L336.865 290H335.185L330.977 278.848H332.529L336.033 288.464L339.537 278.848H341.073ZM343.422 279.808C343.144 279.808 342.91 279.712 342.718 279.52C342.526 279.328 342.43 279.093 342.43 278.816C342.43 278.539 342.526 278.304 342.718 278.112C342.91 277.92 343.144 277.824 343.422 277.824C343.688 277.824 343.912 277.92 344.094 278.112C344.286 278.304 344.382 278.539 344.382 278.816C344.382 279.093 344.286 279.328 344.094 279.52C343.912 279.712 343.688 279.808 343.422 279.808ZM344.126 281.232V290H342.67V281.232H344.126ZM354.607 285.28C354.607 285.557 354.591 285.851 354.559 286.16H347.551C347.604 287.024 347.898 287.701 348.431 288.192C348.975 288.672 349.631 288.912 350.399 288.912C351.028 288.912 351.551 288.768 351.967 288.48C352.394 288.181 352.692 287.787 352.863 287.296H354.431C354.196 288.139 353.727 288.827 353.023 289.36C352.319 289.883 351.444 290.144 350.399 290.144C349.567 290.144 348.82 289.957 348.159 289.584C347.508 289.211 346.996 288.683 346.623 288C346.25 287.307 346.063 286.507 346.063 285.6C346.063 284.693 346.244 283.899 346.607 283.216C346.97 282.533 347.476 282.011 348.127 281.648C348.788 281.275 349.546 281.088 350.399 281.088C351.231 281.088 351.967 281.269 352.607 281.632C353.247 281.995 353.738 282.496 354.079 283.136C354.431 283.765 354.607 284.48 354.607 285.28ZM353.103 284.976C353.103 284.421 352.98 283.947 352.735 283.552C352.49 283.147 352.154 282.843 351.727 282.64C351.311 282.427 350.847 282.32 350.335 282.32C349.599 282.32 348.97 282.555 348.447 283.024C347.935 283.493 347.642 284.144 347.567 284.976H353.103ZM368.209 281.232L365.473 290H363.969L361.857 283.04L359.745 290H358.241L355.489 281.232H356.977L358.993 288.592L361.169 281.232H362.657L364.785 288.608L366.769 281.232H368.209ZM372.758 290.144C372.086 290.144 371.483 290.032 370.95 289.808C370.417 289.573 369.995 289.253 369.686 288.848C369.377 288.432 369.206 287.957 369.174 287.424H370.678C370.721 287.861 370.923 288.219 371.286 288.496C371.659 288.773 372.145 288.912 372.742 288.912C373.297 288.912 373.734 288.789 374.054 288.544C374.374 288.299 374.534 287.989 374.534 287.616C374.534 287.232 374.363 286.949 374.022 286.768C373.681 286.576 373.153 286.389 372.438 286.208C371.787 286.037 371.254 285.867 370.838 285.696C370.433 285.515 370.081 285.253 369.782 284.912C369.494 284.56 369.35 284.101 369.35 283.536C369.35 283.088 369.483 282.677 369.75 282.304C370.017 281.931 370.395 281.637 370.886 281.424C371.377 281.2 371.937 281.088 372.566 281.088C373.537 281.088 374.321 281.333 374.918 281.824C375.515 282.315 375.835 282.987 375.878 283.84H374.422C374.39 283.381 374.203 283.013 373.862 282.736C373.531 282.459 373.083 282.32 372.518 282.32C371.995 282.32 371.579 282.432 371.27 282.656C370.961 282.88 370.806 283.173 370.806 283.536C370.806 283.824 370.897 284.064 371.078 284.256C371.27 284.437 371.505 284.587 371.782 284.704C372.07 284.811 372.465 284.933 372.966 285.072C373.595 285.243 374.107 285.413 374.502 285.584C374.897 285.744 375.233 285.989 375.51 286.32C375.798 286.651 375.947 287.083 375.958 287.616C375.958 288.096 375.825 288.528 375.558 288.912C375.291 289.296 374.913 289.6 374.422 289.824C373.942 290.037 373.387 290.144 372.758 290.144Z" fill="#1877F2"/>
<defs>
<clipPath id="clip0_1383_1372">
<rect width="14" height="14" fill="white" transform="translate(181.266 278)"/>
</clipPath>
<clipPath id="clip1_1383_1372">
<rect width="14" height="14" fill="white" transform="translate(312.203 278)"/>
</clipPath>
</defs>
</svg>
