<svg width="75" height="75" viewBox="0 0 75 75" fill="none" xmlns="http://www.w3.org/2000/svg">
<path d="M70.2755 38.2075C70.2755 35.5111 70.0522 33.5434 69.569 31.5029H38.1504V43.6732H56.5924C56.2207 46.6976 54.2129 51.2524 49.751 54.3131L49.6885 54.7205L59.6225 62.2623L60.3107 62.3297C66.6315 56.6088 70.2755 48.1915 70.2755 38.2075Z" fill="#4285F4"/>
<path d="M38.1481 70.2735C47.1831 70.2735 54.7681 67.3583 60.3083 62.3299L49.7487 54.3132C46.9229 56.2445 43.1303 57.5927 38.1481 57.5927C29.2989 57.5927 21.7882 51.872 19.1109 43.9648L18.7185 43.9975L8.38899 51.8318L8.25391 52.1998C13.7567 62.9127 25.06 70.2735 38.1481 70.2735Z" fill="#34A853"/>
<path d="M19.1119 43.9654C18.4055 41.9248 17.9967 39.7384 17.9967 37.4793C17.9967 35.22 18.4055 33.0338 19.0748 30.9933L19.0561 30.5587L8.59711 22.5986L8.25491 22.7581C5.98692 27.2037 4.68555 32.1958 4.68555 37.4793C4.68555 42.7628 5.98692 47.7547 8.25491 52.2002L19.1119 43.9654Z" fill="#FBBC05"/>
<path d="M38.1482 17.366C44.4319 17.366 48.6705 20.0259 51.0875 22.2488L60.5316 13.2121C54.7314 7.92856 47.1833 4.68555 38.1482 4.68555C25.0601 4.68555 13.7568 12.046 8.25391 22.7588L19.0738 30.9939C21.7883 23.0868 29.299 17.366 38.1482 17.366Z" fill="#EB4335"/>
</svg>
