<svg width="38" height="38" viewBox="0 0 38 38" fill="none" xmlns="http://www.w3.org/2000/svg">
<path d="M32.4308 7.17333C31.636 6.37813 30.6923 5.74732 29.6536 5.31694C28.6149 4.88656 27.5016 4.66504 26.3773 4.66504C25.253 4.66504 24.1397 4.88656 23.101 5.31694C22.0623 5.74732 21.1186 6.37813 20.3238 7.17333L18.6742 8.82287L17.0247 7.17333C15.4192 5.56783 13.2417 4.66587 10.9711 4.66587C8.70063 4.66587 6.52311 5.56783 4.91761 7.17333C3.31211 8.77882 2.41016 10.9563 2.41016 13.2269C2.41016 15.4974 3.31211 17.6749 4.91761 19.2804L6.56716 20.9299L18.6742 33.037L30.7813 20.9299L32.4308 19.2804C33.226 18.4856 33.8568 17.5418 34.2872 16.5032C34.7176 15.4645 34.9391 14.3512 34.9391 13.2269C34.9391 12.1025 34.7176 10.9892 34.2872 9.95055C33.8568 8.91186 33.226 7.96815 32.4308 7.17333Z" fill="black" stroke="black" stroke-width="3.11236" stroke-linecap="round" stroke-linejoin="round"/>
</svg>
