<svg width="546" height="300" viewBox="0 0 546 300" fill="none" xmlns="http://www.w3.org/2000/svg">
<path d="M65 265H541" stroke="#CCCCCC" stroke-dasharray="3 3"/>
<path d="M65 200H541" stroke="#CCCCCC" stroke-dasharray="3 3"/>
<path d="M65 135H541" stroke="#CCCCCC" stroke-dasharray="3 3"/>
<path d="M65 70H541" stroke="#CCCCCC" stroke-dasharray="3 3"/>
<path d="M65 5H541" stroke="#CCCCCC" stroke-dasharray="3 3"/>
<path d="M207.801 5V265" stroke="#CCCCCC" stroke-dasharray="3 3"/>
<path d="M303 5V265" stroke="#CCCCCC" stroke-dasharray="3 3"/>
<path d="M398.199 5V265" stroke="#CCCCCC" stroke-dasharray="3 3"/>
<path d="M493.4 5V265" stroke="#CCCCCC" stroke-dasharray="3 3"/>
<path d="M65 5V265" stroke="#CCCCCC" stroke-dasharray="3 3"/>
<path d="M541 5V265" stroke="#CCCCCC" stroke-dasharray="3 3"/>
<path d="M74.5195 118.75H150.52V265H74.5195V118.75Z" fill="#15294B"/>
<path d="M169.719 161H245.719V265H169.719V161Z" fill="#15294B"/>
<path d="M264.92 47.25H340.92V265H264.92V47.25Z" fill="#15294B"/>
<path d="M360.119 174H436.119V265H360.119V174Z" fill="#15294B"/>
<path d="M455.32 203.25H531.32V265H455.32V203.25Z" fill="#15294B"/>
<path d="M65 265H541" stroke="#666666"/>
<path d="M207.801 271V265" stroke="#666666"/>
<path d="M303 271V265" stroke="#666666"/>
<path d="M398.201 271V265" stroke="#666666"/>
<path d="M493.4 271V265" stroke="#666666"/>
<path d="M65 5V265" stroke="#666666"/>
<path d="M59 265H65" stroke="#666666"/>
<path d="M59 200H65" stroke="#666666"/>
<path d="M59 135H65" stroke="#666666"/>
<path d="M59 70H65" stroke="#666666"/>
<path d="M59 5H65" stroke="#666666"/>
<path d="M179.347 272.792H180.403V278.571C180.403 279.167 180.263 279.7 179.982 280.169C179.703 280.635 179.31 281.002 178.801 281.272C178.293 281.539 177.696 281.673 177.011 281.673C176.327 281.673 175.73 281.539 175.222 281.272C174.713 281.002 174.318 280.635 174.037 280.169C173.759 279.7 173.619 279.167 173.619 278.571V272.792H174.676V278.485C174.676 278.912 174.77 279.291 174.957 279.623C175.145 279.953 175.412 280.213 175.759 280.403C176.108 280.591 176.526 280.684 177.011 280.684C177.497 280.684 177.915 280.591 178.264 280.403C178.614 280.213 178.881 279.953 179.065 279.623C179.253 279.291 179.347 278.912 179.347 278.485V272.792ZM183.025 272.792L185.275 276.423H185.343L187.593 272.792H188.838L186.093 277.156L188.838 281.52H187.593L185.343 277.957H185.275L183.025 281.52H181.781L184.593 277.156L181.781 272.792H183.025ZM196.281 281.52H193.588V272.792H196.401C197.247 272.792 197.972 272.967 198.574 273.316C199.176 273.663 199.638 274.162 199.959 274.812C200.28 275.46 200.44 276.235 200.44 277.139C200.44 278.048 200.278 278.831 199.955 279.487C199.631 280.14 199.159 280.643 198.54 280.995C197.92 281.345 197.168 281.52 196.281 281.52ZM194.645 280.582H196.213C196.935 280.582 197.533 280.443 198.007 280.164C198.482 279.886 198.835 279.49 199.068 278.975C199.301 278.461 199.418 277.849 199.418 277.139C199.418 276.434 199.303 275.828 199.072 275.319C198.842 274.808 198.499 274.416 198.041 274.143C197.584 273.868 197.014 273.73 196.332 273.73H194.645V280.582ZM204.821 281.656C204.19 281.656 203.646 281.517 203.189 281.238C202.734 280.957 202.384 280.565 202.136 280.062C201.892 279.556 201.77 278.968 201.77 278.298C201.77 277.627 201.892 277.037 202.136 276.525C202.384 276.011 202.727 275.61 203.168 275.324C203.611 275.034 204.128 274.889 204.719 274.889C205.06 274.889 205.396 274.946 205.729 275.059C206.061 275.173 206.364 275.358 206.636 275.613C206.909 275.866 207.126 276.201 207.288 276.619C207.45 277.037 207.531 277.551 207.531 278.162V278.588H202.486V277.718H206.509C206.509 277.349 206.435 277.02 206.287 276.73C206.142 276.44 205.935 276.211 205.665 276.044C205.398 275.876 205.082 275.792 204.719 275.792C204.318 275.792 203.972 275.892 203.679 276.091C203.389 276.287 203.166 276.542 203.01 276.858C202.854 277.173 202.776 277.511 202.776 277.872V278.451C202.776 278.946 202.861 279.365 203.031 279.708C203.205 280.049 203.445 280.309 203.751 280.488C204.058 280.664 204.415 280.752 204.821 280.752C205.085 280.752 205.324 280.716 205.537 280.642C205.753 280.565 205.939 280.451 206.095 280.301C206.251 280.147 206.372 279.957 206.457 279.73L207.429 280.002C207.327 280.332 207.155 280.622 206.913 280.872C206.672 281.119 206.374 281.312 206.018 281.451C205.663 281.588 205.264 281.656 204.821 281.656ZM213.697 276.44L212.794 276.696C212.737 276.545 212.653 276.399 212.543 276.257C212.435 276.112 212.287 275.993 212.099 275.899C211.912 275.805 211.672 275.758 211.379 275.758C210.979 275.758 210.645 275.85 210.378 276.035C210.114 276.217 209.982 276.449 209.982 276.73C209.982 276.98 210.072 277.177 210.254 277.322C210.436 277.467 210.72 277.588 211.107 277.684L212.078 277.923C212.663 278.065 213.099 278.282 213.386 278.575C213.673 278.865 213.817 279.238 213.817 279.696C213.817 280.071 213.709 280.406 213.493 280.701C213.28 280.997 212.982 281.23 212.598 281.4C212.214 281.571 211.768 281.656 211.26 281.656C210.592 281.656 210.04 281.511 209.602 281.221C209.165 280.931 208.888 280.508 208.771 279.951L209.726 279.713C209.817 280.065 209.989 280.329 210.241 280.505C210.497 280.681 210.831 280.77 211.243 280.77C211.712 280.77 212.084 280.67 212.359 280.471C212.638 280.27 212.777 280.028 212.777 279.747C212.777 279.52 212.697 279.329 212.538 279.176C212.379 279.02 212.135 278.903 211.805 278.826L210.714 278.571C210.115 278.429 209.675 278.208 209.393 277.91C209.115 277.609 208.976 277.233 208.976 276.781C208.976 276.412 209.08 276.085 209.287 275.801C209.497 275.517 209.783 275.294 210.143 275.132C210.507 274.97 210.919 274.889 211.379 274.889C212.027 274.889 212.536 275.031 212.905 275.315C213.277 275.599 213.541 275.974 213.697 276.44ZM215.331 281.52V274.974H216.336V281.52H215.331ZM215.842 273.883C215.646 273.883 215.477 273.816 215.335 273.683C215.196 273.549 215.126 273.389 215.126 273.201C215.126 273.014 215.196 272.853 215.335 272.72C215.477 272.586 215.646 272.52 215.842 272.52C216.038 272.52 216.206 272.586 216.345 272.72C216.487 272.853 216.558 273.014 216.558 273.201C216.558 273.389 216.487 273.549 216.345 273.683C216.206 273.816 216.038 273.883 215.842 273.883ZM220.82 284.11C220.335 284.11 219.917 284.048 219.567 283.923C219.218 283.801 218.927 283.639 218.694 283.437C218.464 283.238 218.281 283.025 218.144 282.798L218.945 282.235C219.036 282.355 219.151 282.491 219.29 282.645C219.43 282.801 219.62 282.936 219.862 283.049C220.106 283.166 220.425 283.224 220.82 283.224C221.349 283.224 221.785 283.096 222.129 282.841C222.472 282.585 222.644 282.184 222.644 281.639V280.309H222.559C222.485 280.429 222.38 280.576 222.244 280.752C222.11 280.926 221.917 281.081 221.664 281.217C221.414 281.35 221.076 281.417 220.65 281.417C220.121 281.417 219.647 281.292 219.227 281.042C218.809 280.792 218.478 280.429 218.234 279.951C217.992 279.474 217.871 278.895 217.871 278.213C217.871 277.542 217.989 276.958 218.225 276.461C218.461 275.961 218.789 275.575 219.21 275.302C219.63 275.027 220.116 274.889 220.667 274.889C221.093 274.889 221.431 274.96 221.681 275.102C221.934 275.241 222.127 275.4 222.261 275.579C222.397 275.755 222.502 275.9 222.576 276.014H222.678V274.974H223.65V281.707C223.65 282.27 223.522 282.727 223.266 283.079C223.013 283.434 222.673 283.694 222.244 283.859C221.817 284.027 221.343 284.11 220.82 284.11ZM220.786 280.514C221.19 280.514 221.531 280.422 221.809 280.237C222.087 280.052 222.299 279.787 222.444 279.44C222.589 279.093 222.661 278.679 222.661 278.196C222.661 277.724 222.59 277.308 222.448 276.947C222.306 276.586 222.096 276.304 221.817 276.099C221.539 275.895 221.195 275.792 220.786 275.792C220.36 275.792 220.005 275.9 219.721 276.116C219.44 276.332 219.228 276.622 219.086 276.985C218.947 277.349 218.877 277.752 218.877 278.196C218.877 278.65 218.948 279.052 219.09 279.402C219.235 279.748 219.448 280.021 219.729 280.22C220.013 280.416 220.366 280.514 220.786 280.514ZM226.496 277.582V281.52H225.491V274.974H226.462V275.997H226.548C226.701 275.664 226.934 275.397 227.246 275.196C227.559 274.991 227.962 274.889 228.457 274.889C228.9 274.889 229.288 274.98 229.62 275.162C229.952 275.341 230.211 275.613 230.396 275.98C230.58 276.343 230.673 276.804 230.673 277.36V281.52H229.667V277.429C229.667 276.914 229.533 276.514 229.266 276.227C228.999 275.937 228.633 275.792 228.167 275.792C227.846 275.792 227.559 275.862 227.306 276.001C227.056 276.14 226.859 276.343 226.714 276.61C226.569 276.877 226.496 277.201 226.496 277.582ZM235.255 281.656C234.624 281.656 234.08 281.517 233.623 281.238C233.168 280.957 232.817 280.565 232.57 280.062C232.326 279.556 232.203 278.968 232.203 278.298C232.203 277.627 232.326 277.037 232.57 276.525C232.817 276.011 233.161 275.61 233.601 275.324C234.044 275.034 234.561 274.889 235.152 274.889C235.493 274.889 235.83 274.946 236.162 275.059C236.495 275.173 236.797 275.358 237.07 275.613C237.343 275.866 237.56 276.201 237.722 276.619C237.884 277.037 237.965 277.551 237.965 278.162V278.588H232.919V277.718H236.942C236.942 277.349 236.868 277.02 236.721 276.73C236.576 276.44 236.368 276.211 236.098 276.044C235.831 275.876 235.516 275.792 235.152 275.792C234.752 275.792 234.405 275.892 234.113 276.091C233.823 276.287 233.6 276.542 233.444 276.858C233.287 277.173 233.209 277.511 233.209 277.872V278.451C233.209 278.946 233.294 279.365 233.465 279.708C233.638 280.049 233.878 280.309 234.185 280.488C234.492 280.664 234.848 280.752 235.255 280.752C235.519 280.752 235.757 280.716 235.971 280.642C236.186 280.565 236.373 280.451 236.529 280.301C236.685 280.147 236.806 279.957 236.891 279.73L237.863 280.002C237.76 280.332 237.588 280.622 237.347 280.872C237.105 281.119 236.807 281.312 236.452 281.451C236.097 281.588 235.698 281.656 235.255 281.656ZM239.495 281.52V274.974H240.466V275.963H240.534C240.654 275.639 240.87 275.376 241.182 275.174C241.495 274.973 241.847 274.872 242.239 274.872C242.313 274.872 242.405 274.873 242.516 274.876C242.627 274.879 242.711 274.883 242.767 274.889V275.912C242.733 275.903 242.655 275.89 242.533 275.873C242.414 275.853 242.287 275.843 242.154 275.843C241.836 275.843 241.551 275.91 241.301 276.044C241.054 276.174 240.858 276.356 240.713 276.589C240.571 276.819 240.5 277.082 240.5 277.377V281.52H239.495Z" fill="#666666"/>
<path d="M268.877 281.52V272.792H271.826C272.511 272.792 273.07 272.916 273.505 273.163C273.942 273.407 274.266 273.738 274.477 274.156C274.687 274.574 274.792 275.039 274.792 275.554C274.792 276.068 274.687 276.535 274.477 276.956C274.269 277.376 273.948 277.711 273.513 277.961C273.079 278.208 272.522 278.332 271.843 278.332H269.729V277.395H271.809C272.278 277.395 272.654 277.314 272.938 277.152C273.222 276.99 273.428 276.771 273.556 276.495C273.687 276.217 273.752 275.903 273.752 275.554C273.752 275.204 273.687 274.892 273.556 274.616C273.428 274.341 273.221 274.125 272.934 273.968C272.647 273.809 272.266 273.73 271.792 273.73H269.934V281.52H268.877ZM276.358 281.52V274.974H277.33V275.963H277.398C277.517 275.639 277.733 275.376 278.045 275.174C278.358 274.973 278.71 274.872 279.102 274.872C279.176 274.872 279.268 274.873 279.379 274.876C279.49 274.879 279.574 274.883 279.631 274.889V275.912C279.597 275.903 279.518 275.89 279.396 275.873C279.277 275.853 279.151 275.843 279.017 275.843C278.699 275.843 278.415 275.91 278.165 276.044C277.918 276.174 277.722 276.356 277.577 276.589C277.435 276.819 277.364 277.082 277.364 277.377V281.52H276.358ZM283.283 281.656C282.692 281.656 282.173 281.515 281.727 281.234C281.284 280.953 280.938 280.559 280.688 280.054C280.44 279.548 280.317 278.957 280.317 278.281C280.317 277.599 280.44 277.004 280.688 276.495C280.938 275.987 281.284 275.592 281.727 275.311C282.173 275.029 282.692 274.889 283.283 274.889C283.874 274.889 284.391 275.029 284.834 275.311C285.28 275.592 285.626 275.987 285.874 276.495C286.124 277.004 286.249 277.599 286.249 278.281C286.249 278.957 286.124 279.548 285.874 280.054C285.626 280.559 285.28 280.953 284.834 281.234C284.391 281.515 283.874 281.656 283.283 281.656ZM283.283 280.752C283.732 280.752 284.101 280.637 284.391 280.407C284.68 280.177 284.895 279.875 285.034 279.5C285.173 279.125 285.243 278.718 285.243 278.281C285.243 277.843 285.173 277.436 285.034 277.058C284.895 276.68 284.68 276.375 284.391 276.142C284.101 275.909 283.732 275.792 283.283 275.792C282.834 275.792 282.464 275.909 282.175 276.142C281.885 276.375 281.67 276.68 281.531 277.058C281.392 277.436 281.322 277.843 281.322 278.281C281.322 278.718 281.392 279.125 281.531 279.5C281.67 279.875 281.885 280.177 282.175 280.407C282.464 280.637 282.834 280.752 283.283 280.752ZM290.255 281.656C289.71 281.656 289.228 281.518 288.811 281.243C288.393 280.964 288.066 280.572 287.831 280.066C287.595 279.558 287.477 278.957 287.477 278.264C287.477 277.576 287.595 276.98 287.831 276.474C288.066 275.968 288.395 275.578 288.815 275.302C289.235 275.027 289.721 274.889 290.272 274.889C290.699 274.889 291.035 274.96 291.282 275.102C291.532 275.241 291.723 275.4 291.853 275.579C291.987 275.755 292.091 275.9 292.164 276.014H292.25V272.792H293.255V281.52H292.284V280.514H292.164C292.091 280.633 291.985 280.784 291.849 280.966C291.713 281.145 291.518 281.305 291.265 281.447C291.012 281.586 290.676 281.656 290.255 281.656ZM290.392 280.752C290.795 280.752 291.136 280.647 291.414 280.437C291.693 280.224 291.904 279.93 292.049 279.555C292.194 279.177 292.267 278.741 292.267 278.247C292.267 277.758 292.196 277.331 292.054 276.964C291.912 276.595 291.701 276.308 291.423 276.103C291.145 275.896 290.801 275.792 290.392 275.792C289.966 275.792 289.61 275.902 289.326 276.12C289.045 276.336 288.833 276.63 288.691 277.002C288.552 277.372 288.483 277.787 288.483 278.247C288.483 278.713 288.554 279.136 288.696 279.517C288.841 279.895 289.054 280.196 289.335 280.42C289.619 280.642 289.971 280.752 290.392 280.752ZM299.362 278.843V274.974H300.368V281.52H299.362V280.412H299.294C299.14 280.744 298.902 281.027 298.578 281.26C298.254 281.49 297.845 281.605 297.35 281.605C296.941 281.605 296.578 281.515 296.26 281.336C295.941 281.154 295.691 280.882 295.51 280.518C295.328 280.152 295.237 279.69 295.237 279.133V274.974H296.243V279.065C296.243 279.542 296.376 279.923 296.643 280.207C296.913 280.491 297.257 280.633 297.674 280.633C297.924 280.633 298.179 280.569 298.437 280.441C298.699 280.314 298.917 280.118 299.093 279.853C299.272 279.589 299.362 279.252 299.362 278.843ZM304.869 281.656C304.255 281.656 303.727 281.511 303.283 281.221C302.84 280.931 302.499 280.532 302.261 280.024C302.022 279.515 301.903 278.934 301.903 278.281C301.903 277.616 302.025 277.029 302.269 276.521C302.516 276.01 302.86 275.61 303.3 275.324C303.744 275.034 304.261 274.889 304.852 274.889C305.312 274.889 305.727 274.974 306.096 275.145C306.465 275.315 306.768 275.554 307.004 275.86C307.239 276.167 307.386 276.525 307.442 276.934H306.437C306.36 276.636 306.19 276.372 305.925 276.142C305.664 275.909 305.312 275.792 304.869 275.792C304.477 275.792 304.133 275.895 303.837 276.099C303.545 276.301 303.316 276.586 303.151 276.956C302.989 277.322 302.908 277.752 302.908 278.247C302.908 278.752 302.988 279.193 303.147 279.568C303.309 279.943 303.536 280.234 303.829 280.441C304.124 280.649 304.471 280.752 304.869 280.752C305.13 280.752 305.367 280.707 305.58 280.616C305.793 280.525 305.974 280.395 306.121 280.224C306.269 280.054 306.374 279.849 306.437 279.61H307.442C307.386 279.997 307.245 280.345 307.021 280.654C306.799 280.961 306.505 281.206 306.138 281.387C305.775 281.566 305.352 281.656 304.869 281.656ZM311.759 274.974V275.826H308.367V274.974H311.759ZM309.356 273.406H310.362V279.645C310.362 279.929 310.403 280.142 310.485 280.284C310.57 280.423 310.678 280.517 310.809 280.565C310.942 280.61 311.083 280.633 311.231 280.633C311.342 280.633 311.433 280.627 311.504 280.616C311.575 280.602 311.631 280.591 311.674 280.582L311.879 281.485C311.81 281.511 311.715 281.537 311.593 281.562C311.471 281.591 311.316 281.605 311.129 281.605C310.844 281.605 310.566 281.544 310.293 281.422C310.023 281.299 309.799 281.113 309.62 280.863C309.444 280.613 309.356 280.298 309.356 279.917V273.406ZM316.783 272.792H318.045L321.011 280.037H321.113L324.079 272.792H325.34V281.52H324.352V274.889H324.266L321.539 281.52H320.585L317.857 274.889H317.772V281.52H316.783V272.792ZM329.965 284.11C329.479 284.11 329.061 284.048 328.712 283.923C328.363 283.801 328.071 283.639 327.838 283.437C327.608 283.238 327.425 283.025 327.289 282.798L328.09 282.235C328.181 282.355 328.296 282.491 328.435 282.645C328.574 282.801 328.765 282.936 329.006 283.049C329.25 283.166 329.57 283.224 329.965 283.224C330.493 283.224 330.929 283.096 331.273 282.841C331.617 282.585 331.789 282.184 331.789 281.639V280.309H331.703C331.63 280.429 331.525 280.576 331.388 280.752C331.255 280.926 331.061 281.081 330.809 281.217C330.559 281.35 330.221 281.417 329.794 281.417C329.266 281.417 328.792 281.292 328.371 281.042C327.953 280.792 327.623 280.429 327.378 279.951C327.137 279.474 327.016 278.895 327.016 278.213C327.016 277.542 327.134 276.958 327.37 276.461C327.605 275.961 327.934 275.575 328.354 275.302C328.775 275.027 329.26 274.889 329.811 274.889C330.238 274.889 330.576 274.96 330.826 275.102C331.078 275.241 331.272 275.4 331.405 275.579C331.542 275.755 331.647 275.9 331.721 276.014H331.823V274.974H332.794V281.707C332.794 282.27 332.667 282.727 332.411 283.079C332.158 283.434 331.817 283.694 331.388 283.859C330.962 284.027 330.488 284.11 329.965 284.11ZM329.931 280.514C330.334 280.514 330.675 280.422 330.953 280.237C331.232 280.052 331.444 279.787 331.588 279.44C331.733 279.093 331.806 278.679 331.806 278.196C331.806 277.724 331.735 277.308 331.593 276.947C331.451 276.586 331.24 276.304 330.962 276.099C330.684 275.895 330.34 275.792 329.931 275.792C329.505 275.792 329.15 275.9 328.865 276.116C328.584 276.332 328.373 276.622 328.23 276.985C328.091 277.349 328.022 277.752 328.022 278.196C328.022 278.65 328.093 279.052 328.235 279.402C328.38 279.748 328.593 280.021 328.874 280.22C329.158 280.416 329.51 280.514 329.931 280.514ZM334.635 281.52V274.974H335.607V275.963H335.675C335.794 275.639 336.01 275.376 336.323 275.174C336.635 274.973 336.988 274.872 337.38 274.872C337.453 274.872 337.546 274.873 337.657 274.876C337.767 274.879 337.851 274.883 337.908 274.889V275.912C337.874 275.903 337.796 275.89 337.674 275.873C337.554 275.853 337.428 275.843 337.294 275.843C336.976 275.843 336.692 275.91 336.442 276.044C336.195 276.174 335.999 276.356 335.854 276.589C335.712 276.819 335.641 277.082 335.641 277.377V281.52H334.635Z" fill="#666666"/>
<path d="M362.326 281.52V272.792H365.377C365.985 272.792 366.487 272.897 366.882 273.108C367.277 273.315 367.571 273.595 367.764 273.947C367.957 274.297 368.054 274.684 368.054 275.11C368.054 275.485 367.987 275.795 367.853 276.039C367.723 276.284 367.549 276.477 367.333 276.619C367.12 276.761 366.889 276.866 366.639 276.934V277.02C366.906 277.037 367.174 277.13 367.444 277.301C367.714 277.471 367.94 277.716 368.122 278.034C368.304 278.352 368.395 278.741 368.395 279.201C368.395 279.639 368.295 280.032 368.096 280.382C367.897 280.731 367.583 281.008 367.154 281.213C366.725 281.417 366.167 281.52 365.48 281.52H362.326ZM363.383 280.582H365.48C366.17 280.582 366.66 280.449 366.95 280.181C367.243 279.912 367.389 279.585 367.389 279.201C367.389 278.906 367.314 278.633 367.163 278.383C367.012 278.13 366.798 277.929 366.52 277.778C366.241 277.625 365.912 277.548 365.531 277.548H363.383V280.582ZM363.383 276.627H365.343C365.662 276.627 365.949 276.565 366.204 276.44C366.463 276.315 366.667 276.139 366.818 275.912C366.971 275.684 367.048 275.417 367.048 275.11C367.048 274.727 366.914 274.402 366.647 274.135C366.38 273.865 365.957 273.73 365.377 273.73H363.383V276.627ZM371.921 281.673C371.506 281.673 371.13 281.595 370.792 281.439C370.453 281.279 370.185 281.051 369.986 280.752C369.787 280.451 369.688 280.088 369.688 279.662C369.688 279.287 369.762 278.983 369.909 278.75C370.057 278.514 370.255 278.329 370.502 278.196C370.749 278.062 371.022 277.963 371.32 277.897C371.621 277.829 371.924 277.775 372.228 277.735C372.625 277.684 372.948 277.646 373.195 277.62C373.445 277.592 373.627 277.545 373.74 277.48C373.857 277.414 373.915 277.301 373.915 277.139V277.105C373.915 276.684 373.8 276.358 373.57 276.125C373.343 275.892 372.998 275.775 372.534 275.775C372.054 275.775 371.678 275.88 371.405 276.091C371.132 276.301 370.941 276.525 370.83 276.764L369.875 276.423C370.046 276.025 370.273 275.716 370.557 275.494C370.844 275.27 371.157 275.113 371.495 275.025C371.836 274.934 372.171 274.889 372.5 274.889C372.711 274.889 372.952 274.914 373.225 274.966C373.5 275.014 373.766 275.115 374.022 275.268C374.28 275.422 374.495 275.653 374.665 275.963C374.836 276.272 374.921 276.687 374.921 277.207V281.52H373.915V280.633H373.864C373.796 280.775 373.682 280.927 373.523 281.089C373.364 281.251 373.152 281.389 372.888 281.502C372.624 281.616 372.301 281.673 371.921 281.673ZM372.074 280.77C372.472 280.77 372.807 280.691 373.08 280.535C373.355 280.379 373.563 280.177 373.702 279.93C373.844 279.683 373.915 279.423 373.915 279.15V278.23C373.873 278.281 373.779 278.328 373.634 278.37C373.492 278.41 373.327 278.446 373.14 278.477C372.955 278.505 372.775 278.531 372.598 278.554C372.425 278.574 372.284 278.591 372.176 278.605C371.915 278.639 371.671 278.694 371.444 278.771C371.219 278.845 371.037 278.957 370.898 279.108C370.762 279.255 370.694 279.457 370.694 279.713C370.694 280.062 370.823 280.326 371.081 280.505C371.343 280.681 371.674 280.77 372.074 280.77ZM379.415 281.656C378.802 281.656 378.273 281.511 377.83 281.221C377.387 280.931 377.046 280.532 376.808 280.024C376.569 279.515 376.45 278.934 376.45 278.281C376.45 277.616 376.572 277.029 376.816 276.521C377.063 276.01 377.407 275.61 377.847 275.324C378.29 275.034 378.808 274.889 379.398 274.889C379.859 274.889 380.273 274.974 380.643 275.145C381.012 275.315 381.315 275.554 381.55 275.86C381.786 276.167 381.933 276.525 381.989 276.934H380.984C380.907 276.636 380.737 276.372 380.472 276.142C380.211 275.909 379.859 275.792 379.415 275.792C379.023 275.792 378.68 275.895 378.384 276.099C378.092 276.301 377.863 276.586 377.698 276.956C377.536 277.322 377.455 277.752 377.455 278.247C377.455 278.752 377.535 279.193 377.694 279.568C377.856 279.943 378.083 280.234 378.376 280.441C378.671 280.649 379.018 280.752 379.415 280.752C379.677 280.752 379.914 280.707 380.127 280.616C380.34 280.525 380.521 280.395 380.668 280.224C380.816 280.054 380.921 279.849 380.984 279.61H381.989C381.933 279.997 381.792 280.345 381.567 280.654C381.346 280.961 381.052 281.206 380.685 281.387C380.322 281.566 379.898 281.656 379.415 281.656ZM384.397 279.133L384.38 277.889H384.585L387.448 274.974H388.692L385.641 278.059H385.556L384.397 279.133ZM383.46 281.52V272.792H384.465V281.52H383.46ZM387.619 281.52L385.062 278.281L385.778 277.582L388.897 281.52H387.619ZM392.462 281.656C391.831 281.656 391.287 281.517 390.83 281.238C390.375 280.957 390.024 280.565 389.777 280.062C389.533 279.556 389.411 278.968 389.411 278.298C389.411 277.627 389.533 277.037 389.777 276.525C390.024 276.011 390.368 275.61 390.808 275.324C391.251 275.034 391.768 274.889 392.359 274.889C392.7 274.889 393.037 274.946 393.369 275.059C393.702 275.173 394.004 275.358 394.277 275.613C394.55 275.866 394.767 276.201 394.929 276.619C395.091 277.037 395.172 277.551 395.172 278.162V278.588H390.126V277.718H394.149C394.149 277.349 394.075 277.02 393.928 276.73C393.783 276.44 393.575 276.211 393.305 276.044C393.038 275.876 392.723 275.792 392.359 275.792C391.959 275.792 391.612 275.892 391.32 276.091C391.03 276.287 390.807 276.542 390.651 276.858C390.494 277.173 390.416 277.511 390.416 277.872V278.451C390.416 278.946 390.501 279.365 390.672 279.708C390.845 280.049 391.085 280.309 391.392 280.488C391.699 280.664 392.055 280.752 392.462 280.752C392.726 280.752 392.964 280.716 393.178 280.642C393.393 280.565 393.58 280.451 393.736 280.301C393.892 280.147 394.013 279.957 394.098 279.73L395.07 280.002C394.967 280.332 394.795 280.622 394.554 280.872C394.313 281.119 394.014 281.312 393.659 281.451C393.304 281.588 392.905 281.656 392.462 281.656ZM397.707 277.582V281.52H396.702V274.974H397.673V275.997H397.759C397.912 275.664 398.145 275.397 398.457 275.196C398.77 274.991 399.173 274.889 399.668 274.889C400.111 274.889 400.499 274.98 400.831 275.162C401.163 275.341 401.422 275.613 401.607 275.98C401.791 276.343 401.884 276.804 401.884 277.36V281.52H400.878V277.429C400.878 276.914 400.744 276.514 400.477 276.227C400.21 275.937 399.844 275.792 399.378 275.792C399.057 275.792 398.77 275.862 398.517 276.001C398.267 276.14 398.07 276.343 397.925 276.61C397.78 276.877 397.707 277.201 397.707 277.582ZM406.193 281.656C405.647 281.656 405.166 281.518 404.748 281.243C404.331 280.964 404.004 280.572 403.768 280.066C403.532 279.558 403.414 278.957 403.414 278.264C403.414 277.576 403.532 276.98 403.768 276.474C404.004 275.968 404.332 275.578 404.752 275.302C405.173 275.027 405.659 274.889 406.21 274.889C406.636 274.889 406.973 274.96 407.22 275.102C407.47 275.241 407.66 275.4 407.791 275.579C407.924 275.755 408.028 275.9 408.102 276.014H408.187V272.792H409.193V281.52H408.221V280.514H408.102C408.028 280.633 407.923 280.784 407.787 280.966C407.65 281.145 407.456 281.305 407.203 281.447C406.95 281.586 406.613 281.656 406.193 281.656ZM406.329 280.752C406.733 280.752 407.074 280.647 407.352 280.437C407.63 280.224 407.842 279.93 407.987 279.555C408.132 279.177 408.204 278.741 408.204 278.247C408.204 277.758 408.133 277.331 407.991 276.964C407.849 276.595 407.639 276.308 407.36 276.103C407.082 275.896 406.738 275.792 406.329 275.792C405.903 275.792 405.548 275.902 405.264 276.12C404.983 276.336 404.771 276.63 404.629 277.002C404.49 277.372 404.42 277.787 404.42 278.247C404.42 278.713 404.491 279.136 404.633 279.517C404.778 279.895 404.991 280.196 405.272 280.42C405.556 280.642 405.909 280.752 406.329 280.752ZM414.686 281.52V272.792H419.953V273.73H415.743V276.679H419.68V277.616H415.743V280.582H420.021V281.52H414.686ZM422.727 277.582V281.52H421.721V274.974H422.693V275.997H422.778C422.931 275.664 423.164 275.397 423.477 275.196C423.789 274.991 424.193 274.889 424.687 274.889C425.13 274.889 425.518 274.98 425.85 275.162C426.183 275.341 426.441 275.613 426.626 275.98C426.811 276.343 426.903 276.804 426.903 277.36V281.52H425.897V277.429C425.897 276.914 425.764 276.514 425.497 276.227C425.23 275.937 424.863 275.792 424.397 275.792C424.076 275.792 423.789 275.862 423.537 276.001C423.287 276.14 423.089 276.343 422.944 276.61C422.799 276.877 422.727 277.201 422.727 277.582ZM431.383 284.11C430.897 284.11 430.479 284.048 430.13 283.923C429.781 283.801 429.489 283.639 429.256 283.437C429.026 283.238 428.843 283.025 428.707 282.798L429.508 282.235C429.599 282.355 429.714 282.491 429.853 282.645C429.992 282.801 430.183 282.936 430.424 283.049C430.668 283.166 430.988 283.224 431.383 283.224C431.911 283.224 432.347 283.096 432.691 282.841C433.035 282.585 433.207 282.184 433.207 281.639V280.309H433.121C433.048 280.429 432.942 280.576 432.806 280.752C432.673 280.926 432.479 281.081 432.227 281.217C431.977 281.35 431.638 281.417 431.212 281.417C430.684 281.417 430.21 281.292 429.789 281.042C429.371 280.792 429.04 280.429 428.796 279.951C428.555 279.474 428.434 278.895 428.434 278.213C428.434 277.542 428.552 276.958 428.788 276.461C429.023 275.961 429.352 275.575 429.772 275.302C430.192 275.027 430.678 274.889 431.229 274.889C431.656 274.889 431.994 274.96 432.244 275.102C432.496 275.241 432.69 275.4 432.823 275.579C432.96 275.755 433.065 275.9 433.138 276.014H433.241V274.974H434.212V281.707C434.212 282.27 434.085 282.727 433.829 283.079C433.576 283.434 433.235 283.694 432.806 283.859C432.38 284.027 431.906 284.11 431.383 284.11ZM431.349 280.514C431.752 280.514 432.093 280.422 432.371 280.237C432.65 280.052 432.862 279.787 433.006 279.44C433.151 279.093 433.224 278.679 433.224 278.196C433.224 277.724 433.153 277.308 433.011 276.947C432.869 276.586 432.658 276.304 432.38 276.099C432.102 275.895 431.758 275.792 431.349 275.792C430.923 275.792 430.567 275.9 430.283 276.116C430.002 276.332 429.79 276.622 429.648 276.985C429.509 277.349 429.44 277.752 429.44 278.196C429.44 278.65 429.511 279.052 429.653 279.402C429.798 279.748 430.011 280.021 430.292 280.22C430.576 280.416 430.928 280.514 431.349 280.514Z" fill="#666666"/>
<path d="M474.744 281.52H472.051V272.792H474.863C475.71 272.792 476.434 272.967 477.037 273.316C477.639 273.663 478.101 274.162 478.422 274.812C478.743 275.46 478.903 276.235 478.903 277.139C478.903 278.048 478.741 278.831 478.417 279.487C478.094 280.14 477.622 280.643 477.003 280.995C476.383 281.345 475.631 281.52 474.744 281.52ZM473.108 280.582H474.676C475.398 280.582 475.996 280.443 476.47 280.164C476.944 279.886 477.298 279.49 477.531 278.975C477.764 278.461 477.881 277.849 477.881 277.139C477.881 276.434 477.765 275.828 477.535 275.319C477.305 274.808 476.961 274.416 476.504 274.143C476.047 273.868 475.477 273.73 474.795 273.73H473.108V280.582ZM483.284 281.656C482.653 281.656 482.109 281.517 481.652 281.238C481.197 280.957 480.846 280.565 480.599 280.062C480.355 279.556 480.233 278.968 480.233 278.298C480.233 277.627 480.355 277.037 480.599 276.525C480.846 276.011 481.19 275.61 481.631 275.324C482.074 275.034 482.591 274.889 483.182 274.889C483.523 274.889 483.859 274.946 484.192 275.059C484.524 275.173 484.827 275.358 485.099 275.613C485.372 275.866 485.589 276.201 485.751 276.619C485.913 277.037 485.994 277.551 485.994 278.162V278.588H480.949V277.718H484.971C484.971 277.349 484.898 277.02 484.75 276.73C484.605 276.44 484.398 276.211 484.128 276.044C483.861 275.876 483.545 275.792 483.182 275.792C482.781 275.792 482.434 275.892 482.142 276.091C481.852 276.287 481.629 276.542 481.473 276.858C481.317 277.173 481.238 277.511 481.238 277.872V278.451C481.238 278.946 481.324 279.365 481.494 279.708C481.667 280.049 481.907 280.309 482.214 280.488C482.521 280.664 482.878 280.752 483.284 280.752C483.548 280.752 483.787 280.716 484 280.642C484.216 280.565 484.402 280.451 484.558 280.301C484.714 280.147 484.835 279.957 484.92 279.73L485.892 280.002C485.79 280.332 485.618 280.622 485.376 280.872C485.135 281.119 484.836 281.312 484.481 281.451C484.126 281.588 483.727 281.656 483.284 281.656ZM492.677 274.974L490.257 281.52H489.234L486.813 274.974H487.904L489.711 280.19H489.779L491.586 274.974H492.677ZM501.504 277.156C501.504 278.076 501.338 278.872 501.006 279.542C500.673 280.213 500.218 280.73 499.638 281.093C499.058 281.457 498.396 281.639 497.652 281.639C496.908 281.639 496.246 281.457 495.666 281.093C495.087 280.73 494.631 280.213 494.298 279.542C493.966 278.872 493.8 278.076 493.8 277.156C493.8 276.235 493.966 275.44 494.298 274.77C494.631 274.099 495.087 273.582 495.666 273.218C496.246 272.855 496.908 272.673 497.652 272.673C498.396 272.673 499.058 272.855 499.638 273.218C500.218 273.582 500.673 274.099 501.006 274.77C501.338 275.44 501.504 276.235 501.504 277.156ZM500.482 277.156C500.482 276.4 500.355 275.762 500.102 275.243C499.852 274.723 499.513 274.329 499.084 274.062C498.658 273.795 498.181 273.662 497.652 273.662C497.124 273.662 496.645 273.795 496.216 274.062C495.79 274.329 495.45 274.723 495.198 275.243C494.948 275.762 494.823 276.4 494.823 277.156C494.823 277.912 494.948 278.549 495.198 279.069C495.45 279.589 495.79 279.983 496.216 280.25C496.645 280.517 497.124 280.65 497.652 280.65C498.181 280.65 498.658 280.517 499.084 280.25C499.513 279.983 499.852 279.589 500.102 279.069C500.355 278.549 500.482 277.912 500.482 277.156ZM503.145 283.974V274.974H504.117V276.014H504.236C504.31 275.9 504.412 275.755 504.543 275.579C504.676 275.4 504.867 275.241 505.114 275.102C505.364 274.96 505.702 274.889 506.128 274.889C506.679 274.889 507.165 275.027 507.585 275.302C508.006 275.578 508.334 275.968 508.57 276.474C508.806 276.98 508.923 277.576 508.923 278.264C508.923 278.957 508.806 279.558 508.57 280.066C508.334 280.572 508.007 280.964 507.59 281.243C507.172 281.518 506.691 281.656 506.145 281.656C505.725 281.656 505.388 281.586 505.135 281.447C504.882 281.305 504.688 281.145 504.551 280.966C504.415 280.784 504.31 280.633 504.236 280.514H504.151V283.974H503.145ZM504.134 278.247C504.134 278.741 504.206 279.177 504.351 279.555C504.496 279.93 504.708 280.224 504.986 280.437C505.264 280.647 505.605 280.752 506.009 280.752C506.429 280.752 506.78 280.642 507.061 280.42C507.345 280.196 507.558 279.895 507.7 279.517C507.845 279.136 507.918 278.713 507.918 278.247C507.918 277.787 507.847 277.372 507.705 277.002C507.566 276.63 507.354 276.336 507.07 276.12C506.789 275.902 506.435 275.792 506.009 275.792C505.6 275.792 505.256 275.896 504.977 276.103C504.699 276.308 504.489 276.595 504.347 276.964C504.205 277.331 504.134 277.758 504.134 278.247ZM515.094 276.44L514.191 276.696C514.134 276.545 514.05 276.399 513.939 276.257C513.831 276.112 513.683 275.993 513.496 275.899C513.308 275.805 513.068 275.758 512.776 275.758C512.375 275.758 512.041 275.85 511.774 276.035C511.51 276.217 511.378 276.449 511.378 276.73C511.378 276.98 511.469 277.177 511.651 277.322C511.833 277.467 512.117 277.588 512.503 277.684L513.475 277.923C514.06 278.065 514.496 278.282 514.783 278.575C515.07 278.865 515.213 279.238 515.213 279.696C515.213 280.071 515.105 280.406 514.889 280.701C514.676 280.997 514.378 281.23 513.994 281.4C513.611 281.571 513.165 281.656 512.656 281.656C511.989 281.656 511.436 281.511 510.999 281.221C510.561 280.931 510.284 280.508 510.168 279.951L511.122 279.713C511.213 280.065 511.385 280.329 511.638 280.505C511.894 280.681 512.227 280.77 512.639 280.77C513.108 280.77 513.48 280.67 513.756 280.471C514.034 280.27 514.173 280.028 514.173 279.747C514.173 279.52 514.094 279.329 513.935 279.176C513.776 279.02 513.531 278.903 513.202 278.826L512.111 278.571C511.512 278.429 511.071 278.208 510.79 277.91C510.512 277.609 510.372 277.233 510.372 276.781C510.372 276.412 510.476 276.085 510.683 275.801C510.894 275.517 511.179 275.294 511.54 275.132C511.904 274.97 512.316 274.889 512.776 274.889C513.423 274.889 513.932 275.031 514.301 275.315C514.673 275.599 514.938 275.974 515.094 276.44Z" fill="#666666"/>
<path d="M53.25 269.379C52.608 269.379 52.0611 269.204 51.6094 268.855C51.1577 268.503 50.8125 267.993 50.5739 267.325C50.3352 266.655 50.2159 265.845 50.2159 264.896C50.2159 263.953 50.3352 263.148 50.5739 262.48C50.8153 261.809 51.1619 261.298 51.6136 260.946C52.0682 260.591 52.6136 260.413 53.25 260.413C53.8864 260.413 54.4304 260.591 54.8821 260.946C55.3366 261.298 55.6832 261.809 55.9219 262.48C56.1634 263.148 56.2841 263.953 56.2841 264.896C56.2841 265.845 56.1648 266.655 55.9261 267.325C55.6875 267.993 55.3423 268.503 54.8906 268.855C54.4389 269.204 53.892 269.379 53.25 269.379ZM53.25 268.442C53.8864 268.442 54.3807 268.135 54.733 267.521C55.0852 266.907 55.2614 266.032 55.2614 264.896C55.2614 264.14 55.1804 263.497 55.0185 262.966C54.8594 262.434 54.6293 262.03 54.3281 261.751C54.0298 261.473 53.6705 261.334 53.25 261.334C52.6193 261.334 52.1264 261.645 51.7713 262.267C51.4162 262.886 51.2386 263.763 51.2386 264.896C51.2386 265.652 51.3182 266.294 51.4773 266.822C51.6364 267.351 51.8651 267.753 52.1634 268.028C52.4645 268.304 52.8267 268.442 53.25 268.442Z" fill="#666666"/>
<path d="M43.1378 204.26V203.493L46.0185 200.339C46.3565 199.97 46.6349 199.649 46.8537 199.376C47.0724 199.101 47.2344 198.842 47.3395 198.601C47.4474 198.356 47.5014 198.101 47.5014 197.834C47.5014 197.527 47.4276 197.261 47.2798 197.037C47.1349 196.812 46.9361 196.639 46.6832 196.517C46.4304 196.395 46.1463 196.334 45.831 196.334C45.4957 196.334 45.2031 196.403 44.9531 196.542C44.706 196.679 44.5142 196.871 44.3778 197.118C44.2443 197.365 44.1776 197.655 44.1776 197.987H43.1719C43.1719 197.476 43.2898 197.027 43.5256 196.64C43.7614 196.254 44.0824 195.953 44.4886 195.737C44.8977 195.521 45.3565 195.413 45.8651 195.413C46.3764 195.413 46.8295 195.521 47.2244 195.737C47.6193 195.953 47.929 196.244 48.1534 196.611C48.3778 196.977 48.4901 197.385 48.4901 197.834C48.4901 198.155 48.4318 198.469 48.3153 198.775C48.2017 199.079 48.0028 199.419 47.7188 199.794C47.4375 200.166 47.0469 200.621 46.5469 201.157L44.5866 203.254V203.322H48.6435V204.26H43.1378ZM53.25 204.379C52.608 204.379 52.0611 204.204 51.6094 203.855C51.1577 203.503 50.8125 202.993 50.5739 202.325C50.3352 201.655 50.2159 200.845 50.2159 199.896C50.2159 198.953 50.3352 198.148 50.5739 197.48C50.8153 196.809 51.1619 196.298 51.6136 195.946C52.0682 195.591 52.6136 195.413 53.25 195.413C53.8864 195.413 54.4304 195.591 54.8821 195.946C55.3366 196.298 55.6832 196.809 55.9219 197.48C56.1634 198.148 56.2841 198.953 56.2841 199.896C56.2841 200.845 56.1648 201.655 55.9261 202.325C55.6875 202.993 55.3423 203.503 54.8906 203.855C54.4389 204.204 53.892 204.379 53.25 204.379ZM53.25 203.442C53.8864 203.442 54.3807 203.135 54.733 202.521C55.0852 201.907 55.2614 201.032 55.2614 199.896C55.2614 199.14 55.1804 198.497 55.0185 197.966C54.8594 197.434 54.6293 197.03 54.3281 196.751C54.0298 196.473 53.6705 196.334 53.25 196.334C52.6193 196.334 52.1264 196.645 51.7713 197.267C51.4162 197.886 51.2386 198.763 51.2386 199.896C51.2386 200.652 51.3182 201.294 51.4773 201.822C51.6364 202.351 51.8651 202.753 52.1634 203.028C52.4645 203.304 52.8267 203.442 53.25 203.442Z" fill="#666666"/>
<path d="M42.4996 137.47V136.601L46.3349 130.532H46.9656V131.879H46.5394L43.6417 136.464V136.532H48.8065V137.47H42.4996ZM46.6076 139.26V137.206V136.801V130.532H47.6133V139.26H46.6076ZM53.25 139.379C52.608 139.379 52.0611 139.204 51.6094 138.855C51.1577 138.503 50.8125 137.993 50.5739 137.325C50.3352 136.655 50.2159 135.845 50.2159 134.896C50.2159 133.953 50.3352 133.148 50.5739 132.48C50.8153 131.809 51.1619 131.298 51.6136 130.946C52.0682 130.591 52.6136 130.413 53.25 130.413C53.8864 130.413 54.4304 130.591 54.8821 130.946C55.3366 131.298 55.6832 131.809 55.9219 132.48C56.1634 133.148 56.2841 133.953 56.2841 134.896C56.2841 135.845 56.1648 136.655 55.9261 137.325C55.6875 137.993 55.3423 138.503 54.8906 138.855C54.4389 139.204 53.892 139.379 53.25 139.379ZM53.25 138.442C53.8864 138.442 54.3807 138.135 54.733 137.521C55.0852 136.907 55.2614 136.032 55.2614 134.896C55.2614 134.14 55.1804 133.497 55.0185 132.966C54.8594 132.434 54.6293 132.03 54.3281 131.751C54.0298 131.473 53.6705 131.334 53.25 131.334C52.6193 131.334 52.1264 131.645 51.7713 132.267C51.4162 132.886 51.2386 133.763 51.2386 134.896C51.2386 135.652 51.3182 136.294 51.4773 136.822C51.6364 137.351 51.8651 137.753 52.1634 138.028C52.4645 138.304 52.8267 138.442 53.25 138.442Z" fill="#666666"/>
<path d="M45.8129 74.3791C45.4549 74.3734 45.0969 74.3052 44.739 74.1745C44.381 74.0439 44.0543 73.8237 43.7589 73.514C43.4634 73.2015 43.2262 72.7797 43.0472 72.2484C42.8683 71.7143 42.7788 71.0439 42.7788 70.237C42.7788 69.4643 42.8512 68.7797 42.9961 68.1831C43.141 67.5836 43.3512 67.0794 43.6268 66.6703C43.9023 66.2583 44.2347 65.9458 44.6239 65.7328C45.016 65.5197 45.4577 65.4132 45.9492 65.4132C46.4379 65.4132 46.8725 65.5112 47.2532 65.7072C47.6367 65.9004 47.9492 66.1703 48.1907 66.5169C48.4322 66.8635 48.5884 67.2626 48.6594 67.7143H47.6197C47.5231 67.3223 47.3356 66.997 47.0572 66.7385C46.7788 66.4799 46.4094 66.3507 45.9492 66.3507C45.2731 66.3507 44.7404 66.6447 44.3512 67.2328C43.9648 67.8208 43.7702 68.6461 43.7674 69.7086H43.8356C43.9947 69.4672 44.1836 69.2612 44.4023 69.0907C44.6239 68.9174 44.8683 68.7839 45.1353 68.6902C45.4023 68.5964 45.685 68.5495 45.9833 68.5495C46.4833 68.5495 46.9407 68.6745 47.3555 68.9245C47.7702 69.1717 48.1026 69.514 48.3526 69.9515C48.6026 70.3862 48.7276 70.8848 48.7276 71.4473C48.7276 71.987 48.6069 72.4814 48.3654 72.9302C48.1239 73.3762 47.7844 73.7314 47.3469 73.9956C46.9123 74.2569 46.4009 74.3848 45.8129 74.3791ZM45.8129 73.4416C46.1708 73.4416 46.4918 73.3521 46.7759 73.1731C47.0629 72.9941 47.2887 72.7541 47.4535 72.4529C47.6211 72.1518 47.7049 71.8166 47.7049 71.4473C47.7049 71.0865 47.6239 70.7583 47.462 70.4629C47.3029 70.1646 47.0827 69.9274 46.8015 69.7512C46.5231 69.5751 46.2049 69.487 45.8469 69.487C45.5771 69.487 45.3256 69.541 45.0927 69.649C44.8597 69.7541 44.6552 69.899 44.479 70.0836C44.3058 70.2683 44.1694 70.4799 44.07 70.7186C43.9705 70.9544 43.9208 71.2029 43.9208 71.4643C43.9208 71.8109 44.0018 72.1348 44.1637 72.4359C44.3285 72.737 44.5529 72.9799 44.837 73.1646C45.1239 73.3493 45.4492 73.4416 45.8129 73.4416ZM53.25 74.3791C52.608 74.3791 52.0611 74.2044 51.6094 73.8549C51.1577 73.5027 50.8125 72.9927 50.5739 72.3251C50.3352 71.6547 50.2159 70.845 50.2159 69.8961C50.2159 68.9529 50.3352 68.1475 50.5739 67.4799C50.8153 66.8095 51.1619 66.2981 51.6136 65.9458C52.0682 65.5907 52.6136 65.4132 53.25 65.4132C53.8864 65.4132 54.4304 65.5907 54.8821 65.9458C55.3366 66.2981 55.6832 66.8095 55.9219 67.4799C56.1634 68.1475 56.2841 68.9529 56.2841 69.8961C56.2841 70.845 56.1648 71.6547 55.9261 72.3251C55.6875 72.9927 55.3423 73.5027 54.8906 73.8549C54.4389 74.2044 53.892 74.3791 53.25 74.3791ZM53.25 73.4416C53.8864 73.4416 54.3807 73.1348 54.733 72.5211C55.0852 71.9075 55.2614 71.0325 55.2614 69.8961C55.2614 69.1404 55.1804 68.497 55.0185 67.9657C54.8594 67.4345 54.6293 67.0297 54.3281 66.7512C54.0298 66.4728 53.6705 66.3336 53.25 66.3336C52.6193 66.3336 52.1264 66.6447 51.7713 67.2669C51.4162 67.8862 51.2386 68.7626 51.2386 69.8961C51.2386 70.6518 51.3182 71.2939 51.4773 71.8223C51.6364 72.3507 51.8651 72.7527 52.1634 73.0282C52.4645 73.3038 52.8267 73.4416 53.25 73.4416Z" fill="#666666"/>
<path d="M45.8043 16.3791C45.2191 16.3791 44.7021 16.2754 44.2532 16.068C43.8072 15.8578 43.4592 15.5694 43.2092 15.2029C42.9592 14.8336 42.8356 14.4132 42.8384 13.9416C42.8356 13.5723 42.908 13.2314 43.0558 12.9189C43.2035 12.6035 43.4052 12.3407 43.6609 12.1305C43.9194 11.9174 44.2077 11.7825 44.5259 11.7257V11.6745C44.1083 11.5666 43.7759 11.3322 43.5288 10.9714C43.2816 10.6078 43.1594 10.1944 43.1623 9.73136C43.1594 9.28817 43.2717 8.89187 43.4989 8.54244C43.7262 8.193 44.0387 7.91744 44.4364 7.71573C44.837 7.51403 45.293 7.41317 45.8043 7.41317C46.31 7.41317 46.7617 7.51403 47.1594 7.71573C47.5572 7.91744 47.8697 8.193 48.0969 8.54244C48.3271 8.89187 48.4435 9.28817 48.4464 9.73136C48.4435 10.1944 48.3171 10.6078 48.0671 10.9714C47.82 11.3322 47.4918 11.5666 47.0827 11.6745V11.7257C47.3981 11.7825 47.6822 11.9174 47.935 12.1305C48.1879 12.3407 48.3896 12.6035 48.5401 12.9189C48.6907 13.2314 48.7674 13.5723 48.7702 13.9416C48.7674 14.4132 48.6396 14.8336 48.3867 15.2029C48.1367 15.5694 47.7887 15.8578 47.3427 16.068C46.8995 16.2754 46.3867 16.3791 45.8043 16.3791ZM45.8043 15.4416C46.1992 15.4416 46.5401 15.3777 46.8271 15.2498C47.114 15.122 47.3356 14.9416 47.4918 14.7086C47.6481 14.4757 47.7276 14.2029 47.7305 13.8904C47.7276 13.5609 47.6424 13.2697 47.4748 13.0169C47.3072 12.764 47.0785 12.5652 46.7887 12.4203C46.5018 12.2754 46.1737 12.2029 45.8043 12.2029C45.4322 12.2029 45.0998 12.2754 44.8072 12.4203C44.5174 12.5652 44.2887 12.764 44.1211 13.0169C43.9563 13.2697 43.8754 13.5609 43.8782 13.8904C43.8754 14.2029 43.9506 14.4757 44.104 14.7086C44.2603 14.9416 44.4833 15.122 44.7731 15.2498C45.0629 15.3777 45.4066 15.4416 45.8043 15.4416ZM45.8043 11.2995C46.1168 11.2995 46.3938 11.237 46.6353 11.112C46.8796 10.987 47.0714 10.8123 47.2106 10.5879C47.3498 10.3635 47.4208 10.1007 47.4237 9.79954C47.4208 9.50408 47.3512 9.24698 47.2148 9.02823C47.0785 8.80664 46.8896 8.63619 46.6481 8.51687C46.4066 8.39471 46.1254 8.33363 45.8043 8.33363C45.4776 8.33363 45.1921 8.39471 44.9478 8.51687C44.7035 8.63619 44.5146 8.80664 44.381 9.02823C44.2475 9.24698 44.1822 9.50408 44.185 9.79954C44.1822 10.1007 44.2489 10.3635 44.3853 10.5879C44.5245 10.8123 44.7163 10.987 44.9606 11.112C45.2049 11.237 45.4862 11.2995 45.8043 11.2995ZM53.25 16.3791C52.608 16.3791 52.0611 16.2044 51.6094 15.8549C51.1577 15.5027 50.8125 14.9927 50.5739 14.3251C50.3352 13.6547 50.2159 12.845 50.2159 11.8961C50.2159 10.9529 50.3352 10.1475 50.5739 9.47994C50.8153 8.80948 51.1619 8.29812 51.6136 7.94584C52.0682 7.59073 52.6136 7.41317 53.25 7.41317C53.8864 7.41317 54.4304 7.59073 54.8821 7.94584C55.3366 8.29812 55.6832 8.80948 55.9219 9.47994C56.1634 10.1475 56.2841 10.9529 56.2841 11.8961C56.2841 12.845 56.1648 13.6547 55.9261 14.3251C55.6875 14.9927 55.3423 15.5027 54.8906 15.8549C54.4389 16.2044 53.892 16.3791 53.25 16.3791ZM53.25 15.4416C53.8864 15.4416 54.3807 15.1348 54.733 14.5211C55.0852 13.9075 55.2614 13.0325 55.2614 11.8961C55.2614 11.1404 55.1804 10.497 55.0185 9.96573C54.8594 9.43448 54.6293 9.02965 54.3281 8.75124C54.0298 8.47283 53.6705 8.33363 53.25 8.33363C52.6193 8.33363 52.1264 8.64471 51.7713 9.26687C51.4162 9.88619 51.2386 10.7626 51.2386 11.8961C51.2386 12.6518 51.3182 13.2939 51.4773 13.8223C51.6364 14.3507 51.8651 14.7527 52.1634 15.0282C52.4645 15.3038 52.8267 15.4416 53.25 15.4416Z" fill="#666666"/>
</svg>
