<svg width="30" height="30" viewBox="0 0 30 30" fill="none" xmlns="http://www.w3.org/2000/svg">
<g clip-path="url(#clip0_1383_1753)">
<path d="M0 11.25H30V17.8125H0V11.25Z" fill="#E6E7E8"/>
<path d="M25.3125 4.21875H4.6875C1.58109 4.21875 0 6.52734 0 9.375V11.25H30V9.375C30 6.52734 28.4189 4.21875 25.3125 4.21875Z" fill="#FF9933"/>
<path d="M0 19.6875C0 22.5352 1.58109 24.8438 4.6875 24.8438H25.3125C28.4189 24.8438 30 22.5352 30 19.6875V17.8125H0V19.6875Z" fill="#128807"/>
<path fill-rule="evenodd" clip-rule="evenodd" d="M15.1444 11.5234C15.7433 11.5234 16.3288 11.7011 16.8267 12.0339C17.3246 12.3668 17.7126 12.8398 17.9416 13.3933C18.1706 13.9467 18.2302 14.5556 18.1131 15.1429C17.9959 15.7303 17.7071 16.2697 17.2833 16.6928C16.8594 17.116 16.3196 17.4039 15.7321 17.5202C15.1445 17.6365 14.5357 17.5759 13.9827 17.346C13.4296 17.1162 12.9572 16.7275 12.6251 16.229C12.293 15.7306 12.1163 15.1449 12.1172 14.5459C12.1187 13.744 12.4382 12.9753 13.0058 12.4087C13.5733 11.8421 14.3424 11.5237 15.1444 11.5234ZM13.1264 12.8336C13.1784 12.8927 13.1878 12.9559 13.1531 13.0089C13.1385 13.0334 13.1158 13.052 13.0889 13.0614C13.0683 13.0691 13.0462 13.0716 13.0244 13.0688C13.0026 13.0661 12.9818 13.058 12.9638 13.0455C12.8823 13.1622 12.8107 13.2854 12.7495 13.4139C12.8203 13.4603 12.8438 13.5184 12.8203 13.5827C12.8078 13.6153 12.783 13.6419 12.7512 13.6566C12.7194 13.6713 12.6832 13.673 12.6502 13.6614C12.6164 13.7289 12.5419 14.0139 12.5409 14.0739C12.5718 14.0804 12.5995 14.0971 12.6197 14.1212C12.6405 14.1457 12.6513 14.1773 12.6497 14.2094C12.6408 14.2975 12.5864 14.335 12.5034 14.3383C12.4903 14.4231 12.4917 14.7072 12.5048 14.763C12.5923 14.7723 12.6397 14.8106 12.6469 14.8778C12.6572 14.95 12.6225 14.9969 12.5381 15.0297C12.5631 15.1691 12.5994 15.3058 12.6469 15.4398C12.6799 15.43 12.7153 15.4312 12.7477 15.4431C12.7791 15.4567 12.8039 15.4802 12.817 15.5125C12.8286 15.5375 12.8313 15.5639 12.825 15.5917C12.8206 15.6123 12.8115 15.6315 12.7984 15.6479C12.7853 15.6644 12.7686 15.6775 12.7495 15.6864C12.8123 15.8167 12.8817 15.9395 12.9638 16.0548C13.0369 16.0187 13.1006 16.0272 13.1438 16.0787C13.1626 16.1 13.1733 16.1272 13.1742 16.1556C13.1756 16.1766 13.1718 16.1976 13.1633 16.2169C13.1549 16.2361 13.1419 16.2531 13.1255 16.2663C13.2189 16.3756 13.3197 16.4764 13.4278 16.5686C13.4892 16.5147 13.553 16.5062 13.6078 16.5447C13.6328 16.5622 13.6495 16.585 13.658 16.6131C13.6636 16.6331 13.6647 16.654 13.6613 16.6744C13.6579 16.6948 13.6501 16.7142 13.6383 16.7313C13.7567 16.8125 13.8797 16.8834 14.0072 16.9441C14.0572 16.8741 14.1131 16.8508 14.175 16.8742C14.2018 16.8838 14.225 16.9013 14.2416 16.9244C14.2644 16.9619 14.2688 17.0028 14.2547 17.0472C14.3897 17.095 14.5256 17.1316 14.6663 17.1564C14.6939 17.0772 14.7417 17.0402 14.8055 17.0448C14.835 17.0472 14.8617 17.0561 14.8852 17.0763C14.918 17.1063 14.9331 17.1445 14.9306 17.1911C15.0744 17.2017 15.2163 17.2017 15.3563 17.1911C15.3666 17.1006 15.4027 17.0552 15.4753 17.0448C15.5029 17.0409 15.531 17.0465 15.555 17.0608C15.5725 17.0708 15.5875 17.0846 15.599 17.1011C15.6106 17.1176 15.6183 17.1365 15.6216 17.1564C15.7631 17.1305 15.9003 17.0939 16.0331 17.0467C16.0214 16.9581 16.043 16.9052 16.1025 16.8775C16.1242 16.8682 16.1479 16.8645 16.1714 16.8667C16.1961 16.8683 16.2175 16.8767 16.2356 16.892C16.253 16.9066 16.2675 16.9244 16.2844 16.9427C16.4122 16.8824 16.5348 16.8116 16.6509 16.7313C16.6031 16.6563 16.6313 16.5845 16.6702 16.5527C16.6837 16.541 16.6995 16.5322 16.7165 16.5267C16.7335 16.5213 16.7514 16.5192 16.7692 16.5207C16.787 16.5223 16.8044 16.5273 16.8202 16.5356C16.836 16.5439 16.85 16.5553 16.8614 16.5691C16.9697 16.4763 17.0714 16.3755 17.1623 16.2672C17.1094 16.2067 17.0991 16.143 17.138 16.0881C17.1538 16.0637 17.178 16.0457 17.2059 16.0375C17.2259 16.0311 17.2471 16.0294 17.2679 16.0326C17.2886 16.0358 17.3083 16.0437 17.3255 16.0558C17.4073 15.938 17.4788 15.815 17.5397 15.6869C17.4709 15.6409 17.4467 15.5872 17.467 15.5256C17.4746 15.4984 17.4911 15.4744 17.5139 15.4577C17.532 15.4447 17.5529 15.4363 17.5749 15.4331C17.5969 15.4298 17.6194 15.4318 17.6405 15.4389C17.6709 15.3728 17.7469 15.0944 17.7511 15.0269C17.7187 15.0208 17.6895 15.0035 17.6686 14.9781C17.6577 14.9654 17.6496 14.9507 17.6447 14.9347C17.6397 14.9187 17.6382 14.9019 17.64 14.8853C17.6419 14.8557 17.6542 14.8276 17.6747 14.8061C17.689 14.7914 17.7062 14.7801 17.7253 14.7728C17.7445 14.7655 17.7649 14.7625 17.7853 14.7639C17.7971 14.6221 17.7971 14.4796 17.7853 14.3378C17.6958 14.3289 17.6531 14.2942 17.6414 14.2234C17.6362 14.1967 17.6402 14.1689 17.6527 14.1447C17.6623 14.126 17.6762 14.1097 17.6932 14.0973C17.7102 14.0848 17.7299 14.0765 17.7506 14.073C17.7261 13.9329 17.6895 13.7952 17.6414 13.6614C17.5547 13.6759 17.5013 13.6525 17.4727 13.5925C17.4652 13.5765 17.4611 13.5591 17.4604 13.5414C17.4598 13.5238 17.4627 13.5062 17.4689 13.4896C17.4752 13.4731 17.4846 13.458 17.4968 13.4451C17.5089 13.4323 17.5235 13.422 17.5397 13.4148C17.479 13.286 17.4073 13.1625 17.3255 13.0459C17.25 13.082 17.1886 13.0736 17.1455 13.022C17.1264 13.0002 17.1158 12.9723 17.1155 12.9433C17.1145 12.9227 17.1184 12.9021 17.1269 12.8833C17.1354 12.8645 17.1482 12.8479 17.1642 12.835C17.0716 12.7267 16.9708 12.6257 16.8628 12.5327C16.7981 12.588 16.7353 12.595 16.6819 12.5566C16.6575 12.5405 16.6397 12.5162 16.6317 12.4881C16.626 12.4684 16.6248 12.4477 16.6282 12.4275C16.6316 12.4073 16.6395 12.3881 16.6514 12.3714C16.5346 12.2899 16.4112 12.2183 16.2825 12.1572C16.2344 12.2259 16.1797 12.2498 16.1184 12.2289C16.0914 12.2199 16.0677 12.2029 16.0505 12.1802C16.0381 12.1619 16.0302 12.1409 16.0274 12.119C16.0247 12.0971 16.0271 12.0749 16.0345 12.0541C15.9009 12.0052 15.7632 11.9687 15.623 11.9448C15.5963 12.0208 15.548 12.0602 15.4856 12.0564C15.4566 12.0549 15.4288 12.0444 15.4059 12.0264C15.3893 12.0123 15.3763 11.9943 15.368 11.9741C15.3598 11.9538 15.3566 11.9319 15.3586 11.9102C15.217 11.8981 15.0746 11.8983 14.933 11.9106C14.923 11.9953 14.8867 12.043 14.8242 12.0536C14.7962 12.0597 14.7669 12.056 14.7413 12.0433C14.7221 12.0337 14.7056 12.0198 14.6929 12.0026C14.6802 11.9854 14.6717 11.9654 14.6681 11.9444C14.528 11.9699 14.3902 12.0067 14.2561 12.0545C14.2711 12.1375 14.2477 12.1919 14.1905 12.2214C14.1658 12.2345 14.1391 12.2388 14.1103 12.2341C14.0885 12.2311 14.0677 12.2225 14.0502 12.2091C14.0327 12.1957 14.019 12.178 14.0105 12.1577C13.9303 12.1877 13.6753 12.3353 13.6416 12.3723C13.6763 12.4417 13.6683 12.5031 13.6205 12.5472C13.607 12.5591 13.5912 12.5682 13.5741 12.5739C13.557 12.5797 13.5389 12.5819 13.521 12.5805C13.503 12.5791 13.4855 12.5741 13.4695 12.5658C13.4535 12.5575 13.4393 12.5461 13.4278 12.5322C13.3199 12.6249 13.2191 12.7256 13.1264 12.8336Z" fill="#010088"/>
<path fill-rule="evenodd" clip-rule="evenodd" d="M16.4421 16.7944C16.4365 16.7883 16.4309 16.7841 16.4266 16.7775C16.1541 16.3609 15.8808 15.9448 15.6068 15.5292L15.588 15.4927C15.5243 15.3441 15.462 15.1955 15.3968 15.0473C15.3948 15.0397 15.3918 15.0322 15.3879 15.0253C15.3616 15.0352 15.3377 15.0464 15.3096 15.0572L15.319 15.0811C15.3776 15.225 15.4338 15.3694 15.4934 15.5133C15.5093 15.5517 15.5159 15.592 15.5243 15.6323C15.5702 15.8475 15.6134 16.0636 15.6598 16.2792L15.8182 17.0494C15.8192 17.0511 15.8196 17.0532 15.8194 17.0552C15.8191 17.0573 15.8182 17.0592 15.8168 17.0606L15.8102 17.0442C15.6818 16.6509 15.5501 16.2581 15.4212 15.8648C15.3954 15.788 15.3724 15.712 15.3443 15.6352C15.3312 15.5967 15.327 15.5573 15.3209 15.5175C15.3045 15.4059 15.2904 15.2934 15.2721 15.1819C15.2693 15.1553 15.2659 15.1291 15.2618 15.1031L15.2566 15.0712C15.2285 15.0741 15.2027 15.0778 15.1746 15.0811C15.1746 15.0923 15.1752 15.1039 15.1765 15.1158C15.1929 15.2531 15.207 15.3909 15.2266 15.5278C15.237 15.6028 15.2318 15.6764 15.2276 15.7514L15.2177 15.9417C15.2093 16.0702 15.2027 16.1981 15.1938 16.3261L15.1798 16.5905L15.1545 17.0391C15.1507 17.0812 15.1498 17.1244 15.1455 17.1656L15.1343 17.0236L15.1198 16.7161L15.1029 16.4419C15.0979 16.3481 15.0926 16.2545 15.087 16.1611L15.0766 15.9778L15.0607 15.6877C15.0559 15.6364 15.0572 15.5848 15.0645 15.5339C15.0738 15.4642 15.0824 15.3941 15.0902 15.3234C15.0993 15.2537 15.1079 15.1845 15.116 15.1158L15.1184 15.0811L15.0363 15.0703C15.0335 15.0891 15.0302 15.1077 15.0265 15.1261L14.9665 15.5555C14.9609 15.6112 14.9388 15.6628 14.9201 15.7148C14.7757 16.1548 14.6305 16.5945 14.4846 17.0339C14.4813 17.0419 14.4799 17.0494 14.4738 17.0569C14.4735 17.0516 14.4743 17.0466 14.4762 17.0419C14.5365 16.7453 14.5979 16.4489 14.6604 16.1527L14.7823 15.563L14.7935 15.5306C14.854 15.382 14.9121 15.232 14.974 15.0834C14.9763 15.0747 14.9794 15.0662 14.9834 15.0581L14.9055 15.0258C14.9023 15.0342 14.8971 15.0412 14.8943 15.0497L14.7016 15.4973C14.6977 15.5086 14.6927 15.5194 14.6866 15.5297C14.41 15.9487 14.1343 16.3682 13.8593 16.7883C13.8558 16.7948 13.8508 16.8004 13.8448 16.8047L13.8541 16.7845L14.532 15.4406C14.5379 15.4285 14.5451 15.417 14.5535 15.4064L14.8432 15.0178C14.8493 15.0112 14.853 15.0052 14.8587 14.9981C14.8348 14.9808 14.8155 14.9648 14.7916 14.9466C14.7863 14.9525 14.7816 14.9583 14.7776 14.9639C14.6763 15.0914 14.5763 15.2186 14.4776 15.3455C14.467 15.3573 14.4555 15.3689 14.4434 15.3802C14.074 15.7106 13.7046 16.0392 13.3338 16.3702C13.3266 16.3767 13.3185 16.3823 13.3095 16.387L13.3188 16.3744C13.6226 16.0347 13.9255 15.695 14.2277 15.3553C14.2452 15.3366 14.2623 15.3173 14.2788 15.2977C14.3135 15.2577 14.3521 15.2217 14.3946 15.1898L14.7312 14.925C14.7387 14.9194 14.7443 14.9133 14.7527 14.9077L14.7012 14.8416L14.6805 14.8561L14.2934 15.1453C14.2786 15.1557 14.2633 15.1653 14.2474 15.1739C13.8073 15.3961 13.3648 15.6183 12.9237 15.8405C12.9152 15.8442 12.9073 15.8489 12.8974 15.8489L12.9152 15.8362L13.7384 15.2972C13.8821 15.2031 14.0254 15.1087 14.1682 15.0141L14.2038 14.9953C14.3535 14.9319 14.5024 14.8683 14.6505 14.8045C14.6574 14.802 14.6649 14.7987 14.673 14.7947L14.6416 14.7173C14.6327 14.7197 14.6271 14.722 14.6201 14.7244C14.4682 14.7848 14.3177 14.8462 14.1649 14.9062C14.1335 14.918 14.0993 14.9236 14.066 14.9306L13.0418 15.1434C12.9129 15.1711 12.7816 15.1983 12.6523 15.225C12.647 15.2262 12.6416 15.2255 12.6368 15.2231C12.6724 15.2116 12.7079 15.1997 12.7432 15.1875C13.1857 15.0419 13.6276 14.8959 14.0688 14.7497C14.1035 14.738 14.1405 14.7347 14.1757 14.7291L14.6013 14.6686L14.6271 14.663L14.6177 14.5805L14.5493 14.588L14.2662 14.6222L14.1087 14.6414C14.0962 14.643 14.0838 14.6434 14.0716 14.6428L13.7735 14.6255L13.5973 14.6156L13.2935 14.5978L12.8505 14.5734C12.7437 14.5678 12.6396 14.5608 12.5332 14.5533C12.5501 14.5519 12.5688 14.5491 12.5871 14.5491L12.9504 14.5284L13.4304 14.5012L13.8279 14.4787L14.0773 14.4637C14.0879 14.4637 14.0984 14.4644 14.1087 14.4656L14.3946 14.4998L14.5971 14.5242H14.6177C14.6201 14.4975 14.6243 14.4722 14.6271 14.4431C14.6098 14.4394 14.5901 14.4366 14.5727 14.4333C14.4477 14.4158 14.3229 14.3978 14.1982 14.3794L14.1204 14.3691C14.1061 14.3671 14.0919 14.3638 14.0782 14.3592C13.7055 14.2369 13.3352 14.1136 12.963 13.9912L12.6527 13.8881C12.6439 13.8855 12.6356 13.8815 12.6279 13.8764L12.693 13.8895L13.4885 14.055C13.7013 14.0995 13.9174 14.1436 14.1302 14.1886L14.1677 14.2003C14.3177 14.2594 14.4663 14.3203 14.6177 14.3803L14.6402 14.3892C14.6505 14.3639 14.6615 14.3381 14.673 14.3119C14.6654 14.3074 14.6574 14.3035 14.6491 14.3002C14.5001 14.237 14.3513 14.1733 14.2029 14.1089L14.1691 14.0916C13.7487 13.8164 13.3301 13.5398 12.9091 13.2642C12.9035 13.2613 12.899 13.2565 12.8965 13.2506L12.9134 13.26C13.3324 13.4709 13.752 13.6817 14.172 13.8923C14.2413 13.927 14.3088 13.9687 14.3707 14.0161C14.4729 14.0953 14.577 14.1712 14.681 14.2491L14.7016 14.2636L14.7532 14.1984L14.7349 14.1825L14.3538 13.883C14.3413 13.8727 14.3298 13.8619 14.3191 13.8506C13.987 13.4787 13.6552 13.1069 13.324 12.735C13.3195 12.7309 13.3158 12.726 13.3132 12.7205C13.323 12.7214 13.3268 12.728 13.331 12.7322C13.5316 12.9103 13.7316 13.0884 13.931 13.2666L14.4476 13.7269C14.457 13.7359 14.4659 13.7453 14.4743 13.755L14.7701 14.1309C14.7776 14.1394 14.7832 14.1483 14.7916 14.1595L14.8596 14.1075C14.8554 14.1009 14.8498 14.0958 14.8465 14.0897C14.7502 13.9606 14.6535 13.8317 14.5563 13.703C14.5462 13.6879 14.537 13.6722 14.5287 13.6561C14.304 13.2123 14.0801 12.7686 13.857 12.3248C13.8527 12.3164 13.8485 12.3098 13.8476 12.3009L13.8588 12.3141L14.3379 13.0462L14.6768 13.5619C14.6885 13.5816 14.7016 13.6022 14.7091 13.6237C14.772 13.7681 14.8338 13.9127 14.8948 14.0573C14.8985 14.0636 14.9023 14.0709 14.906 14.0794L14.9838 14.047L14.9754 14.0273C14.9173 13.8811 14.8588 13.7352 14.8001 13.5895C14.7837 13.5525 14.7776 13.5141 14.7696 13.4756C14.7185 13.2314 14.6693 12.9867 14.6182 12.742C14.568 12.5067 14.5202 12.2733 14.471 12.037C14.4704 12.0361 14.471 12.0334 14.4729 12.0291L14.5141 12.1542C14.6613 12.5964 14.8071 13.0391 14.9515 13.4822C14.9637 13.5169 14.9679 13.5548 14.973 13.5909C14.9899 13.7141 15.008 13.8375 15.0274 13.9612C15.0307 13.9847 15.0321 14.0081 15.0368 14.0339L15.1184 14.0236V13.9927L15.0827 13.6987C15.0757 13.6416 15.0705 13.5858 15.0626 13.53C15.058 13.4925 15.058 13.4545 15.0626 13.417L15.0734 13.2267L15.0963 12.8447C15.1005 12.7762 15.102 12.7069 15.1062 12.6384C15.1121 12.5491 15.1174 12.4594 15.1221 12.3694C15.1262 12.3037 15.1296 12.2381 15.1324 12.1725C15.1365 12.0953 15.142 12.0183 15.1488 11.9414C15.1504 11.9623 15.1516 11.9841 15.1526 12.0066C15.1588 12.1006 15.1645 12.195 15.1695 12.2897L15.1938 12.7191L15.2084 12.96L15.2304 13.3781L15.2351 13.4395C15.2412 13.4939 15.2304 13.5478 15.2257 13.6017L15.1957 13.8473C15.191 13.8937 15.184 13.9402 15.1784 13.987C15.1774 13.9983 15.1774 14.0105 15.1741 14.0241C15.2032 14.0283 15.2295 14.0311 15.2585 14.0348C15.2627 14.0147 15.2646 13.9959 15.2679 13.9762C15.2904 13.8241 15.3123 13.6714 15.3335 13.5183C15.3354 13.507 15.3401 13.4953 15.3429 13.4836C15.4957 13.0252 15.6457 12.5662 15.7976 12.1069C15.8051 12.0858 15.8107 12.0656 15.8224 12.0455L15.8173 12.0773C15.7488 12.4092 15.6776 12.7402 15.6096 13.0711C15.579 13.2264 15.5473 13.3817 15.5145 13.537C15.5121 13.5499 15.508 13.5623 15.5023 13.5741L15.3213 14.0264C15.3182 14.0327 15.3152 14.04 15.3124 14.0484C15.3405 14.0592 15.3635 14.07 15.3907 14.0808L15.4015 14.0583L15.5904 13.6144C15.5979 13.5994 15.6035 13.5848 15.6134 13.5727L16.4313 12.3248C16.4365 12.3183 16.4407 12.3117 16.4487 12.307C16.4459 12.3136 16.4426 12.3202 16.4388 12.3267L15.7662 13.6627C15.7593 13.6755 15.7518 13.6877 15.7437 13.6992L15.4521 14.0878L15.4366 14.1089L15.5032 14.1609L15.5177 14.1431C15.6168 14.0166 15.7165 13.8898 15.8168 13.763C15.8278 13.7487 15.8402 13.7355 15.8538 13.7236C16.2241 13.3927 16.5948 13.0622 16.9657 12.7322C16.9718 12.727 16.976 12.7219 16.9859 12.7191L16.9737 12.7341C16.8227 12.905 16.6705 13.0755 16.5171 13.2455C16.3349 13.4492 16.1534 13.653 15.9724 13.8567C15.9624 13.867 15.9523 13.8762 15.942 13.8844L15.5609 14.1839L15.5421 14.1989C15.5599 14.2214 15.5759 14.243 15.5946 14.2655L15.6148 14.2505L16.0052 13.958L16.0362 13.9383C16.4855 13.7127 16.9337 13.487 17.3805 13.2614C17.3874 13.2577 17.3946 13.2556 17.4021 13.2553C17.3821 13.2687 17.362 13.2819 17.3416 13.2947L16.1266 14.092C16.1157 14.0989 16.1045 14.105 16.0929 14.1103C15.9434 14.175 15.7924 14.2387 15.6443 14.303L15.6204 14.3123C15.633 14.3386 15.642 14.3634 15.6532 14.3897L15.6748 14.3827C15.8252 14.3231 15.9748 14.2608 16.1266 14.2031C16.1641 14.1881 16.2054 14.1816 16.2462 14.1731L16.9366 14.0297C17.1513 13.9856 17.3641 13.9406 17.5793 13.8961C17.5984 13.8917 17.6179 13.8877 17.6379 13.8839C17.643 13.8839 17.6477 13.883 17.6552 13.8858L17.5896 13.9073C17.1321 14.0589 16.6746 14.2095 16.2171 14.3592C16.1824 14.3714 16.144 14.3747 16.1079 14.3803L15.8041 14.4239L15.6949 14.4394L15.6682 14.4441C15.671 14.4717 15.6752 14.4975 15.6771 14.5275L15.7479 14.52L16.001 14.49C16.0643 14.482 16.1304 14.4731 16.1965 14.467C16.226 14.4647 16.256 14.4675 16.2865 14.4689C16.3507 14.4717 16.4149 14.4773 16.482 14.4802L16.8607 14.5027L17.0313 14.512L17.4176 14.5341C17.509 14.5397 17.6032 14.5439 17.6941 14.5495C17.7167 14.5507 17.7392 14.5528 17.7616 14.5556L17.6932 14.5612L17.4096 14.5767L17.0585 14.5973L16.7937 14.6114C16.6718 14.6189 16.5476 14.6259 16.4248 14.6339C16.3573 14.6367 16.2879 14.6433 16.2199 14.6437C16.181 14.6447 16.1402 14.6372 16.1023 14.633L15.8524 14.603L15.6926 14.5837H15.6771C15.6746 14.6106 15.6716 14.6381 15.6682 14.6662L16.1641 14.738C16.2129 14.7441 16.2555 14.7633 16.3015 14.7778L17.6346 15.218C17.6434 15.2192 17.6517 15.223 17.6585 15.2287C17.6476 15.2269 17.6365 15.2253 17.6252 15.2241L16.4674 14.9827L16.1618 14.9189C16.152 14.9161 16.1388 14.9123 16.128 14.9072C15.9777 14.8475 15.8268 14.7872 15.6752 14.7262L15.6551 14.7192L15.6209 14.7956L15.6457 14.8073C15.7951 14.8708 15.944 14.9345 16.0924 14.9986C16.104 15.0036 16.1159 15.0102 16.128 15.0183L17.3759 15.8358C17.382 15.8405 17.3899 15.8461 17.3951 15.855C17.3885 15.8519 17.3824 15.8486 17.3768 15.8452L16.7266 15.5189C16.4995 15.4039 16.2712 15.2889 16.0418 15.1739C16.0271 15.1668 16.0134 15.1578 16.001 15.1472L15.6129 14.8575L15.5946 14.8444C15.5768 14.8659 15.5609 14.887 15.5421 14.9095L15.5599 14.9236C15.6855 15.0239 15.8135 15.1242 15.9396 15.2241C15.9539 15.2344 15.9669 15.2464 15.9785 15.2597L16.9718 16.3711C16.9762 16.3764 16.9794 16.3827 16.9812 16.3894C16.976 16.3837 16.969 16.38 16.9638 16.3758C16.591 16.043 16.2179 15.7105 15.8445 15.3783C15.836 15.3708 15.8284 15.3623 15.822 15.353L15.5182 14.9658C15.5138 14.9598 15.509 14.9539 15.5037 14.948C15.4821 14.9658 15.461 14.9817 15.4395 15.0005C15.4416 15.0064 15.4449 15.0122 15.4493 15.0178L15.7441 15.4106C15.7522 15.4223 15.7597 15.4344 15.7666 15.4467L16.4365 16.7784C16.4403 16.7844 16.4427 16.7911 16.4435 16.7981H16.4421V16.7944Z" fill="#010088"/>
<path fill-rule="evenodd" clip-rule="evenodd" d="M16.4375 16.7939L16.4488 16.808C16.4464 16.8089 16.4464 16.8104 16.4436 16.8108C16.4427 16.8043 16.4394 16.8 16.4384 16.7939H16.4375Z" fill="#010088"/>
</g>
<defs>
<clipPath id="clip0_1383_1753">
<rect width="30" height="30" fill="white"/>
</clipPath>
</defs>
</svg>
