<svg width="19" height="19" viewBox="0 0 19 19" fill="none" xmlns="http://www.w3.org/2000/svg">
<path d="M9.48203 11.0629C10.7938 11.0629 11.8527 10.004 11.8527 8.69218V3.95078C11.8527 2.63899 10.7938 1.58008 9.48203 1.58008C8.17024 1.58008 7.11133 2.63899 7.11133 3.95078V8.69218C7.11133 10.004 8.17024 11.0629 9.48203 11.0629Z" fill="black"/>
<path d="M13.434 8.69238C13.434 10.8734 11.6639 12.6436 9.48281 12.6436C7.30176 12.6436 5.53164 10.8734 5.53164 8.69238H3.95117C3.95117 11.4819 6.01368 13.7736 8.69257 14.1608V16.5947H10.273V14.1608C12.9519 13.7736 15.0144 11.4819 15.0144 8.69238H13.434Z" fill="black"/>
</svg>
