<svg width="30" height="30" viewBox="0 0 30 30" fill="none" xmlns="http://www.w3.org/2000/svg">
<g clip-path="url(#clip0_1383_1745)">
<path d="M27.3763 23.442L27.093 23.192C26.2894 22.4756 25.5858 21.6544 25.0013 20.7503C24.3625 19.5027 23.98 18.1398 23.8763 16.742V12.6253C23.8818 10.43 23.0855 8.30822 21.6369 6.65864C20.1884 5.00905 18.1873 3.94521 16.0096 3.66699V2.59199C16.0096 2.29694 15.8924 2.01397 15.6838 1.80534C15.4752 1.5967 15.1922 1.47949 14.8971 1.47949C14.6021 1.47949 14.3191 1.5967 14.1105 1.80534C13.9018 2.01397 13.7846 2.29694 13.7846 2.59199V3.68366C11.6265 3.98193 9.64961 5.05221 8.22008 6.69625C6.79054 8.34029 6.00524 10.4467 6.00964 12.6253V16.742C5.90593 18.1398 5.52341 19.5027 4.88464 20.7503C4.31037 21.6523 3.61813 22.4734 2.8263 23.192L2.54297 23.442V25.792H27.3763V23.442Z" fill="#15294B"/>
<path d="M12.7676 26.667C12.8407 27.1952 13.1024 27.6792 13.5045 28.0295C13.9066 28.3797 14.4218 28.5727 14.9551 28.5727C15.4883 28.5727 16.0036 28.3797 16.4057 28.0295C16.8078 27.6792 17.0695 27.1952 17.1426 26.667H12.7676Z" fill="black"/>
<circle cx="21.8477" cy="8.15234" r="7.5" fill="#FF3801"/>
<path d="M18.6739 8.5567C18.6739 7.03229 18.9294 5.84272 19.4405 4.988C19.9604 4.12446 20.8504 3.6927 22.1104 3.6927C23.3705 3.6927 24.256 4.12446 24.7671 4.988C25.287 5.84272 25.5469 7.03229 25.5469 8.5567C25.5469 10.0987 25.287 11.3059 24.7671 12.1783C24.256 13.0418 23.3705 13.4736 22.1104 13.4736C20.8504 13.4736 19.9604 13.0418 19.4405 12.1783C18.9294 11.3059 18.6739 10.0987 18.6739 8.5567ZM24.0666 8.5567C24.0666 7.84296 24.0181 7.23936 23.9212 6.74591C23.8331 6.25246 23.648 5.85154 23.3661 5.54313C23.0841 5.22591 22.6656 5.0673 22.1104 5.0673C21.5553 5.0673 21.1367 5.22591 20.8548 5.54313C20.5728 5.85154 20.3834 6.25246 20.2864 6.74591C20.1983 7.23936 20.1543 7.84296 20.1543 8.5567C20.1543 9.29687 20.1983 9.91809 20.2864 10.4203C20.3745 10.9226 20.5596 11.3279 20.8416 11.6363C21.1323 11.9448 21.5553 12.099 22.1104 12.099C22.6656 12.099 23.0841 11.9448 23.3661 11.6363C23.6569 11.3279 23.8463 10.9226 23.9344 10.4203C24.0225 9.91809 24.0666 9.29687 24.0666 8.5567Z" fill="white"/>
</g>
<defs>
<clipPath id="clip0_1383_1745">
<rect width="30" height="30" fill="white"/>
</clipPath>
</defs>
</svg>
