<svg width="390" height="8" viewBox="0 0 390 8" fill="none" xmlns="http://www.w3.org/2000/svg">
<g clip-path="url(#clip0_1383_1147)">
<path d="M0 4C0 1.79086 1.79086 0 4 0H386C388.209 0 390 1.79086 390 4C390 6.20914 388.209 8 386 8H4C1.79086 8 0 6.20914 0 4Z" fill="#030213" fill-opacity="0.2"/>
<rect width="390" height="8" transform="translate(-84.8359)" fill="#80CC28"/>
</g>
<defs>
<clipPath id="clip0_1383_1147">
<path d="M0 4C0 1.79086 1.79086 0 4 0H386C388.209 0 390 1.79086 390 4C390 6.20914 388.209 8 386 8H4C1.79086 8 0 6.20914 0 4Z" fill="white"/>
</clipPath>
</defs>
</svg>
