<svg width="38" height="38" viewBox="0 0 38 38" fill="none" xmlns="http://www.w3.org/2000/svg">
<path d="M31.1221 20.2314C31.9815 20.2314 32.6787 19.5343 32.6787 18.6748V6.22559C32.6787 4.98747 32.1861 3.80026 31.3105 2.9248C30.435 2.0495 29.2478 1.55762 28.0098 1.55762H9.33496C8.09699 1.55775 6.9096 2.04945 6.03418 2.9248C5.15878 3.80025 4.66606 4.98755 4.66602 6.22559V18.6748C4.66602 19.5341 5.36336 20.2313 6.22266 20.2314C7.08211 20.2314 7.7793 19.5343 7.7793 18.6748V6.22559C7.77934 5.81306 7.94267 5.41677 8.23438 5.125C8.5261 4.83335 8.92241 4.67005 9.33496 4.66992H28.0098C28.4224 4.66992 28.8185 4.83339 29.1104 5.125C29.4022 5.41679 29.5664 5.81298 29.5664 6.22559V18.6748C29.5664 19.5341 30.2628 20.2312 31.1221 20.2314ZM18.7295 35.791C18.7415 35.7906 18.7536 35.7898 18.7656 35.7891C18.8015 35.7869 18.8369 35.7838 18.8721 35.7793C18.8897 35.777 18.9072 35.7734 18.9248 35.7705C18.953 35.7659 18.9811 35.762 19.0088 35.7559C19.0295 35.7513 19.0497 35.7447 19.0703 35.7393C19.0988 35.7317 19.1274 35.7249 19.1553 35.7158C19.1691 35.7113 19.1826 35.706 19.1963 35.7012C19.2266 35.6903 19.2568 35.6796 19.2861 35.667C19.4631 35.5913 19.629 35.4813 19.7734 35.3369L25.998 29.1123C26.6058 28.5046 26.6057 27.5189 25.998 26.9111C25.3904 26.3038 24.4055 26.3038 23.7979 26.9111L20.2295 30.4795V14.0068C20.2295 13.1474 19.5322 12.4503 18.6729 12.4502C17.8134 12.4502 17.1162 13.1474 17.1162 14.0068V30.4795L13.5488 26.9111C12.9411 26.3035 11.9554 26.3035 11.3477 26.9111C10.7401 27.5189 10.74 28.5046 11.3477 29.1123L17.5723 35.3369C17.7685 35.5331 18.0171 35.6757 18.2949 35.7451C18.3093 35.7487 18.3235 35.7527 18.3379 35.7559C18.3758 35.7642 18.4142 35.7709 18.4531 35.7764C18.4596 35.7773 18.4661 35.7785 18.4727 35.7793C18.5078 35.7838 18.5433 35.7869 18.5791 35.7891C18.596 35.7901 18.6129 35.7905 18.6299 35.791C18.6441 35.7914 18.6585 35.793 18.6729 35.793C18.6918 35.793 18.7107 35.7917 18.7295 35.791Z" fill="black"/>
</svg>
