<svg width="38" height="10" viewBox="0 0 38 10" fill="none" xmlns="http://www.w3.org/2000/svg">
<path d="M4.68457 0C7.27188 0 9.36895 2.09733 9.36914 4.68457C9.36914 7.27198 7.272 9.37012 4.68457 9.37012C2.09715 9.3701 0 7.27197 0 4.68457C0.000190389 2.09734 2.09727 1.67371e-05 4.68457 0ZM18.7393 0C21.3266 0 23.4246 2.09733 23.4248 4.68457C23.4248 7.27198 21.3267 9.37012 18.7393 9.37012C16.152 9.36991 14.0547 7.27185 14.0547 4.68457C14.0549 2.09746 16.1521 0.000211807 18.7393 0ZM32.7939 0C35.3811 0.000163881 37.4783 2.09743 37.4785 4.68457C37.4785 7.27188 35.3812 9.36995 32.7939 9.37012C30.2065 9.37012 28.1084 7.27198 28.1084 4.68457C28.1086 2.09733 30.2066 0 32.7939 0Z" fill="#555555"/>
</svg>
