<svg width="40" height="40" viewBox="0 0 40 40" fill="none" xmlns="http://www.w3.org/2000/svg">
<path d="M0 20C0 8.95431 8.95431 0 20 0C31.0457 0 40 8.95431 40 20C40 31.0457 31.0457 40 20 40C8.95431 40 0 31.0457 0 20Z" fill="#ECECF0"/>
<path d="M14.348 14.848V23.088C14.348 24.0053 14.0653 24.7413 13.5 25.296C12.9347 25.84 12.188 26.112 11.26 26.112C10.3213 26.112 9.56933 25.8347 9.004 25.28C8.43867 24.7147 8.156 23.9467 8.156 22.976H9.612C9.62267 23.52 9.76133 23.9627 10.028 24.304C10.3053 24.6453 10.716 24.816 11.26 24.816C11.804 24.816 12.2093 24.656 12.476 24.336C12.7427 24.0053 12.876 23.5893 12.876 23.088V14.848H14.348ZM31.2324 14.848L28.0004 26H26.3684L23.7764 17.024L21.0884 26L19.4724 26.016L16.3524 14.848H17.9044L20.3364 24.304L23.0244 14.848H24.6564L27.2164 24.272L29.6644 14.848H31.2324Z" fill="#0A0A0A"/>
</svg>
