<svg width="54" height="54" viewBox="0 0 54 54" fill="none" xmlns="http://www.w3.org/2000/svg">
<path fill-rule="evenodd" clip-rule="evenodd" d="M26.9999 2.96658e-10C30.5456 -1.66202e-05 34.0566 0.698345 37.3324 2.05521C40.6082 3.41208 43.5847 5.40088 46.0919 7.90805C48.599 10.4152 50.5879 13.3917 51.9447 16.6675C53.3016 19.9433 54 23.4542 54 26.9999C54 41.9116 41.9116 54 26.9999 54C12.0884 54 0 41.9116 0 26.9999C0 12.0884 12.0884 2.96658e-10 26.9999 2.96658e-10ZM29.7 29.7H24.3C17.6156 29.7 11.8769 33.7484 9.40169 39.5273C13.318 45.019 19.7408 48.6 26.9999 48.6C34.2591 48.6 40.6818 45.019 44.5983 39.527C42.1231 33.7484 36.3844 29.7 29.7 29.7ZM26.9999 8.09999C22.5265 8.09999 18.8999 11.7265 18.8999 16.2C18.8999 20.6735 22.5265 24.3 26.9999 24.3C31.4734 24.3 35.0999 20.6735 35.0999 16.2C35.0999 11.7265 31.4735 8.09999 26.9999 8.09999Z" fill="#15294B"/>
</svg>
