<svg width="24" height="24" viewBox="0 0 24 24" fill="none" xmlns="http://www.w3.org/2000/svg">
<path opacity="0.5" d="M15 13.4996L19.276 15.6376C19.3522 15.6758 19.437 15.6938 19.5221 15.6901C19.6073 15.6863 19.6901 15.6608 19.7627 15.616C19.8352 15.5712 19.8951 15.5086 19.9367 15.4341C19.9782 15.3597 20 15.2758 20 15.1906V8.80858C20 8.72331 19.9782 8.63947 19.9367 8.565C19.8951 8.49054 19.8352 8.42794 19.7627 8.38315C19.6901 8.33836 19.6073 8.31286 19.5221 8.30908C19.437 8.30531 19.3522 8.32338 19.276 8.36158L15 10.4996V13.4996Z" fill="black"/>
<path fill-rule="evenodd" clip-rule="evenodd" d="M5.5 6.25C4.90326 6.25 4.33097 6.48705 3.90901 6.90901C3.48705 7.33097 3.25 7.90326 3.25 8.5V15.5C3.25 16.0967 3.48705 16.669 3.90901 17.091C4.33097 17.5129 4.90326 17.75 5.5 17.75H13.5C14.0967 17.75 14.669 17.5129 15.091 17.091C15.5129 16.669 15.75 16.0967 15.75 15.5V14.713L18.941 16.309C19.1316 16.4043 19.3433 16.4493 19.5562 16.4397C19.769 16.4301 19.9759 16.3663 20.1572 16.2543C20.3384 16.1423 20.488 15.9858 20.5918 15.7997C20.6955 15.6136 20.75 15.4041 20.75 15.191V8.809C20.75 8.59593 20.6955 8.38641 20.5918 8.20031C20.488 8.01422 20.3384 7.85774 20.1572 7.74572C19.9759 7.63371 19.769 7.56988 19.5562 7.56031C19.3433 7.55073 19.1316 7.59572 18.941 7.691L15.75 9.286V8.5C15.75 7.90326 15.5129 7.33097 15.091 6.90901C14.669 6.48705 14.0967 6.25 13.5 6.25H5.5ZM15.75 10.964V13.036L19.25 14.786V9.213L15.75 10.964ZM14.25 8.5C14.25 8.30109 14.171 8.11032 14.0303 7.96967C13.8897 7.82902 13.6989 7.75 13.5 7.75H5.5C5.30109 7.75 5.11032 7.82902 4.96967 7.96967C4.82902 8.11032 4.75 8.30109 4.75 8.5V15.5C4.75 15.914 5.086 16.25 5.5 16.25H13.5C13.6989 16.25 13.8897 16.171 14.0303 16.0303C14.171 15.8897 14.25 15.6989 14.25 15.5V8.5Z" fill="black"/>
</svg>
