<?xml version="1.0" encoding="UTF-8"?>
<svg version="1.1" xmlns="http://www.w3.org/2000/svg" width="1706" height="1741">
<path d="M0 0 C0.66 0 1.32 0 2 0 C3.32981093 1.49109234 4.5869873 3.04706714 5.8125 4.625 C9.57315624 9.33341451 13.50091577 13.79486525 17.625 18.1875 C18.75135854 19.38927001 19.87766227 20.59109138 21.00390625 21.79296875 C21.52742676 22.35161621 22.05094727 22.91026367 22.59033203 23.48583984 C26.4227412 27.60232783 30.05515431 31.88944343 33.69921875 36.171875 C39.53018213 43.01518479 45.45408334 49.73983217 51.5546875 56.34375 C55.71504527 60.86298847 59.72685535 65.50178609 63.70703125 70.1796875 C69.5344906 77.02119707 75.45656731 83.74252108 81.5546875 90.34375 C85.71504527 94.86298847 89.72685535 99.50178609 93.70703125 104.1796875 C99.5344906 111.02119707 105.45656731 117.74252108 111.5546875 124.34375 C115.71504527 128.86298847 119.72685535 133.50178609 123.70703125 138.1796875 C129.5344906 145.02119707 135.45656731 151.74252108 141.5546875 158.34375 C145.71504527 162.86298847 149.72685535 167.50178609 153.70703125 172.1796875 C159.5344906 179.02119707 165.45656731 185.74252108 171.5546875 192.34375 C175.71504527 196.86298847 179.72685535 201.50178609 183.70703125 206.1796875 C189.5344906 213.02119707 195.45656731 219.74252108 201.5546875 226.34375 C205.71504527 230.86298847 209.72685535 235.50178609 213.70703125 240.1796875 C218.61125518 245.93678512 223.53926215 251.64646124 228.6875 257.1875 C232.05583447 260.81283208 235.2792202 264.51232393 238.375 268.375 C242.98571639 274.10522487 247.97756638 279.43085078 253.00390625 284.79296875 C256.43089323 288.44989823 259.74187016 292.19214455 263 296 C264.02854197 297.19800585 265.05719934 298.39591262 266.0859375 299.59375 C269.06069832 303.05959211 272.0311819 306.52906652 275 310 C274.67 310.66 274.34 311.32 274 312 C252.82910246 303.34364329 231.65901725 294.68536319 210.5 286 C195.03434867 279.65169395 179.56297975 273.31745296 164.08789062 266.9921875 C151.63657605 261.90178534 139.19091855 256.7976491 126.74609375 251.69140625 C124.92216168 250.94307004 123.09822777 250.1947383 121.27429199 249.44641113 C116.84950685 247.6309923 112.42474649 245.81551306 108 244 C107.85016726 270.79950825 107.76906951 297.59846578 107.76940536 324.39841175 C107.76796535 336.84268764 107.74418275 349.28616624 107.66748047 361.73022461 C107.60066957 372.57877476 107.57610743 383.42646516 107.60190511 394.27520484 C107.6140954 400.01795134 107.60538393 405.75892349 107.5460434 411.50141335 C107.49079967 416.91212722 107.49225572 422.31992855 107.53630638 427.73071671 C107.54259976 429.71119898 107.52856718 431.69187191 107.49215889 433.6720295 C106.99358004 444.81758574 106.99358004 444.81758574 111.6016922 454.52503014 C114.47891594 457.37116459 117.70364146 459.65809077 121 462 C122.61579282 463.55019433 124.2059063 465.12837626 125.75 466.75 C128.35428864 469.39155932 130.98942704 471.90680128 133.8125 474.3125 C137.3889884 477.37500205 140.69389493 480.65280616 144 484 C147.24451281 487.28468632 150.4792241 490.50734049 154 493.5 C158.08874765 496.9754355 161.80816684 500.78100237 165.57592773 504.59545898 C168.9058233 507.95060894 172.33931399 511.09725452 175.94140625 514.16015625 C178.56498752 516.50495089 181.02989811 518.99630842 183.5 521.5 C186.53285146 524.5740377 189.5793933 527.57999179 192.875 530.375 C196.61543197 533.5612939 200.04804038 537.00879685 203.5 540.5 C207.50912579 544.5546517 211.55864504 548.43978152 215.91015625 552.12890625 C219.27496075 555.14150691 222.40545188 558.38572042 225.57836914 561.59790039 C228.30324079 564.34341827 231.05032325 566.99277476 234 569.5 C237.52077694 572.4926604 240.7554753 575.7153265 244 579 C247.22398087 582.26382615 250.43517847 585.46830141 253.9375 588.4375 C257.65957693 591.60009982 261.06866072 595.02970696 264.5 598.5 C267.91070324 601.94937883 271.29621484 605.36119902 275 608.5 C279.32418706 612.1645653 283.24082291 616.21520866 287.22265625 620.2421875 C290.06641577 623.10574117 292.91875084 625.8887719 296 628.5 C300.32418706 632.1645653 304.24082291 636.21520866 308.22265625 640.2421875 C311.06641577 643.10574117 313.91875084 645.8887719 317 648.5 C320.70378566 651.63880141 324.08929145 655.05062676 327.5 658.5 C330.89006118 661.92844828 334.25193982 665.3226072 337.9375 668.4375 C341.84269979 671.74572658 345.40280926 675.36513741 349 679 C354.34465194 684.41494868 354.34465194 684.41494868 360 689.5 C364.55937735 693.35188776 368.67246864 697.64812208 372.8671875 701.88671875 C375.82940843 704.86800977 378.78707598 707.78563316 382 710.5 C386.55937735 714.35188776 390.67246864 718.64812208 394.8671875 722.88671875 C398.39201601 726.43423929 401.98242342 729.79685094 405.8046875 733.0234375 C409.6627618 736.49707735 413.27041852 740.23169649 416.90234375 743.93945312 C420.44230339 747.53135348 424.07167834 750.83585034 428 754 C428.13462646 752.80346802 428.13462646 752.80346802 428.27197266 751.58276367 C435.9684815 684.55221003 458.75552262 621.40735037 502 569 C502.44649902 568.45053711 502.89299805 567.90107422 503.35302734 567.33496094 C510.75746596 558.26905134 518.87676813 549.91686995 527.125 541.625 C527.63002045 541.11471252 528.13504089 540.60442505 528.65536499 540.07867432 C535.42256832 533.25694218 542.46760715 526.97894972 550 521 C551.17393015 520.02355342 552.34501084 519.04365851 553.51171875 518.05859375 C569.89619745 504.43760834 588.03559049 492.69482858 607 483 C607.79374023 482.59088379 608.58748047 482.18176758 609.40527344 481.76025391 C647.30285833 462.42550877 687.75492136 453.29642913 730.10586548 452.53323364 C732.04879771 452.49547321 733.99172454 452.45743434 735.93464637 452.41914248 C741.2614143 452.31547715 746.58827188 452.21741336 751.91517159 452.12078366 C755.33669397 452.05840054 758.75818783 451.99462378 762.17967725 451.93046021 C819.95553833 450.84926363 877.73564714 450.04419545 935.51593503 449.24457674 C946.31400048 449.09510604 957.11204744 448.94434887 967.91008377 448.79278946 C968.69054027 448.78183616 969.47099676 448.77088287 970.27510346 448.75959766 C973.44604427 448.71509238 976.61698499 448.67058023 979.78792558 448.62605882 C1009.14955789 448.21381447 1038.51122942 447.80443312 1067.87292369 447.3966282 C1093.85687876 447.03572325 1119.84080511 446.67281707 1145.82470703 446.30810547 C1147.50661307 446.28449888 1149.18851911 446.2608923 1150.87042515 446.23728572 C1151.70202707 446.22561354 1152.53362898 446.21394137 1153.39043096 446.20191549 C1157.57821622 446.14313697 1161.76600152 446.0843607 1165.95378685 446.02558708 C1166.78034535 446.01398638 1167.60690386 446.00238567 1168.45850959 445.99043343 C1190.36810523 445.68295245 1212.27771833 445.37672138 1234.18733752 445.07092297 C1234.96616782 445.0600526 1235.74499812 445.04918223 1236.54742934 445.03798246 C1239.6773871 444.99429762 1242.80734486 444.9506133 1245.93730272 444.90693597 C1256.76507115 444.75583477 1267.59283395 444.60433653 1278.42059319 444.4525786 C1292.31475689 444.25785151 1306.20893233 444.06399668 1320.10312872 443.87161528 C1326.78541979 443.77907123 1333.46770449 443.68612015 1340.14997482 443.59208679 C1346.2716521 443.50595665 1352.3933446 443.42100486 1358.51505096 443.33696784 C1360.71952191 443.30650688 1362.92398719 443.2756312 1365.12844567 443.24428104 C1370.87975943 443.16261676 1376.63103298 443.08888301 1382.38262221 443.02953228 C1384.13415591 443.00976945 1385.88565359 442.98652145 1387.63709596 442.95986667 C1390.11828996 442.92238048 1392.59936946 442.89613757 1395.08072853 442.87248421 C1395.80212929 442.85891036 1396.52353004 442.84533651 1397.26679143 442.83135133 C1404.63048627 442.78640425 1409.82529141 444.92953787 1415.875 448.875 C1420.93078202 453.93078202 1423.13959725 458.6163635 1423.375 465.6875 C1423.32367854 471.75076345 1421.99468855 475.46756492 1418 480 C1412.04526074 485.64936802 1405.46802129 488.10477202 1397.35066223 488.14476013 C1396.44227852 488.15165359 1395.53389481 488.15854706 1394.59798431 488.16564941 C1393.11632656 488.16957703 1393.11632656 488.16957703 1391.60473633 488.17358398 C1390.55000877 488.18031631 1389.49528122 488.18704865 1388.40859222 488.19398499 C1386.10257461 488.20813166 1383.79654261 488.22006279 1381.49050331 488.23007011 C1377.76464099 488.24638891 1374.03885548 488.26866113 1370.31303406 488.29249573 C1365.64109053 488.32205358 1360.96914519 488.35045889 1356.29718238 488.3767361 C1341.46491238 488.46017082 1326.63281785 488.56601188 1311.80078125 488.68359375 C1311.08788956 488.68922065 1310.37499787 488.69484756 1309.64050341 488.70064497 C1280.92273289 488.92894417 1252.21219727 489.38346712 1223.5 490 C1222.50718143 490.02109203 1221.51436287 490.04218407 1220.49145889 490.06391525 C1213.85878932 490.20491129 1207.22622692 490.35021563 1200.59375 490.5 C1199.79748388 490.51792665 1199.00121777 490.53585331 1198.18082237 490.5543232 C1180.11875846 490.96557587 1162.05952632 491.49141259 1144 492 C1144.00211597 492.56487273 1144.00423194 493.12974546 1144.00641203 493.71173555 C1144.17599164 539.02516889 1144.33693361 584.3386308 1144.49095565 629.65211964 C1144.49996938 632.3034929 1144.50899748 634.95486611 1144.51802588 637.60623932 C1144.80626355 722.33344254 1145.05262662 807.06031931 1145.06315851 946.94106907 C1145.06249737 949.00823001 1145.0618549 951.07539095 1145.06121445 953.1425519 C1145.05057377 987.09504158 1145.03111088 1021.04752273 1145 1055 C1145.67996379 1055.0641916 1146.35992758 1055.1283832 1147.06049633 1055.19452 C1147.95602372 1055.28111346 1148.85155111 1055.36770693 1149.7742157 1055.45692444 C1150.66042949 1055.54174104 1151.54664328 1055.62655764 1152.45971203 1055.71394444 C1158.35068355 1056.37731221 1164.07541093 1057.98614056 1169.8125 1059.4375 C1170.50741547 1059.61228882 1171.20233093 1059.78707764 1171.91830444 1059.96716309 C1219.13318301 1071.93260972 1264.9819851 1092.94898775 1303.11230469 1123.49755859 C1304.95664967 1124.96549691 1306.82079462 1126.40289882 1308.6953125 1127.83203125 C1316.34344722 1133.68696806 1323.46160459 1139.94744939 1330.45947266 1146.56103516 C1331.95906969 1147.9617681 1333.47884778 1149.33504894 1335.01171875 1150.69921875 C1339.67072078 1154.84973488 1344.07191039 1158.9917732 1348.08203125 1163.7734375 C1350.02168369 1166.02517252 1352.05163972 1168.17441234 1354.1003418 1170.32666016 C1361.73512438 1178.39300051 1368.40767539 1187.07352007 1375 1196 C1375.44053711 1196.58861816 1375.88107422 1197.17723633 1376.33496094 1197.78369141 C1416.92267836 1252.07491217 1441.18443281 1320.17343565 1443 1388 C1443.03287109 1389.19761963 1443.03287109 1389.19761963 1443.06640625 1390.41943359 C1444.26896907 1442.98145005 1433.20043148 1495.75886218 1410 1543 C1409.52191895 1543.97533691 1409.04383789 1544.95067383 1408.55126953 1545.95556641 C1392.11970599 1579.1557246 1370.43707939 1608.37992117 1345.25 1635.4375 C1344.64857178 1636.08734863 1344.04714355 1636.73719727 1343.42749023 1637.40673828 C1339.75291048 1641.31778846 1335.91566439 1644.91771946 1331.84375 1648.41235352 C1329.46223827 1650.46306469 1327.17333529 1652.60685776 1324.875 1654.75 C1318.52058779 1660.52911563 1311.85391494 1665.82707268 1305 1671 C1304.32582031 1671.50934082 1303.65164063 1672.01868164 1302.95703125 1672.54345703 C1259.25656951 1705.32890049 1209.29484228 1726.9905007 1155.95898438 1738.2890625 C1153.03440213 1738.9094449 1153.03440213 1738.9094449 1150.52790469 1740.02835429 C1145.5296451 1741.40496106 1140.75623022 1741.27691377 1135.5945406 1741.25726891 C1134.43437712 1741.26077498 1133.27421364 1741.26428105 1132.07889369 1741.26789337 C1128.85296773 1741.27560446 1125.62718767 1741.27435115 1122.40126093 1741.26933783 C1118.89375111 1741.26607233 1115.38626549 1741.27435281 1111.87876338 1741.28115618 C1105.72938459 1741.29146809 1099.58003729 1741.29429791 1093.43065071 1741.29224396 C1084.28613632 1741.28919705 1075.14165684 1741.2975111 1065.99714923 1741.30799321 C1048.71505319 1741.32734934 1031.43296899 1741.33296204 1014.15086339 1741.33410732 C1000.80536873 1741.33502595 987.45987874 1741.33914024 974.1143856 1741.34550858 C970.27467988 1741.34730363 966.43497416 1741.34908326 962.59526843 1741.35085833 C961.16347226 1741.35152148 961.16347226 1741.35152148 959.70275093 1741.35219802 C932.84797347 1741.36450901 905.99319764 1741.37239889 879.13841724 1741.37151146 C877.61923858 1741.37146472 877.61923858 1741.37146472 876.06936943 1741.37141704 C870.93600572 1741.37125082 865.80264201 1741.37105274 860.6692783 1741.37084763 C859.64975184 1741.37080774 858.63022538 1741.37076785 857.57980418 1741.37072675 C855.51807215 1741.37064587 853.45634012 1741.37056228 851.39460809 1741.37047596 C819.31766005 1741.36925046 787.2407543 1741.38426241 755.16381836 1741.41162109 C719.13538286 1741.4423373 683.10697514 1741.45955385 647.07852572 1741.45769465 C643.23724822 1741.45754539 639.39597072 1741.45744797 635.55469322 1741.45738602 C634.6088558 1741.45736271 633.66301837 1741.4573394 632.68851921 1741.45731538 C617.46219851 1741.45725382 602.2359145 1741.47003 587.00960471 1741.48725055 C571.70809629 1741.50419826 556.40664159 1741.50618763 541.10512898 1741.4930319 C532.01358524 1741.48563687 522.92220458 1741.48931718 513.83067809 1741.50891658 C507.75668179 1741.52090492 501.68280376 1741.51833831 495.60881292 1741.50397559 C492.14866176 1741.49620281 488.68882644 1741.49468853 485.2286974 1741.51089029 C481.49706293 1741.52498267 477.76627081 1741.51444593 474.03466511 1741.49777794 C472.96630072 1741.5077143 471.89793632 1741.51765066 470.79719725 1741.52788812 C461.58101375 1741.44076146 452.34479983 1739.39355453 445.50390625 1732.81640625 C440.52749205 1726.80593196 438.09612187 1720.56271076 438.52734375 1712.734375 C439.91910804 1704.68284607 443.88503631 1699.41068876 450.23046875 1694.47265625 C459.77948107 1689.39511373 469.58562253 1689.5677321 480.10940552 1689.60127258 C481.84633187 1689.59582803 483.58325452 1689.58907435 485.32017124 1689.58113068 C490.07488065 1689.56314888 494.82943353 1689.5636571 499.58416891 1689.56726015 C504.71835432 1689.56788499 509.85248766 1689.55125465 514.98664856 1689.53674316 C523.8759004 1689.51396887 532.76511308 1689.50207406 541.65439224 1689.49761391 C554.50671401 1689.49114952 567.35896504 1689.468207 580.21125828 1689.44127061 C601.0643315 1689.39801208 621.91740174 1689.36803998 642.77050781 1689.34643555 C663.02475448 1689.32542307 683.27897677 1689.2981456 703.53320312 1689.26245117 C704.78212704 1689.26025235 706.03105095 1689.25805352 707.31782104 1689.25578807 C713.58344074 1689.24471835 719.84906021 1689.23352555 726.11467957 1689.22227156 C778.07643148 1689.12909968 830.03819721 1689.05749556 882 1689 C876.73829517 1683.71280062 871.47256346 1678.42963615 866.20410156 1673.14916992 C864.41477465 1671.35483496 862.62634889 1669.55960086 860.83886719 1667.76342773 C858.25956649 1665.17190627 855.67697077 1662.58370701 853.09375 1659.99609375 C852.30383667 1659.20101913 851.51392334 1658.40594452 850.70007324 1657.58677673 C846.49313546 1653.37942095 842.20990071 1649.3329578 837.68953037 1645.46312714 C835.35402314 1643.4405864 833.17279539 1641.2851545 830.99609375 1639.09375 C830.10156494 1638.19591797 829.20703613 1637.29808594 828.28540039 1636.37304688 C827.82150909 1635.90503662 827.3576178 1635.43702637 826.87966919 1634.95483398 C825.40068091 1633.46285757 823.91839498 1631.97422447 822.43530273 1630.48632812 C818.75552613 1626.79331846 815.08127373 1623.09482888 811.40686035 1619.39648438 C808.28954371 1616.25929696 805.17008912 1613.12426398 802.04788208 1609.99194336 C800.60134931 1608.53902092 799.15790833 1607.08307719 797.71459961 1605.62695312 C793.90208038 1601.80035543 790.1008118 1598.01837766 786 1594.5 C781.39568343 1590.54962984 777.14864984 1586.26171953 772.87966919 1581.95483398 C771.40068091 1580.46285757 769.91839498 1578.97422447 768.43530273 1577.48632812 C764.75552613 1573.79331846 761.08127373 1570.09482888 757.40686035 1566.39648438 C754.28954371 1563.25929696 751.17008912 1560.12426398 748.04788208 1556.99194336 C746.60134931 1555.53902092 745.15790833 1554.08307719 743.71459961 1552.62695312 C739.90208038 1548.80035543 736.1008118 1545.01837766 732 1541.5 C727.39568343 1537.54962984 723.14864984 1533.26171953 718.87966919 1528.95483398 C717.40068091 1527.46285757 715.91839498 1525.97422447 714.43530273 1524.48632812 C710.75552613 1520.79331846 707.08127373 1517.09482888 703.40686035 1513.39648438 C700.28954371 1510.25929696 697.17008912 1507.12426398 694.04788208 1503.99194336 C692.60134931 1502.53902092 691.15790833 1501.08307719 689.71459961 1499.62695312 C685.90208038 1495.80035543 682.1008118 1492.01837766 678 1488.5 C673.39568343 1484.54962984 669.14864984 1480.26171953 664.87966919 1475.95483398 C663.40068091 1474.46285757 661.91839498 1472.97422447 660.43530273 1471.48632812 C656.75552613 1467.79331846 653.08127373 1464.09482888 649.40686035 1460.39648438 C646.28954371 1457.25929696 643.17008912 1454.12426398 640.04788208 1450.99194336 C638.60134931 1449.53902092 637.15790833 1448.08307719 635.71459961 1446.62695312 C631.28727032 1442.18327506 626.80885918 1437.90792743 622.04931641 1433.82446289 C617.73412533 1429.98273988 613.72162794 1425.82087994 609.65625 1421.71875 C608.67823581 1420.73631622 607.69991749 1419.75418512 606.72131348 1418.77233887 C603.12501016 1415.16280682 599.53423404 1411.54779294 595.94329834 1407.93292236 C592.89644421 1404.8661925 589.84744874 1401.80162086 586.79570007 1398.73976135 C585.38241371 1397.32008843 583.97222889 1395.89733001 582.56213379 1394.4744873 C578.80478622 1390.70294735 575.05529216 1386.98119258 571.01367188 1383.51367188 C566.40546317 1379.55794778 562.15319718 1375.26630725 557.87966919 1370.95483398 C556.40068091 1369.46285757 554.91839498 1367.97422447 553.43530273 1366.48632812 C549.75552613 1362.79331846 546.08127373 1359.09482888 542.40686035 1355.39648438 C539.28954371 1352.25929696 536.17008912 1349.12426398 533.04788208 1345.99194336 C531.60134931 1344.53902092 530.15790833 1343.08307719 528.71459961 1341.62695312 C524.90208038 1337.80035543 521.1008118 1334.01837766 517 1330.5 C512.39568343 1326.54962984 508.14864984 1322.26171953 503.87966919 1317.95483398 C502.40068091 1316.46285757 500.91839498 1314.97422447 499.43530273 1313.48632812 C495.75552613 1309.79331846 492.08127373 1306.09482888 488.40686035 1302.39648438 C485.28954371 1299.25929696 482.17008912 1296.12426398 479.04788208 1292.99194336 C477.60134931 1291.53902092 476.15790833 1290.08307719 474.71459961 1288.62695312 C470.90208038 1284.80035543 467.1008118 1281.01837766 463 1277.5 C458.39568343 1273.54962984 454.14864984 1269.26171953 449.87966919 1264.95483398 C448.40068091 1263.46285757 446.91839498 1261.97422447 445.43530273 1260.48632812 C441.75552613 1256.79331846 438.08127373 1253.09482888 434.40686035 1249.39648438 C431.28954371 1246.25929696 428.17008912 1243.12426398 425.04788208 1239.99194336 C423.60134931 1238.53902092 422.15790833 1237.08307719 420.71459961 1235.62695312 C416.90208038 1231.80035543 413.1008118 1228.01837766 409 1224.5 C404.39568343 1220.54962984 400.14864984 1216.26171953 395.87966919 1211.95483398 C394.40068091 1210.46285757 392.91839498 1208.97422447 391.43530273 1207.48632812 C387.75552613 1203.79331846 384.08127373 1200.09482888 380.40686035 1196.39648438 C377.28954371 1193.25929696 374.17008912 1190.12426398 371.04788208 1186.99194336 C369.60134931 1185.53902092 368.15790833 1184.08307719 366.71459961 1182.62695312 C362.90208038 1178.80035543 359.1008118 1175.01837766 355 1171.5 C350.39568343 1167.54962984 346.14864984 1163.26171953 341.87966919 1158.95483398 C340.40068091 1157.46285757 338.91839498 1155.97422447 337.43530273 1154.48632812 C333.75552613 1150.79331846 330.08127373 1147.09482888 326.40686035 1143.39648438 C323.28954371 1140.25929696 320.17008912 1137.12426398 317.04788208 1133.99194336 C315.60134931 1132.53902092 314.15790833 1131.08307719 312.71459961 1129.62695312 C311.8200708 1128.72912109 310.92554199 1127.83128906 310.00390625 1126.90625 C309.22861572 1126.12572266 308.4533252 1125.34519531 307.65454102 1124.54101562 C304.21066564 1121.24442269 300.58781044 1118.13933414 297 1115 C284.79 1102.79 272.58 1090.58 260 1078 C259.505 1406.185 259.505 1406.185 259 1741 C136.9 1741 14.8 1741 -111 1741 C-111 1625.70941708 -111 1625.70941708 -110.76162691 1586.86645351 C-110.72441282 1580.68693403 -110.69073786 1574.5073947 -110.65649933 1568.32785815 C-110.59678269 1557.62830255 -110.53508774 1546.92876035 -110.47183037 1536.22922516 C-110.40433346 1524.81065562 -110.33817914 1513.39207934 -110.27348328 1501.97349358 C-110.26931417 1501.23779436 -110.26514507 1500.50209514 -110.26084962 1499.74410201 C-110.23957425 1495.98876146 -110.21831886 1492.2334208 -110.19707033 1488.47808011 C-110.04510439 1461.62784257 -109.89042807 1434.77762123 -109.7341938 1407.92740822 C-109.57937348 1381.31890403 -109.42575769 1354.71039332 -109.27366447 1328.1018734 C-109.26649912 1326.8484525 -109.26649912 1326.8484525 -109.25918901 1325.56970997 C-109.21552664 1317.93188864 -109.17187754 1310.29406723 -109.12824471 1302.65624573 C-109.01981289 1283.67564616 -108.91119648 1264.69504765 -108.80245113 1245.71444988 C-108.79750291 1244.8507561 -108.79255469 1243.98706232 -108.78745652 1243.09719601 C-108.54785602 1201.27873734 -108.3061145 1159.46029109 -108.06420898 1117.6418457 C-107.73518254 1060.7621966 -107.40745917 1003.88254023 -107.08158553 947.00287297 C-107.06616673 944.31159833 -107.05074733 941.62032369 -107.03532778 938.92904905 C-106.94830119 923.73960478 -106.86128476 908.55016045 -106.7742808 893.36071604 C-106.40283829 828.51362326 -106.03039031 763.66653623 -105.65757899 698.8194513 C-105.63848425 695.49809598 -105.61939057 692.17674066 -105.60029789 688.85538534 C-105.31969888 640.04266438 -105.03856686 591.22994653 -104.75610352 542.41723633 C-104.75187468 541.68638864 -104.74764584 540.95554095 -104.74328886 540.20254636 C-104.22844542 451.2263756 -103.70054505 362.25029527 -103 252 C-109.16902681 254.6038284 -115.33795286 257.2078954 -121.50681305 259.81211853 C-123.59989967 260.69569643 -125.69300829 261.57922222 -127.78614044 262.46269226 C-141.50369654 268.25265426 -155.2165598 274.05297701 -168.91168213 279.89584351 C-187.43731523 287.79873609 -205.98356982 295.65209209 -224.54492188 303.47070312 C-225.41256165 303.83648468 -226.28020142 304.20226624 -227.1741333 304.57913208 C-228.87812844 305.29724461 -230.58250679 306.01444861 -232.28729248 306.73068237 C-236.8396223 308.64762359 -241.37548022 310.59689751 -245.89746094 312.58447266 C-246.86457001 313.00706863 -247.83167908 313.42966461 -248.82809448 313.86506653 C-250.69502991 314.6822716 -252.55919656 315.5058386 -254.42019653 316.33647156 C-255.25332367 316.70021378 -256.08645081 317.06395599 -256.94482422 317.4387207 C-257.68127167 317.76491898 -258.41771912 318.09111725 -259.17648315 318.42720032 C-261 319 -261 319 -263 318 C-260.85314797 315.37606974 -258.70617551 312.75223936 -256.55859375 310.12890625 C-254.96445166 308.18077701 -253.37367631 306.23007475 -251.78515625 304.27734375 C-247.28019083 298.74593051 -242.70860407 293.27783667 -238.09082031 287.84082031 C-233.6594004 282.61552812 -229.32155158 277.31644115 -225 272 C-220.2202825 266.11991588 -215.40526403 260.27559389 -210.5 254.5 C-206.44999489 249.73078305 -202.45648144 244.92087884 -198.50390625 240.0703125 C-190.68971525 230.48848079 -182.83306826 220.94429692 -174.82592773 211.52294922 C-171.33583103 207.41143408 -167.91060741 203.25098691 -164.50390625 199.0703125 C-156.69334735 189.49293451 -148.84109042 179.95247043 -140.83691406 170.53613281 C-136.4882285 165.4137745 -132.23816241 160.21385447 -128 155 C-123.2202825 149.11991588 -118.40526403 143.27559389 -113.5 137.5 C-109.44999489 132.73078305 -105.45648144 127.92087884 -101.50390625 123.0703125 C-93.68971525 113.48848079 -85.83306826 103.94429692 -77.82592773 94.52294922 C-74.33583103 90.41143408 -70.91060741 86.25098691 -67.50390625 82.0703125 C-59.69334735 72.49293451 -51.84109042 62.95247043 -43.83691406 53.53613281 C-39.4882285 48.4137745 -35.23816241 43.21385447 -31 38 C-26.22028114 32.1199142 -21.40521062 26.27564088 -16.5 20.5 C-7.84650211 10.5563182 -7.84650211 10.5563182 0 0 Z M758 545 C757.34531738 545.3309668 756.69063477 545.66193359 756.01611328 546.00292969 C697.24062963 575.83928128 659.3583617 631.1967891 639.12353516 692.8046875 C617.70372328 760.22568351 621.95800333 825.81589411 654.47265625 888.8515625 C663.23468753 905.35914399 674.15832377 920.57711414 686 935 C686.42474609 935.52770996 686.84949219 936.05541992 687.28710938 936.59912109 C694.04880266 944.97963126 701.47548989 952.68150676 709.0625 960.3125 C709.97233643 961.23160156 710.88217285 962.15070313 711.81958008 963.09765625 C717.90712083 969.15728506 724.27784495 974.65945819 731 980 C732.27803866 981.04835145 733.55433479 982.09883435 734.828125 983.15234375 C748.05104774 993.965084 762.20355335 1002.88607536 776.859375 1011.62890625 C777.94943848 1012.2796814 777.94943848 1012.2796814 779.06152344 1012.94360352 C781.11372915 1014.13584888 781.11372915 1014.13584888 784 1015 C784.38248242 969.20335038 783.38323872 923.43015362 782.48341492 877.64492628 C782.32754504 869.70971152 782.17381374 861.77445772 782.02148247 853.83917427 C781.9995683 852.69762078 781.97765413 851.55606729 781.9550759 850.37992128 C781.91053979 848.05934921 781.86600954 845.73877703 781.82148509 843.41820473 C781.43086913 823.07014261 781.03527504 802.72218037 780.63696289 782.37426758 C780.25137648 762.67643415 779.87018279 742.97852154 779.4934082 723.28051758 C779.08081009 701.70988216 778.66571077 680.13929753 778.24635214 658.5687924 C778.20167746 656.27065475 778.15700451 653.97251707 778.1123333 651.67437935 C778.09036113 650.54416078 778.06838896 649.41394221 778.04575096 648.2494746 C777.89155531 640.30965753 777.7390998 632.36980814 777.58729744 624.42994499 C777.40269215 614.77768968 777.21523046 605.12549478 777.02414305 595.47336554 C776.92686456 590.55635467 776.8308255 585.63932817 776.73820877 580.7222271 C776.65335148 576.21910847 776.56483214 571.71607695 776.4734413 567.21308631 C776.44110148 565.5886411 776.41007274 563.96416911 776.38052178 562.33967077 C776.22544879 553.85745879 775.94619946 545.43946341 775 537 C770.0256889 537 762.45131338 542.73233114 758 545 Z M1145 1185 C1144.96735382 1234.80104589 1145.0428899 1284.60115536 1145.19354334 1334.40196577 C1145.22239932 1343.95565141 1145.24996884 1353.50934065 1145.27750319 1363.06303017 C1145.32658321 1380.08157339 1145.37659458 1397.10011373 1145.42724609 1414.11865234 C1145.47626305 1430.58870295 1145.52480746 1447.05875484 1145.57275391 1463.52880859 C1145.5757409 1464.55481551 1145.5787279 1465.58082242 1145.58180541 1466.63792045 C1145.59679688 1471.78831842 1145.61177946 1476.93871642 1145.62675762 1482.08911443 C1145.74979461 1524.39274704 1145.87436571 1566.69637503 1146 1609 C1147.28674448 1608.04417568 1148.57222916 1607.08665523 1149.85717773 1606.12841797 C1150.93116066 1605.32886185 1150.93116066 1605.32886185 1152.02684021 1604.51315308 C1157.65766025 1600.19505745 1162.37411324 1594.73237007 1166.9765625 1589.359375 C1168.51683186 1587.56338525 1170.07798346 1585.78528118 1171.6484375 1584.015625 C1184.99486315 1568.89027188 1195.99432358 1552.48837785 1206 1535 C1206.37463379 1534.35530762 1206.74926758 1533.71061523 1207.13525391 1533.04638672 C1242.19215793 1472.39185593 1249.92872109 1396.01904031 1232.15234375 1328.79443359 C1223.20220303 1296.54389946 1209.77147549 1265.74828426 1191 1238 C1190.57509277 1237.3694873 1190.15018555 1236.73897461 1189.71240234 1236.08935547 C1177.13443646 1217.58882776 1162.322644 1200.2987143 1146 1185 C1145.67 1185 1145.34 1185 1145 1185 Z " fill="#1A2949" transform="translate(263,0)"/>
<path d="M0 0 C2.481194 -0.03748619 4.96227351 -0.0637291 7.44363257 -0.08738247 C8.16503333 -0.10095631 8.88643408 -0.11453016 9.62969547 -0.12851534 C16.99339031 -0.17346242 22.18819545 1.9696712 28.23790404 5.91513333 C33.29368606 10.97091534 35.50250129 15.65649682 35.73790404 22.72763333 C35.68658259 28.79089677 34.35759259 32.50769824 30.36290404 37.04013333 C24.40816478 42.68950135 17.83092533 45.14490534 9.71356627 45.18489346 C8.80518256 45.19178692 7.89679885 45.19868039 6.96088836 45.20578274 C5.4792306 45.20971035 5.4792306 45.20971035 3.96764037 45.21371731 C2.91291282 45.22044964 1.85818526 45.22718197 0.77149627 45.23411831 C-1.53452135 45.24826499 -3.84055335 45.26019612 -6.14659265 45.27020344 C-9.87245497 45.28652224 -13.59824048 45.30879446 -17.3240619 45.33262905 C-21.99600542 45.36218691 -26.66795077 45.39059222 -31.33991358 45.41686943 C-46.17218358 45.50030415 -61.00427811 45.6061452 -75.83631471 45.72372708 C-76.90565224 45.73216743 -76.90565224 45.73216743 -77.99659255 45.7407783 C-106.71436307 45.96907749 -135.42489869 46.42360045 -164.13709596 47.04013333 C-165.12991452 47.06122536 -166.12273309 47.08231739 -167.14563707 47.10404858 C-173.77830663 47.24504461 -180.41086904 47.39034895 -187.04334596 47.54013333 C-187.83961208 47.55805998 -188.63587819 47.57598664 -189.45627359 47.59445652 C-207.5183375 48.00570919 -225.57756964 48.53154591 -243.63709596 49.04013333 C-243.633922 49.88744242 -243.633922 49.88744242 -243.63068393 50.75186887 C-243.46110431 96.06530221 -243.30016235 141.37876413 -243.14614031 186.69225296 C-243.13712658 189.34362622 -243.12809848 191.99499944 -243.11907008 194.64637265 C-242.83083241 279.37357587 -242.58446933 364.10045263 -242.57393745 503.98120239 C-242.57459859 506.04836333 -242.57524106 508.11552428 -242.57588151 510.18268523 C-242.58652219 544.13517491 -242.60598508 578.08765605 -242.63709596 612.04013333 C-241.95713217 612.10432493 -241.27716838 612.16851653 -240.57659963 612.23465332 C-239.68107224 612.32124679 -238.78554484 612.40784026 -237.86288026 612.49705777 C-236.97666647 612.58187436 -236.09045268 612.66669096 -235.17738393 612.75407776 C-229.28641241 613.41744554 -223.56168503 615.02627388 -217.82459596 616.47763333 C-217.12968049 616.65242215 -216.43476503 616.82721096 -215.71879151 617.00729641 C-168.50391295 628.97274305 -122.65511086 649.98912107 -84.52479127 680.53769192 C-82.68044628 682.00563023 -80.81630134 683.44303214 -78.94178346 684.87216458 C-71.29364874 690.72710138 -64.17549137 696.98758272 -57.1776233 703.60116848 C-55.67802627 705.00190143 -54.15824818 706.37518227 -52.62537721 707.73935208 C-47.96637518 711.88986821 -43.56518556 716.03190653 -39.55506471 720.81357083 C-37.61541226 723.06530584 -35.58545624 725.21454567 -33.53675416 727.36679348 C-25.90197157 735.43313384 -19.22942057 744.11365339 -12.63709596 753.04013333 C-11.97629029 753.92306057 -11.97629029 753.92306057 -11.30213502 754.82382473 C29.2855824 809.11504549 53.54733685 877.21356897 55.36290404 945.04013333 C55.3848181 945.83854641 55.40673217 946.6369595 55.42931029 947.45956692 C56.63187311 1000.02158338 45.56333552 1052.7989955 22.36290404 1100.04013333 C21.64578246 1101.5031387 21.64578246 1101.5031387 20.91417357 1102.99569973 C4.48261004 1136.19585793 -17.20001657 1165.4200545 -42.38709596 1192.47763333 C-42.98852418 1193.12748196 -43.5899524 1193.77733059 -44.20960572 1194.44687161 C-47.88418548 1198.35792179 -51.72143157 1201.95785278 -55.79334596 1205.45248684 C-58.17485769 1207.50319801 -60.46376066 1209.64699109 -62.76209596 1211.79013333 C-69.11650817 1217.56924896 -75.78318102 1222.86720601 -82.63709596 1228.04013333 C-83.64836549 1228.80414456 -83.64836549 1228.80414456 -84.68006471 1229.58359036 C-129.41947061 1263.14848199 -184.75155483 1289.58635349 -240.63709596 1297.04013333 C-242.47510207 1295.20212721 -241.81023002 1292.24163699 -241.84241822 1289.77524075 C-241.85230083 1289.11637057 -241.86218343 1288.45750039 -241.8723655 1287.77866444 C-241.90421103 1285.56768111 -241.92887986 1283.35667679 -241.95350221 1281.14560208 C-241.97439941 1279.58349892 -241.99567241 1278.02140075 -242.01729921 1276.45930752 C-242.08556955 1271.38216266 -242.1431525 1266.3049214 -242.19959596 1261.22763333 C-242.21929292 1259.49519091 -242.23900727 1257.76274869 -242.25873902 1256.03030667 C-242.33742929 1249.05415237 -242.41367788 1242.07798076 -242.4821277 1235.1017178 C-242.57264456 1225.88358372 -242.68138301 1216.66623766 -242.8211017 1207.44871792 C-242.88964558 1202.6260765 -242.93745665 1197.80342122 -242.97812989 1192.98047146 C-243.0006658 1190.78080117 -243.03177195 1188.58120101 -243.07169679 1186.38177761 C-243.12477774 1183.36393269 -243.14674518 1180.34743834 -243.16053346 1177.32919583 C-243.18315751 1176.46394787 -243.20578157 1175.59869992 -243.2290912 1174.70723233 C-243.21430936 1170.50083058 -242.93191894 1167.87964612 -240.2179065 1164.56332669 C-238.21450369 1162.6046503 -236.25609341 1160.72966372 -234.07459596 1158.97763333 C-212.87032764 1140.79120095 -196.35683854 1116.12605121 -182.63709596 1092.04013333 C-181.98483033 1090.91220364 -181.33256471 1089.78427395 -180.66053346 1088.62216458 C-145.89718644 1026.99937581 -138.5862366 950.32927223 -157.38709596 882.58310208 C-166.40039881 851.50218685 -179.48641315 821.87075228 -197.63709596 795.04013333 C-198.2744568 794.09436428 -198.2744568 794.09436428 -198.92469361 793.1294888 C-211.60520428 774.47813126 -226.60815199 757.84437247 -242.63709596 742.04013333 C-243.46854127 741.20482083 -244.29998658 740.36950833 -245.15662721 739.50888333 C-276.37159919 708.44138365 -317.24940122 686.87881474 -358.6986194 673.02475247 C-360.6229083 672.3799654 -362.53839822 671.70814477 -364.44276002 671.00668606 C-375.32533342 667.23819716 -386.62382909 666.26302497 -398.01209596 664.97763333 C-400.25062188 664.71754679 -402.48914727 664.45745558 -404.72767213 664.19735989 C-418.11598649 662.66442815 -431.51285246 661.31731573 -444.94959596 660.29013333 C-445.63696839 660.23719113 -446.32434083 660.18424893 -447.03254274 660.12970242 C-451.58582514 659.78671844 -456.14124905 659.50255673 -460.69922975 659.22989163 C-463.9573446 659.0194483 -467.21096132 658.76525912 -470.46619752 658.51425442 C-491.95872949 656.98974949 -513.42298452 656.90637823 -534.95740846 656.98544583 C-536.52814755 656.99075485 -538.09888667 656.9960598 -539.66962579 657.00136074 C-554.33031055 657.05299333 -568.99082784 657.13165186 -583.65125611 657.23202786 C-590.9574763 657.28187901 -598.26362304 657.31612827 -605.56998959 657.33514664 C-609.38980081 657.3458206 -613.20921143 657.36365757 -617.02885392 657.40192303 C-644.55294475 657.6718794 -672.11255208 655.88801377 -699.01209596 649.66513333 C-700.38394975 649.35894453 -701.75594274 649.05337885 -703.12806275 648.74838528 C-732.44851047 642.15224112 -760.66266852 632.31985145 -787.63709596 619.04013333 C-788.49657838 618.61732083 -789.3560608 618.19450833 -790.24158815 617.75888333 C-814.33988449 605.77061309 -836.43035403 590.27539487 -856.30506471 572.15341458 C-858.38744332 570.26636796 -860.5021266 568.429551 -862.63709596 566.60263333 C-870.21379383 559.99024246 -877.18925009 552.75005755 -883.63709596 545.04013333 C-884.07859986 544.52305813 -884.52010377 544.00598294 -884.97498658 543.4732388 C-917.01973961 505.85320272 -939.12322459 459.98085215 -950.63709596 412.04013333 C-950.88387086 411.03281155 -951.13064576 410.02548977 -951.38489869 408.98764309 C-954.30023717 396.79581261 -955.99728467 384.45819256 -957.63709596 372.04013333 C-957.82151246 370.65374661 -957.82151246 370.65374661 -958.00965455 369.23935208 C-968.46673581 286.8331751 -942.76348518 200.09533484 -892.47401002 134.49838528 C-890.238876 131.64242605 -887.94516976 128.83725425 -885.63709596 126.04013333 C-885.19059693 125.49067044 -884.74409791 124.94120755 -884.28406861 124.37509426 C-876.87963 115.30918466 -868.76032783 106.95700328 -860.51209596 98.66513333 C-860.00707551 98.15484585 -859.50205506 97.64455838 -858.98173097 97.11880764 C-852.21452764 90.29707551 -845.1694888 84.01908304 -837.63709596 78.04013333 C-836.4631658 77.06368675 -835.29208512 76.08379184 -834.12537721 75.09872708 C-817.74089851 61.47774167 -799.60150547 49.73496191 -780.63709596 40.04013333 C-779.84335572 39.63101712 -779.04961549 39.22190091 -778.23182252 38.80038723 C-740.33423763 19.4656421 -699.8821746 10.33656246 -657.53123048 9.57336697 C-655.58829825 9.53560653 -653.64537142 9.49756766 -651.70244959 9.45927581 C-646.37568166 9.35561047 -641.04882408 9.25754669 -635.72192436 9.16091698 C-632.30040199 9.09853387 -628.87890813 9.03475711 -625.45741871 8.97059354 C-567.68155763 7.88939695 -509.90144882 7.08432878 -452.12116093 6.28471007 C-441.32309548 6.13523937 -430.52504852 5.9844822 -419.72701219 5.83292279 C-418.55632744 5.81649284 -418.55632744 5.81649284 -417.3619925 5.79973098 C-414.19105168 5.7552257 -411.02011096 5.71071356 -407.84917038 5.66619215 C-378.48753807 5.25394779 -349.12586654 4.84456644 -319.76417227 4.43676152 C-293.7802172 4.07585657 -267.79629085 3.7129504 -241.81238893 3.3482388 C-240.13048289 3.32463221 -238.44857685 3.30102562 -236.76667081 3.27741905 C-235.51926793 3.25991078 -235.51926793 3.25991078 -234.246665 3.24204882 C-230.05887974 3.18327029 -225.87109444 3.12449403 -221.68330911 3.06572041 C-220.8567506 3.0541197 -220.0301921 3.042519 -219.17858637 3.03056676 C-197.26899073 2.72308577 -175.35937763 2.41685471 -153.44975844 2.1110563 C-152.67092814 2.10018593 -151.89209784 2.08931556 -151.08966662 2.07811579 C-147.95970886 2.03443095 -144.8297511 1.99074662 -141.69979324 1.9470693 C-130.87202481 1.79596809 -120.04426201 1.64446985 -109.21650277 1.49271193 C-95.32233907 1.29798483 -81.42816363 1.10413001 -67.53396724 0.9117486 C-60.85167617 0.81920456 -54.16939147 0.72625348 -47.48712113 0.63222012 C-41.36544385 0.54608997 -35.24375136 0.46113819 -29.122045 0.37710117 C-26.91757404 0.3466402 -24.71310877 0.31576452 -22.50865029 0.28441437 C-16.75733653 0.20275008 -11.00606297 0.12901633 -5.25447375 0.06966561 C-3.50294005 0.04990278 -1.75144237 0.02665478 0 0 Z M-629.63709596 102.04013333 C-630.29177858 102.37110012 -630.94646119 102.70206692 -631.62098268 103.04306301 C-690.39646633 132.87941461 -728.27873426 188.23692242 -748.5135608 249.84482083 C-769.93337268 317.26581684 -765.67909263 382.85602744 -733.16443971 445.89169583 C-724.40240842 462.39927732 -713.47877218 477.61724747 -701.63709596 492.04013333 C-701.21234986 492.56784329 -700.78760377 493.09555325 -700.34998658 493.63925442 C-693.5882933 502.01976459 -686.16160607 509.72164008 -678.57459596 517.35263333 C-677.66475953 518.27173489 -676.75492311 519.19083645 -675.81751588 520.13778958 C-669.72997513 526.19741838 -663.359251 531.69959152 -656.63709596 537.04013333 C-655.3590573 538.08848478 -654.08276117 539.13896767 -652.80897096 540.19247708 C-639.58604822 551.00521733 -625.43354261 559.92620868 -610.77772096 568.66903958 C-609.68765748 569.31981472 -609.68765748 569.31981472 -608.57557252 569.98373684 C-606.52336681 571.17598221 -606.52336681 571.17598221 -603.63709596 572.04013333 C-603.25461354 526.24348371 -604.25385724 480.47028695 -605.15368104 434.6850596 C-605.30955092 426.74984485 -605.46328221 418.81459105 -605.61561349 410.8793076 C-605.63752766 409.73775411 -605.65944182 408.59620062 -605.68202006 407.4200546 C-605.72655617 405.09948253 -605.77108642 402.77891035 -605.81561086 400.45833806 C-606.20622683 380.11027593 -606.60182092 359.76231369 -607.00013307 339.41440091 C-607.38571947 319.71656748 -607.76691317 300.01865486 -608.14368775 280.32065091 C-608.55628586 258.75001549 -608.97138518 237.17943086 -609.39074382 215.60892573 C-609.4354185 213.31078808 -609.48009145 211.01265039 -609.52476266 208.71451268 C-609.54673483 207.58429411 -609.568707 206.45407554 -609.59134499 205.28960792 C-609.74554065 197.34979085 -609.89799616 189.40994147 -610.04979852 181.47007832 C-610.23440381 171.81782301 -610.4218655 162.1656281 -610.61295291 152.51349887 C-610.7102314 147.596488 -610.80627046 142.6794615 -610.89888719 137.76236042 C-610.98374448 133.25924179 -611.07226382 128.75621028 -611.16365466 124.25321964 C-611.19599448 122.62877443 -611.22702322 121.00430244 -611.25657418 119.3798041 C-611.41164717 110.89759211 -611.6908965 102.47959673 -612.63709596 94.04013333 C-617.61140706 94.04013333 -625.18578258 99.77246447 -629.63709596 102.04013333 Z " fill="#6A8AAC" transform="translate(1650.6370959579945,442.9598666727543)"/>
<path d="M0 0 C2.48417699 -0.03753738 4.96823763 -0.06385632 7.45258002 -0.08752449 C8.53229159 -0.10784733 8.53229159 -0.10784733 9.63381551 -0.12858074 C16.98658124 -0.17322217 22.1798717 1.97596588 28.22035556 5.91541187 C33.27613757 10.97119389 35.4849528 15.65677537 35.72035556 22.72791187 C35.6690341 28.79117532 34.3400441 32.50797679 30.34535556 37.04041187 C24.39061629 42.68977989 17.81337685 45.14518389 9.69601779 45.18517201 C8.78763407 45.19206547 7.87925036 45.19895893 6.94333987 45.20606129 C5.46168212 45.2099889 5.46168212 45.2099889 3.95009188 45.21399586 C2.89536433 45.22072819 1.84063677 45.22746052 0.75394778 45.23439686 C-1.55206984 45.24854354 -3.85810184 45.26047466 -6.16414113 45.27048199 C-9.89000346 45.28680079 -13.61578897 45.30907301 -17.34161039 45.3329076 C-22.01355391 45.36246546 -26.68549925 45.39087076 -31.35746206 45.41714798 C-46.18973207 45.50058269 -61.0218266 45.60642375 -75.85386319 45.72400562 C-76.92320073 45.73244598 -76.92320073 45.73244598 -78.01414104 45.74105684 C-106.73191156 45.96935604 -135.44244717 46.423879 -164.15464444 47.04041187 C-165.14746301 47.06150391 -166.14028158 47.08259594 -167.16318555 47.10432713 C-173.79585512 47.24532316 -180.42841753 47.3906275 -187.06089444 47.54041187 C-187.85716056 47.55833853 -188.65342668 47.57626518 -189.47382207 47.59473507 C-207.53588599 48.00598774 -225.59511813 48.53182446 -243.65464444 49.04041187 C-243.65147049 49.88772097 -243.65147049 49.88772097 -243.64823242 50.75214742 C-243.4786528 96.06558076 -243.31771084 141.37904268 -243.16368879 186.69253151 C-243.15467507 189.34390477 -243.14564697 191.99527798 -243.13661857 194.64665119 C-242.84838089 279.37385442 -242.60201782 364.10073118 -242.59148593 503.98148094 C-242.59214708 506.04864188 -242.59278954 508.11580283 -242.59343 510.18296377 C-242.60407068 544.13545345 -242.62353356 578.0879346 -242.65464444 612.04041187 C-259.42579353 611.66814871 -276.19690715 611.29432891 -292.96798272 610.91876976 C-300.75911024 610.74433538 -308.55024758 610.57036727 -316.34141202 610.39758961 C-323.1504109 610.24659127 -329.95938743 610.09462376 -336.76834108 609.94159923 C-340.35704462 609.8609777 -343.94575605 609.78076839 -347.53449483 609.7017297 C-364.13795981 609.33571757 -380.73822765 608.9121692 -397.33728357 608.38236229 C-409.05944757 608.01204989 -420.78186918 607.78502087 -432.50816007 607.59567921 C-439.44444301 607.48069671 -446.38037273 607.34577192 -453.31635709 607.21419422 C-458.05355732 607.12473037 -462.79068818 607.03637556 -467.5281796 606.96375172 C-506.42300427 606.35578912 -573.77569804 601.91935827 -603.65464444 572.04041187 C-603.89489489 569.51963339 -604.00978637 567.10220665 -604.04129644 564.57642357 C-604.05879949 563.79373448 -604.07630254 563.01104538 -604.09433599 562.20463844 C-604.15118017 559.55401524 -604.19391019 556.90334598 -604.23682828 554.25246327 C-604.27484102 552.34368125 -604.31371334 550.43491618 -604.35337622 548.52616774 C-604.46031698 543.25842103 -604.55494893 537.99051241 -604.64766259 532.7224987 C-604.74964138 527.04834388 -604.86288104 521.37441277 -604.97475858 515.70044605 C-605.19245774 504.56913421 -605.3997132 493.43765075 -605.6035969 482.30607825 C-605.84168497 469.33048654 -606.09039584 456.35510508 -606.33965731 443.379724 C-606.7845629 420.20288151 -607.22033585 397.02587735 -607.65073819 373.84876148 C-608.06769309 351.39617326 -608.49014714 328.94369822 -608.91929288 306.49133961 C-608.93247633 305.80152126 -608.94565978 305.11170291 -608.95924273 304.40098098 C-609.02565364 300.92610861 -609.0920734 297.45123641 -609.1584957 293.97636427 C-609.17160577 293.29050407 -609.18471584 292.60464388 -609.19822319 291.89800004 C-609.22466269 290.51485383 -609.25110412 289.13170766 -609.27754747 287.74856153 C-609.7003731 265.63072914 -610.11891391 243.51281563 -610.53648045 221.39488337 C-610.65845699 214.93427465 -610.78059989 208.47366917 -610.90314575 202.01307122 C-611.16099789 188.41697018 -611.41737083 174.82084429 -611.66919896 161.22463017 C-611.77329919 155.60518296 -611.87812927 149.98575239 -611.98518224 144.36636059 C-612.3896349 123.10567504 -612.76806881 101.85658567 -612.66010733 80.59130763 C-612.64562824 73.83029259 -612.76524085 67.06989296 -612.87339444 60.30994312 C-612.89599036 58.80153815 -612.91840588 57.29313047 -612.94065519 55.78472035 C-612.99807073 51.92334844 -613.05783835 48.06201692 -613.11820646 44.20069019 C-613.19101509 39.50947289 -613.26070718 34.81820824 -613.33095975 30.1269521 C-613.40264218 25.35517309 -613.4759698 20.58342079 -613.54983182 15.811675 C-613.56947586 14.54234293 -613.5891199 13.27301086 -613.60935922 11.96521418 C-613.62430334 11.00002942 -613.63924747 10.03484466 -613.65464444 9.04041187 C-582.42970845 8.18628994 -551.20365106 7.67819227 -519.97031267 7.24800234 C-513.75789002 7.162223 -507.5455021 7.07397555 -501.3331098 6.98603099 C-487.8849434 6.79573155 -474.43674494 6.60778592 -460.98853108 6.42087404 C-449.23295081 6.25747586 -437.47738325 6.09319474 -425.72182699 5.92807858 C-424.54464634 5.91154553 -424.54464634 5.91154553 -423.34368428 5.89467847 C-420.15691052 5.84991966 -416.97013683 5.80515603 -413.78336324 5.76038569 C-384.01573601 5.3421936 -354.2480768 4.92632176 -324.48040074 4.51162229 C-298.08378757 4.14387414 -271.68719873 3.77442742 -245.29063077 3.40344898 C-243.59200597 3.37957699 -241.89338116 3.35570503 -240.19475635 3.3318331 C-239.35494592 3.32003063 -238.5151355 3.30822816 -237.64987627 3.29606804 C-233.42159237 3.23664562 -229.19330842 3.17722654 -224.96502443 3.11781113 C-224.13067575 3.10608677 -223.29632707 3.09436241 -222.43669509 3.08228277 C-200.30098924 2.77125057 -178.16526642 2.46143057 -156.02953805 2.15200518 C-154.84799894 2.13548862 -154.84799894 2.13548862 -153.64259035 2.11863839 C-152.85641575 2.10764859 -152.07024115 2.09665879 -151.26024308 2.08533597 C-150.47559387 2.07436746 -149.69094466 2.06339894 -148.8825182 2.05209804 C-147.30251227 2.03001181 -145.72250633 2.0079266 -144.14250038 1.98584243 C-133.16083338 1.83234087 -122.17917264 1.6783988 -111.19751602 1.52415658 C-97.05864086 1.32557329 -82.91975433 1.12783163 -68.78084715 0.93154035 C-61.97140214 0.83698325 -55.16196356 0.74201271 -48.35253949 0.64595692 C-42.11177185 0.55793613 -35.87098892 0.47109437 -29.63019211 0.385167 C-27.38144263 0.35400483 -25.13269888 0.32242605 -22.88396194 0.29037169 C-17.02417153 0.20696947 -11.16441944 0.1314315 -5.30435076 0.07045731 C-3.53619154 0.05040788 -1.76806804 0.02691545 0 0 Z " fill="#1A2949" transform="translate(1650.6546444445848,442.9595881253481)"/>
<path d="M0 0 C1.10533923 0.93233485 2.20850279 1.86724938 3.31077576 2.8032074 C3.92533851 3.32355277 4.53990126 3.84389814 5.17308712 4.38001156 C8.04735414 6.92872606 10.58588513 9.75167103 13.16015625 12.59765625 C18.91789892 18.8599472 24.84461025 24.9298998 30.87109375 30.93359375 C32.16015121 32.21781723 32.16015121 32.21781723 33.47525024 33.52798462 C36.12744251 36.16640102 38.78203124 38.80238151 41.4375 41.4375 C44.98083632 44.95405807 48.52070103 48.47406006 52.05859375 51.99609375 C52.85349716 52.78269882 53.64840057 53.56930389 54.46739197 54.37974548 C57.91244624 57.80972947 61.27484777 61.25550615 64.44360352 64.94360352 C68.66337733 69.84475028 73.25126248 74.35694742 77.84375 78.90625 C79.2619165 80.31862932 80.68008007 81.73101161 82.09807587 83.14356232 C84.56323132 85.59787501 87.03170509 88.04884533 89.5 90.5 C92.44985631 93.42937203 95.39907839 96.35936285 98.34436035 99.29333496 C100.17068429 101.11220613 101.99925361 102.92882652 103.83044434 104.74279785 C108.12298712 109.01841567 112.23194772 113.36034127 116.17932129 117.95446777 C119.88281384 122.11534104 123.88781473 125.98751392 127.84375 129.90625 C129.2619165 131.31862932 130.68008007 132.73101161 132.09807587 134.14356232 C134.56323132 136.59787501 137.03170509 139.04884533 139.5 141.5 C142.44985631 144.42937203 145.39907839 147.35936285 148.34436035 150.29333496 C150.17068429 152.11220613 151.99925361 153.92882652 153.83044434 155.74279785 C157.50092041 159.39880169 161.11023086 163.05510077 164.48632812 166.98632812 C168.75488284 171.95415766 173.41218508 176.51735612 178.0625 181.125 C179.02251375 182.0805937 179.98222453 183.03649184 180.94165039 183.99267578 C183.95826369 186.9979755 186.97881596 189.99929612 190 193 C193.50670151 196.48293011 197.01167466 199.96756502 200.51242065 203.45648193 C201.8988534 204.83653133 203.28837298 206.21347744 204.67797852 207.59033203 C209.02382101 211.91943934 213.19155416 216.30972944 217.18701172 220.9621582 C220.88708614 225.12112955 224.89045198 228.99012637 228.84375 232.90625 C230.2619165 234.31862932 231.68008007 235.73101161 233.09807587 237.14356232 C235.56323132 239.59787501 238.03170509 242.04884533 240.5 244.5 C243.44985631 247.42937203 246.39907839 250.35936285 249.34436035 253.29333496 C251.17068429 255.11220613 252.99925361 256.92882652 254.83044434 258.74279785 C259.12298712 263.01841567 263.23194772 267.36034127 267.17932129 271.95446777 C270.88281384 276.11534104 274.88781473 279.98751392 278.84375 283.90625 C280.2619165 285.31862932 281.68008007 286.73101161 283.09807587 288.14356232 C285.56323132 290.59787501 288.03170509 293.04884533 290.5 295.5 C293.44985631 298.42937203 296.39907839 301.35936285 299.34436035 304.29333496 C301.17068429 306.11220613 302.99925361 307.92882652 304.83044434 309.74279785 C309.12298712 314.01841567 313.23194772 318.36034127 317.17932129 322.95446777 C320.88281384 327.11534104 324.88781473 330.98751392 328.84375 334.90625 C330.2619165 336.31862932 331.68008007 337.73101161 333.09807587 339.14356232 C335.56323132 341.59787501 338.03170509 344.04884533 340.5 346.5 C343.44985631 349.42937203 346.39907839 352.35936285 349.34436035 355.29333496 C351.17068429 357.11220613 352.99925361 358.92882652 354.83044434 360.74279785 C359.12298712 365.01841567 363.23194772 369.36034127 367.17932129 373.95446777 C370.88281384 378.11534104 374.88781473 381.98751392 378.84375 385.90625 C380.2619165 387.31862932 381.68008007 388.73101161 383.09807587 390.14356232 C385.56323132 392.59787501 388.03170509 395.04884533 390.5 397.5 C393.44985631 400.42937203 396.39907839 403.35936285 399.34436035 406.29333496 C401.17068429 408.11220613 402.99925361 409.92882652 404.83044434 411.74279785 C409.12298712 416.01841567 413.23194772 420.36034127 417.17932129 424.95446777 C420.88281384 429.11534104 424.88781473 432.98751392 428.84375 436.90625 C430.2619165 438.31862932 431.68008007 439.73101161 433.09807587 441.14356232 C435.56323132 443.59787501 438.03170509 446.04884533 440.5 448.5 C443.44985631 451.42937203 446.39907839 454.35936285 449.34436035 457.29333496 C451.17068429 459.11220613 452.99925361 460.92882652 454.83044434 462.74279785 C459.12298712 467.01841567 463.23194772 471.36034127 467.17932129 475.95446777 C470.88281384 480.11534104 474.88781473 483.98751392 478.84375 487.90625 C480.2619165 489.31862932 481.68008007 490.73101161 483.09807587 492.14356232 C485.56323132 494.59787501 488.03170509 497.04884533 490.5 499.5 C493.44985631 502.42937203 496.39907839 505.35936285 499.34436035 508.29333496 C501.17068429 510.11220613 502.99925361 511.92882652 504.83044434 513.74279785 C508.50092041 517.39880169 512.11023086 521.05510077 515.48632812 524.98632812 C519.75488284 529.95415766 524.41218508 534.51735612 529.0625 539.125 C530.02251375 540.0805937 530.98222453 541.03649184 531.94165039 541.99267578 C534.95826369 544.9979755 537.97881596 547.99929612 541 551 C544.50670151 554.48293011 548.01167466 557.96756502 551.51242065 561.45648193 C552.8988534 562.83653133 554.28837298 564.21347744 555.67797852 565.59033203 C560.02382101 569.91943934 564.19155416 574.30972944 568.18701172 578.9621582 C571.88708614 583.12112955 575.89045198 586.99012637 579.84375 590.90625 C581.2619165 592.31862932 582.68008007 593.73101161 584.09807587 595.14356232 C586.56323132 597.59787501 589.03170509 600.04884533 591.5 602.5 C594.44985631 605.42937203 597.39907839 608.35936285 600.34436035 611.29333496 C602.17068429 613.11220613 603.99925361 614.92882652 605.83044434 616.74279785 C610.12298712 621.01841567 614.23194772 625.36034127 618.17932129 629.95446777 C621.88281384 634.11534104 625.88781473 637.98751392 629.84375 641.90625 C631.2619165 643.31862932 632.68008007 644.73101161 634.09807587 646.14356232 C636.56323132 648.59787501 639.03170509 651.04884533 641.5 653.5 C644.44985631 656.42937203 647.39907839 659.35936285 650.34436035 662.29333496 C652.17068429 664.11220613 653.99925361 665.92882652 655.83044434 667.74279785 C660.12298712 672.01841567 664.23194772 676.36034127 668.17932129 680.95446777 C671.88281384 685.11534104 675.88781473 688.98751392 679.84375 692.90625 C681.2619165 694.31862932 682.68008007 695.73101161 684.09807587 697.14356232 C686.56323132 699.59787501 689.03170509 702.04884533 691.5 704.5 C694.44985631 707.42937203 697.39907839 710.35936285 700.34436035 713.29333496 C702.17068429 715.11220613 703.99925361 716.92882652 705.83044434 718.74279785 C710.12298712 723.01841567 714.23194772 727.36034127 718.17932129 731.95446777 C721.88281384 736.11534104 725.88781473 739.98751392 729.84375 743.90625 C731.2619165 745.31862932 732.68008007 746.73101161 734.09807587 748.14356232 C736.56323132 750.59787501 739.03170509 753.04884533 741.5 755.5 C744.44985631 758.42937203 747.39907839 761.35936285 750.34436035 764.29333496 C752.17068429 766.11220613 753.99925361 767.92882652 755.83044434 769.74279785 C760.12298712 774.01841567 764.23194772 778.36034127 768.17932129 782.95446777 C771.88281384 787.11534104 775.88781473 790.98751392 779.84375 794.90625 C781.2619165 796.31862932 782.68008007 797.73101161 784.09807587 799.14356232 C786.56323132 801.59787501 789.03170509 804.04884533 791.5 806.5 C794.44985631 809.42937203 797.39907839 812.35936285 800.34436035 815.29333496 C802.17068429 817.11220613 803.99925361 818.92882652 805.83044434 820.74279785 C810.1408095 825.03616778 814.32240959 829.35051544 818.19325256 834.0471344 C819.98431949 836.10094501 819.98431949 836.10094501 822.3993988 837.79649353 C826.54279317 841.06546637 829.07547286 843.84586419 829.77713013 849.15042114 C830.15813733 854.40537968 830.01323486 859.64798439 829.87890625 864.91015625 C829.86209962 866.84782442 829.84929816 868.7855311 829.84031677 870.72325134 C829.80611334 875.79921896 829.71785033 880.87283236 829.61798096 885.94787598 C829.52556195 891.13615069 829.48473424 896.32480956 829.43945312 901.51367188 C829.34321437 911.6768101 829.18980997 921.83820855 829 932 C827.90062509 931.06684879 826.80258136 930.13212916 825.70507812 929.19677734 C825.09345825 928.67642914 824.48183838 928.15608093 823.85168457 927.6199646 C820.94459143 925.07666535 818.22027797 922.36513401 815.5 919.625 C814.97019531 919.0990625 814.44039062 918.573125 813.89453125 918.03125 C811.18709104 915.31725425 808.60173613 912.55397558 806.12890625 909.62451172 C801.20431348 903.97756036 795.86049337 898.74935871 790.54728699 893.47212219 C788.61848237 891.55623531 786.69295397 889.63710727 784.76818848 887.71716309 C780.68161159 883.64194028 776.59110853 879.57067282 772.5 875.5 C767.75424102 870.7779468 763.01016336 866.05422931 758.27030945 861.32624817 C756.38527224 859.44763083 754.49721902 857.57208252 752.60900879 855.69665527 C747.52821761 850.63734451 742.55217018 845.58361738 737.89904785 840.12390137 C733.71528855 835.44477119 729.1850125 831.07915975 724.73248291 826.65731812 C722.83728107 824.77503824 720.94535947 822.88951382 719.05419922 821.00317383 C715.03895296 816.99927961 711.01977987 812.99934194 707 809 C702.33684539 804.36055446 697.67537445 799.71944259 693.01812744 795.07406616 C691.16632966 793.22868641 689.31151551 791.38637706 687.45654297 789.54418945 C678.13511514 780.26287282 678.13511514 780.26287282 674.51367188 776.01367188 C669.84118114 770.5343944 664.65280886 765.54308021 659.54728699 760.47212219 C657.61848237 758.55623531 655.69295397 756.63710727 653.76818848 754.71716309 C649.68161159 750.64194028 645.59110853 746.57067282 641.5 742.5 C636.75424102 737.7779468 632.01016336 733.05422931 627.27030945 728.32624817 C625.38527224 726.44763083 623.49721902 724.57208252 621.60900879 722.69665527 C616.52821761 717.63734451 611.55217018 712.58361738 606.89904785 707.12390137 C602.71528855 702.44477119 598.1850125 698.07915975 593.73248291 693.65731812 C591.83728107 691.77503824 589.94535947 689.88951382 588.05419922 688.00317383 C584.03895296 683.99927961 580.01977987 679.99934194 576 676 C571.33684539 671.36055446 566.67537445 666.71944259 562.01812744 662.07406616 C560.16632966 660.22868641 558.31151551 658.38637706 556.45654297 656.54418945 C547.13511514 647.26287282 547.13511514 647.26287282 543.51367188 643.01367188 C538.84118114 637.5343944 533.65280886 632.54308021 528.54728699 627.47212219 C526.61848237 625.55623531 524.69295397 623.63710727 522.76818848 621.71716309 C518.68161159 617.64194028 514.59110853 613.57067282 510.5 609.5 C505.75424102 604.7779468 501.01016336 600.05422931 496.27030945 595.32624817 C494.38527224 593.44763083 492.49721902 591.57208252 490.60900879 589.69665527 C485.5325769 584.64168601 480.561625 579.59225958 475.91247559 574.1373291 C471.66373254 569.38905298 467.06658868 564.96082868 462.54728699 560.47212219 C460.61848237 558.55623531 458.69295397 556.63710727 456.76818848 554.71716309 C452.68161159 550.64194028 448.59110853 546.57067282 444.5 542.5 C439.75424102 537.7779468 435.01016336 533.05422931 430.27030945 528.32624817 C428.38527224 526.44763083 426.49721902 524.57208252 424.60900879 522.69665527 C419.52821761 517.63734451 414.55217018 512.58361738 409.89904785 507.12390137 C405.71528855 502.44477119 401.1850125 498.07915975 396.73248291 493.65731812 C394.83728107 491.77503824 392.94535947 489.88951382 391.05419922 488.00317383 C387.03895296 483.99927961 383.01977987 479.99934194 379 476 C374.33684539 471.36055446 369.67537445 466.71944259 365.01812744 462.07406616 C363.16632966 460.22868641 361.31151551 458.38637706 359.45654297 456.54418945 C350.13511514 447.26287282 350.13511514 447.26287282 346.51367188 443.01367188 C341.84118114 437.5343944 336.65280886 432.54308021 331.54728699 427.47212219 C329.61848237 425.55623531 327.69295397 423.63710727 325.76818848 421.71716309 C321.68161159 417.64194028 317.59110853 413.57067282 313.5 409.5 C308.75424102 404.7779468 304.01016336 400.05422931 299.27030945 395.32624817 C297.38527224 393.44763083 295.49721902 391.57208252 293.60900879 389.69665527 C288.5325769 384.64168601 283.561625 379.59225958 278.91247559 374.1373291 C274.66373254 369.38905298 270.06658868 364.96082868 265.54728699 360.47212219 C263.61848237 358.55623531 261.69295397 356.63710727 259.76818848 354.71716309 C255.68161159 350.64194028 251.59110853 346.57067282 247.5 342.5 C242.75424102 337.7779468 238.01016336 333.05422931 233.27030945 328.32624817 C231.38527224 326.44763083 229.49721902 324.57208252 227.60900879 322.69665527 C222.52821761 317.63734451 217.55217018 312.58361738 212.89904785 307.12390137 C208.71528855 302.44477119 204.1850125 298.07915975 199.73248291 293.65731812 C197.83728107 291.77503824 195.94535947 289.88951382 194.05419922 288.00317383 C190.03895296 283.99927961 186.01977987 279.99934194 182 276 C177.33684539 271.36055446 172.67537445 266.71944259 168.01812744 262.07406616 C166.16632966 260.22868641 164.31151551 258.38637706 162.45654297 256.54418945 C153.13511514 247.26287282 153.13511514 247.26287282 149.51367188 243.01367188 C144.84118114 237.5343944 139.65280886 232.54308021 134.54728699 227.47212219 C132.61848237 225.55623531 130.69295397 223.63710727 128.76818848 221.71716309 C124.68161159 217.64194028 120.59110853 213.57067282 116.5 209.5 C111.75424102 204.7779468 107.01016336 200.05422931 102.27030945 195.32624817 C100.38527224 193.44763083 98.49721902 191.57208252 96.60900879 189.69665527 C91.5325769 184.64168601 86.561625 179.59225958 81.91247559 174.1373291 C77.66373254 169.38905298 73.06658868 164.96082868 68.54728699 160.47212219 C66.61848237 158.55623531 64.69295397 156.63710727 62.76818848 154.71716309 C58.68161159 150.64194028 54.59110853 146.57067282 50.5 142.5 C45.75424102 137.7779468 41.01016336 133.05422931 36.27030945 128.32624817 C34.38527224 126.44763083 32.49721902 124.57208252 30.60900879 122.69665527 C20.28566381 112.41687188 20.28566381 112.41687188 16.01382446 107.15652466 C14.25622345 105.27437952 12.5156719 103.76208659 10.51815796 102.15182495 C4.11553453 96.79252773 -0.60712726 92.30678306 -1.48341179 83.70006752 C-1.67068412 79.02825238 -1.54671083 74.39658636 -1.3671875 69.7265625 C-1.34101833 67.70639975 -1.321117 65.68614707 -1.30715942 63.66586304 C-1.25414418 58.39285342 -1.11705066 53.12539493 -0.96130371 47.85455322 C-0.81710403 42.45848683 -0.75394095 37.0615074 -0.68359375 31.6640625 C-0.53423231 21.10695889 -0.29586735 10.55394402 0 0 Z " fill="#FEFEFE" transform="translate(369,635)"/>
<path d="M0 0 C1.73149244 -0.01923112 3.46297177 -0.03967448 5.19443697 -0.06121945 C9.9349814 -0.11627307 14.67550982 -0.15272456 19.41625273 -0.18568134 C23.48706841 -0.21633505 27.55774545 -0.257859 31.62846298 -0.29934236 C46.20378466 -0.44740723 60.7793147 -0.55115724 75.35508728 -0.6428833 C76.50673531 -0.65013872 77.65838333 -0.65739414 78.84492978 -0.66486943 C101.74210383 -0.80754646 124.6393807 -0.92776444 147.5368433 -1.01270676 C152.56585884 -1.03169163 157.59487304 -1.05099024 162.62388611 -1.07061768 C163.87371277 -1.07547893 165.12353942 -1.08034019 166.41123962 -1.08534876 C186.63496895 -1.16675574 206.85666825 -1.34522141 227.07934839 -1.56223473 C247.87536725 -1.78354315 268.67033889 -1.90933684 289.46751493 -1.94523168 C301.1314721 -1.96788713 312.79187615 -2.03246481 324.45465279 -2.20595551 C334.3928335 -2.35370285 344.32693903 -2.41509669 354.26618046 -2.36708233 C359.32981309 -2.34525739 364.38473088 -2.3623099 369.44695282 -2.49151993 C402.44591722 -3.29067993 402.44591722 -3.29067993 414.56594146 7.66205905 C419.35668469 12.29917074 423.54309537 17.39826012 427.61804378 22.66317987 C430.6968025 26.45500226 434.15757982 29.47671605 437.94493103 32.5289917 C441.00400032 35.40806235 443.9733128 38.37244853 446.94493103 41.3414917 C447.71965759 42.10397217 448.49438416 42.86645264 449.29258728 43.65203857 C450.02348572 44.38100342 450.75438416 45.10996826 451.50743103 45.86102295 C452.16872009 46.51820312 452.83000916 47.1753833 453.51133728 47.85247803 C454.94493103 49.5289917 454.94493103 49.5289917 454.94493103 51.5289917 C410.00584351 51.59747643 365.06675014 51.66115744 320.12762451 51.69836426 C319.12969367 51.6991926 319.12969367 51.6991926 318.1116026 51.70003768 C303.65254765 51.71200977 289.19349214 51.72309043 274.73443581 51.73325302 C267.64354933 51.73824229 260.552663 51.74342852 253.46177673 51.74871826 C252.40334337 51.74950282 252.40334337 51.74950282 251.32352751 51.75030322 C228.45903804 51.76734361 205.59458816 51.79738511 182.73012266 51.83418058 C159.23069122 51.87192914 135.73128168 51.89653769 112.23182044 51.90465166 C97.09045229 51.90990762 81.94920029 51.92668408 66.80786864 51.96065757 C56.88361142 51.9817917 46.95941302 51.98819421 37.03513493 51.98299721 C31.30826568 51.98043375 25.58159511 51.98437988 19.85476112 52.0058136 C14.60936464 52.02530201 9.36430017 52.02624661 4.1188883 52.01258728 C2.22367825 52.01089947 0.32844734 52.01595407 -1.56672177 52.02852443 C-13.45551484 52.10278051 -25.3907232 52.15266389 -34.55116272 43.34539795 C-39.52757692 37.33492366 -41.9589471 31.09170246 -41.52772522 23.2633667 C-40.13596093 15.21183777 -36.17003266 9.93968046 -29.82460022 5.00164795 C-20.32119706 -0.05164259 -10.48106098 0.05264482 0 0 Z " fill="#6A8AAC" transform="translate(743.0550689697266,1689.4710083007813)"/>
<path d="M0 0 C2.46560667 -0.03725921 4.93110636 -0.0631381 7.39687705 -0.086694 C8.49049931 -0.1072269 8.49049931 -0.1072269 9.60621494 -0.1281746 C17.02302005 -0.17448622 22.22541975 1.93924237 28.31989646 5.91390109 C33.37567848 10.96968311 35.58449371 15.65526459 35.81989646 22.72640109 C35.768575 28.78966454 34.43958501 32.50646601 30.44489646 37.03890109 C24.4901572 42.68826911 17.91291775 45.14367311 9.79555869 45.18366122 C8.88717498 45.19055469 7.97879127 45.19744815 7.04288077 45.2045505 C5.56122302 45.20847812 5.56122302 45.20847812 4.04963279 45.21248507 C2.99490523 45.21921741 1.94017768 45.22594974 0.85348868 45.23288608 C-1.45252893 45.24703275 -3.75856094 45.25896388 -6.06460023 45.2689712 C-9.79046256 45.28529 -13.51624806 45.30756222 -17.24206948 45.33139682 C-21.91401301 45.36095468 -26.58595835 45.38935998 -31.25792116 45.4156372 C-46.09019116 45.49907191 -60.92228569 45.60491297 -75.75432229 45.72249484 C-76.82365982 45.73093519 -76.82365982 45.73093519 -77.91460013 45.73954606 C-106.63237066 45.96784526 -135.34290627 46.42236822 -164.05510354 47.03890109 C-165.04792211 47.05999312 -166.04074067 47.08108516 -167.06364465 47.10281634 C-192.56393267 47.64489664 -218.05950082 48.30896563 -243.55510354 49.03890109 C-243.55510354 34.18890109 -243.55510354 19.33890109 -243.55510354 4.03890109 C-218.83846099 3.06248923 -194.13069637 2.66740284 -169.39847994 2.33171988 C-163.59073021 2.25231688 -157.78302621 2.16968751 -151.97531533 2.08750033 C-142.24355629 1.95024302 -132.5117684 1.8152188 -122.77995706 1.68172336 C-111.5762754 1.52802358 -100.37263808 1.37137654 -89.16902119 1.21303004 C-77.15241794 1.04320963 -65.13578814 0.87533236 -53.11914825 0.70812607 C-49.69055789 0.66030411 -46.26197234 0.61214818 -42.83338761 0.5639236 C-37.42815459 0.48800757 -32.02290469 0.41342102 -26.61763978 0.33981204 C-24.64978729 0.31282761 -22.68194036 0.28543313 -20.71410012 0.25756907 C-15.48527653 0.18368368 -10.25650115 0.11827131 -5.02741289 0.06623602 C-3.35156559 0.04770712 -1.67575553 0.02551314 0 0 Z " fill="#6B8BAD" transform="translate(1650.5551035404205,442.96109890937805)"/>
</svg>
