<svg width="41" height="41" viewBox="0 0 41 41" fill="none" xmlns="http://www.w3.org/2000/svg">
<g clip-path="url(#clip0_1623_1374)">
<path d="M35.35 17.783C35.35 7.96179 27.4366 0 17.675 0C7.91343 0 0 7.96179 0 17.783C0 26.659 6.46353 34.016 14.9133 35.35V22.9234H10.4255V17.783H14.9133V13.8652C14.9133 9.40833 17.5521 6.94649 21.5895 6.94649C23.5232 6.94649 25.5459 7.29382 25.5459 7.29382V11.6701H23.3172C21.1215 11.6701 20.4367 13.0409 20.4367 14.4473V17.783H25.3388L24.5551 22.9234H20.4367V35.35C28.8865 34.016 35.35 26.6591 35.35 17.783Z" fill="#1877F2"/>
</g>
<defs>
<clipPath id="clip0_1623_1374">
<rect width="40.4" height="40.4" fill="white"/>
</clipPath>
</defs>
</svg>
