<svg width="18" height="21" viewBox="0 0 18 21" fill="none" xmlns="http://www.w3.org/2000/svg">
<path d="M17.1352 6.89039C17.0386 6.94666 14.7409 8.13416 14.7409 10.7671C14.8492 13.7698 17.6405 14.8229 17.6884 14.8229C17.6405 14.8791 17.267 16.2574 16.1605 17.7021C15.2823 18.9466 14.3077 20.2013 12.8276 20.2013C11.4198 20.2013 10.9144 19.3719 9.28993 19.3719C7.54541 19.3719 7.05179 20.2013 5.71614 20.2013C4.23608 20.2013 3.18921 18.8793 2.2632 17.6465C1.06016 16.033 0.0376231 13.5009 0.00152416 11.0696C-0.0228034 9.7813 0.242445 8.51489 0.915768 7.4392C1.86611 5.93747 3.56276 4.91806 5.41557 4.88444C6.8352 4.83986 8.09866 5.79205 8.96504 5.79205C9.79531 5.79205 11.3476 4.88444 13.1039 4.88444C13.8619 4.88517 15.8835 5.09782 17.1352 6.89039ZM8.84497 4.62721C8.59228 3.45068 9.28993 2.27414 9.93971 1.52365C10.77 0.616036 12.0813 0 13.2121 0C13.2843 1.17653 12.8268 2.33041 12.0091 3.17079C11.2754 4.07841 10.0119 4.76167 8.84497 4.62721Z" fill="url(#paint0_linear_1623_1378)"/>
<defs>
<linearGradient id="paint0_linear_1623_1378" x1="8.84421" y1="0" x2="8.84421" y2="20.2013" gradientUnits="userSpaceOnUse">
<stop stop-color="white"/>
<stop offset="1" stop-color="#999999"/>
</linearGradient>
</defs>
</svg>
