<svg width="30" height="30" viewBox="0 0 30 30" fill="none" xmlns="http://www.w3.org/2000/svg">
<g clip-path="url(#clip0_1621_1052)">
<path d="M27.3763 23.442L27.093 23.192C26.2894 22.4756 25.5858 21.6544 25.0013 20.7503C24.3625 19.5027 23.98 18.1398 23.8763 16.742V12.6253C23.8818 10.43 23.0855 8.30822 21.6369 6.65864C20.1884 5.00905 18.1873 3.94521 16.0096 3.66699V2.59199C16.0096 2.29694 15.8924 2.01397 15.6838 1.80534C15.4752 1.5967 15.1922 1.47949 14.8971 1.47949C14.6021 1.47949 14.3191 1.5967 14.1105 1.80534C13.9018 2.01397 13.7846 2.29694 13.7846 2.59199V3.68366C11.6265 3.98193 9.64961 5.05221 8.22008 6.69625C6.79054 8.34029 6.00524 10.4467 6.00964 12.6253V16.742C5.90593 18.1398 5.52341 19.5027 4.88464 20.7503C4.31037 21.6523 3.61813 22.4734 2.8263 23.192L2.54297 23.442V25.792H27.3763V23.442Z" fill="#15294B"/>
<path d="M12.7676 26.667C12.8407 27.1952 13.1024 27.6792 13.5045 28.0295C13.9066 28.3797 14.4218 28.5727 14.9551 28.5727C15.4883 28.5727 16.0036 28.3797 16.4057 28.0295C16.8078 27.6792 17.0695 27.1952 17.1426 26.667H12.7676Z" fill="black"/>
<circle cx="21.8477" cy="8.15234" r="7.5" fill="#FF3801"/>
<path d="M17.5518 6.73913V5.36452H20.301V15H18.781V6.73913H17.5518ZM17.7501 30.0567C17.7501 28.5323 18.0056 27.3427 18.5167 26.488C19.0366 25.6245 19.9265 25.1927 21.1866 25.1927C22.4467 25.1927 23.3322 25.6245 23.8433 26.488C24.3632 27.3427 24.6231 28.5323 24.6231 30.0567C24.6231 31.5987 24.3632 32.8059 23.8433 33.6783C23.3322 34.5418 22.4467 34.9736 21.1866 34.9736C19.9265 34.9736 19.0366 34.5418 18.5167 33.6783C18.0056 32.8059 17.7501 31.5987 17.7501 30.0567ZM23.1428 30.0567C23.1428 29.343 23.0943 28.7394 22.9974 28.2459C22.9093 27.7525 22.7242 27.3515 22.4422 27.0431C22.1603 26.7259 21.7417 26.5673 21.1866 26.5673C20.6315 26.5673 20.2129 26.7259 19.9309 27.0431C19.649 27.3515 19.4595 27.7525 19.3626 28.2459C19.2745 28.7394 19.2304 29.343 19.2304 30.0567C19.2304 30.7969 19.2745 31.4181 19.3626 31.9203C19.4507 32.4226 19.6358 32.8279 19.9177 33.1363C20.2085 33.4448 20.6315 33.599 21.1866 33.599C21.7417 33.599 22.1603 33.4448 22.4422 33.1363C22.733 32.8279 22.9225 32.4226 23.0106 31.9203C23.0987 31.4181 23.1428 30.7969 23.1428 30.0567Z" fill="white"/>
</g>
<defs>
<clipPath id="clip0_1621_1052">
<rect width="30" height="30" fill="white"/>
</clipPath>
</defs>
</svg>
