<svg width="32" height="32" viewBox="0 0 32 32" fill="none" xmlns="http://www.w3.org/2000/svg">
<g clip-path="url(#clip0_2289_847)">
<path d="M16 0.5C24.5609 0.500001 31.5 7.43914 31.5 16C31.5 24.5609 24.5609 31.5 16 31.5C7.43914 31.5 0.500001 24.5609 0.5 16C0.5 7.43914 7.43914 0.5 16 0.5ZM15.457 6C10.0582 6 5.5 9.76039 5.5 14.6201C5.50003 16.8444 6.47283 18.9133 8.14648 20.4785L8.49023 20.7842C8.76668 21.0191 9.05705 21.2368 9.3584 21.4385V23.6602C9.35852 24.7107 10.5566 25.2877 11.3887 24.6787C12.0857 24.1695 12.6732 23.7746 13.1123 23.501C13.3321 23.364 13.5116 23.2601 13.6465 23.1885C13.7098 23.1548 13.7571 23.1329 13.7891 23.1182C14.3375 23.1983 14.8933 23.2412 15.457 23.2412C15.7313 23.2412 16.0031 23.228 16.2725 23.209L16.2764 23.2578L15.9258 23.6777L15.9268 23.6797L16.0879 23.8408L16.1465 23.8359C17.2348 24.5446 18.5803 24.959 20.0244 24.959C20.3476 24.959 20.6671 24.9363 20.9834 24.8955C21.0398 24.9233 21.1031 24.9556 21.1787 24.999V25C21.4577 25.1637 21.8427 25.4227 22.3379 25.7832V25.7822C23.069 26.3162 24.1201 25.8079 24.1201 24.8857V23.6865C24.2644 23.5838 24.4043 23.477 24.5381 23.3633C25.7675 22.3208 26.5 20.8768 26.5 19.3096C26.4999 18.281 26.1878 17.3214 25.6455 16.498L25.2949 15.9668C25.3732 15.5295 25.415 15.0803 25.415 14.6211C25.415 9.76036 20.8558 6.00001 15.457 6ZM24.2021 18.7578C24.2386 18.9374 24.259 19.1216 24.2598 19.3115C24.2593 20.1794 23.8515 21.0209 23.0859 21.6699C22.8871 21.8378 22.6727 21.987 22.4463 22.1152C22.2749 22.2116 22.1317 22.3518 22.0322 22.5215C21.9699 22.628 21.9274 22.7442 21.9033 22.8643C21.6085 22.7282 21.3323 22.6475 21.0703 22.6475H21.0527C21.0006 22.6492 20.9481 22.653 20.8965 22.6602L20.8838 22.6631C20.2857 22.763 19.6763 22.756 19.083 22.6465C21.2574 21.9105 23.0794 20.5336 24.2021 18.7578ZM11.4258 13.2012C10.4701 13.2013 9.68568 13.9685 9.68555 14.9268C9.68555 15.8851 10.47 16.6532 11.4258 16.6533C12.3819 16.6533 13.166 15.8839 13.166 14.9268C13.1659 13.9685 12.3815 13.2012 11.4258 13.2012ZM15.457 13.2012C14.5013 13.2012 13.7169 13.9685 13.7168 14.9268C13.7168 15.8852 14.5012 16.6533 15.457 16.6533C16.4131 16.6533 17.1973 15.8839 17.1973 14.9268C17.1971 13.9685 16.4128 13.2012 15.457 13.2012ZM19.4883 13.2012C18.5325 13.2012 17.7482 13.9685 17.748 14.9268C17.748 15.8852 18.5324 16.6533 19.4883 16.6533C20.4443 16.6532 21.2275 15.8838 21.2275 14.9268C21.2274 13.9686 20.4439 13.2013 19.4883 13.2012ZM11.9092 20.7324C11.9075 20.5096 11.8472 20.2908 11.7344 20.0986C11.6215 19.9064 11.4595 19.7467 11.2656 19.6367H11.2646C10.8685 19.4113 10.4933 19.15 10.1445 18.8564C8.79062 17.7107 8.04984 16.2011 8.0498 14.6201C8.0498 11.3657 11.2554 8.53223 15.457 8.53223C19.6596 8.53224 22.8643 11.3657 22.8643 14.6201C22.8642 17.8746 19.6594 20.709 15.457 20.709C15.0794 20.709 14.7074 20.6858 14.3408 20.6396L13.9766 20.5859L13.9639 20.584L13.7686 20.5693H13.7627C13.4029 20.5694 13.0145 20.6931 12.6025 20.8877C12.3894 20.9883 12.159 21.1141 11.9092 21.2627V20.7324Z" fill="#15294B" stroke="#15294B"/>
<circle cx="24.1696" cy="9.87276" r="7.82979" fill="#FF3801"/>
<path d="M28.4227 7.167L24.8087 15.5H23.3137L26.9667 7.323H22.1567V6.062H28.4227V7.167Z" fill="white"/>
</g>
<defs>
<clipPath id="clip0_2289_847">
<rect width="32" height="32" fill="white"/>
</clipPath>
</defs>
</svg>
