<svg width="32" height="32" viewBox="0 0 32 32" fill="none" xmlns="http://www.w3.org/2000/svg">
<path d="M15.9993 29.3337C23.3631 29.3337 29.3327 23.3641 29.3327 16.0003C29.3327 8.63653 23.3631 2.66699 15.9993 2.66699C8.63555 2.66699 2.66602 8.63653 2.66602 16.0003C2.66602 23.3641 8.63555 29.3337 15.9993 29.3337Z" stroke="white" stroke-width="2.66667" stroke-linecap="round" stroke-linejoin="round"/>
<path d="M16 24C20.4183 24 24 20.4183 24 16C24 11.5817 20.4183 8 16 8C11.5817 8 8 11.5817 8 16C8 20.4183 11.5817 24 16 24Z" stroke="white" stroke-width="2.66667" stroke-linecap="round" stroke-linejoin="round"/>
<path d="M16.0007 18.6663C17.4734 18.6663 18.6673 17.4724 18.6673 15.9997C18.6673 14.5269 17.4734 13.333 16.0007 13.333C14.5279 13.333 13.334 14.5269 13.334 15.9997C13.334 17.4724 14.5279 18.6663 16.0007 18.6663Z" stroke="white" stroke-width="2.66667" stroke-linecap="round" stroke-linejoin="round"/>
</svg>
